<svg xmlns="http://www.w3.org/2000/svg" xmlns:xlink="http://www.w3.org/1999/xlink" width="500" zoomAndPan="magnify" viewBox="0 0 375 374.999991" height="500" preserveAspectRatio="xMidYMid meet" version="1.0"><defs><clipPath id="a1f6886a72"><path d="M 108.066406 235.507812 L 137.316406 235.507812 L 137.316406 240.007812 L 108.066406 240.007812 Z M 108.066406 235.507812 " clip-rule="nonzero"/></clipPath><clipPath id="e1fea336ef"><path d="M 237.683594 134.992188 L 266.933594 134.992188 L 266.933594 139.492188 L 237.683594 139.492188 Z M 237.683594 134.992188 " clip-rule="nonzero"/></clipPath><clipPath id="45bd33c2b9"><path d="M 129.769531 127.058594 L 237.769531 127.058594 L 237.769531 247.808594 L 129.769531 247.808594 Z M 129.769531 127.058594 " clip-rule="nonzero"/></clipPath></defs><rect x="-37.5" width="450" fill="#ffffff" y="-37.499999" height="449.999989" fill-opacity="1"/><rect x="-37.5" width="450" fill="#ffffff" y="-37.499999" height="449.999989" fill-opacity="1"/><rect x="-37.5" width="450" fill="#f4f1e9" y="-37.499999" height="449.999989" fill-opacity="1"/><path stroke-linecap="butt" transform="matrix(0.000000000000000092, 1.501943, -1.5, 0.000000000000000092, 121.940608, 117.906628)" fill="none" stroke-linejoin="miter" d="M -0.000251845 -0.000532372 L 78.400791 -0.000532372 " stroke="#000000" stroke-width="1" stroke-opacity="1" stroke-miterlimit="4"/><path stroke-linecap="butt" transform="matrix(0.000000000000000092, -1.501943, 1.5, 0.000000000000000092, 253.055496, 257.093362)" fill="none" stroke-linejoin="miter" d="M -0.000258653 -0.000538922 L 78.400784 -0.000538922 " stroke="#000000" stroke-width="1" stroke-opacity="1" stroke-miterlimit="4"/><path stroke-linecap="round" transform="matrix(-1.50929, -0.000000000000000185, 0.000000000000000184, -1.5, 171.137849, 234.75621)" fill="none" stroke-linejoin="miter" d="M 0.50026 -0.00106821 L 32.300705 -0.00106821 " stroke="#000000" stroke-width="1" stroke-opacity="1" stroke-miterlimit="4"/><path stroke-linecap="round" transform="matrix(1.50929, 0, 0, 1.5, 203.857448, 140.243765)" fill="none" stroke-linejoin="miter" d="M 0.500787 -0.00105179 L 32.301233 -0.00105179 " stroke="#000000" stroke-width="1" stroke-opacity="1" stroke-miterlimit="4"/><path stroke-linecap="round" transform="matrix(-1.497507, 0.000000000000000848, -0.00000000000000085, -1.5, 213.594878, 118.654679)" fill="none" stroke-linejoin="miter" d="M 0.498978 -0.00104706 L 60.606707 -0.00104706 " stroke="#000000" stroke-width="1" stroke-opacity="1" stroke-miterlimit="4"/><path stroke-linecap="round" transform="matrix(1.497507, 0, 0, 1.5, 161.397503, 256.345296)" fill="none" stroke-linejoin="miter" d="M 0.498848 -0.00103064 L 60.606577 -0.00103064 " stroke="#000000" stroke-width="1" stroke-opacity="1" stroke-miterlimit="4"/><g clip-path="url(#a1f6886a72)"><path fill="#f4f1e9" d="M 108.066406 235.507812 L 137.316406 235.507812 L 137.316406 240.007812 L 108.066406 240.007812 L 108.066406 235.507812 " fill-opacity="1" fill-rule="nonzero"/></g><g clip-path="url(#e1fea336ef)"><path fill="#f4f1e9" d="M 266.933594 139.492188 L 237.683594 139.492188 L 237.683594 134.992188 L 266.933594 134.992188 L 266.933594 139.492188 " fill-opacity="1" fill-rule="nonzero"/></g><g clip-path="url(#45bd33c2b9)"><path fill="#000000" d="M 237.152344 155.496094 C 229.667969 155.359375 222.558594 157.398438 216.515625 161.945312 C 213.492188 164.21875 211.03125 167.140625 207.917969 169.273438 C 205.359375 171.035156 202.058594 171.40625 199.644531 173.265625 C 197.597656 174.839844 196.667969 177.484375 195.878906 179.851562 C 194.25 184.816406 193.320312 188.433594 190.023438 192.652344 C 189.464844 193.394531 189 194.09375 188.582031 194.789062 C 191.042969 188.570312 193.367188 181.429688 193.089844 174.703125 C 193.042969 173.125 192.625 171.871094 192.4375 170.292969 C 191.835938 166.167969 192.207031 163.335938 192.671875 159.347656 C 192.949219 156.703125 193.183594 154.246094 192.53125 151.601562 C 191.089844 145.941406 186.90625 142.648438 182.074219 139.863281 C 178.402344 137.777344 175.054688 135.78125 171.941406 132.859375 C 169.664062 130.726562 167.664062 128.683594 164.921875 127.058594 C 164.550781 126.875 164.085938 127.199219 164.226562 127.617188 C 166.039062 133.695312 166.132812 139.167969 164.410156 145.246094 C 163.484375 148.539062 161.996094 151.785156 161.761719 155.265625 C 161.296875 161.992188 165.761719 165.933594 168.96875 171.316406 C 171.152344 175.027344 170.59375 178.921875 170.453125 182.726562 C 169.386719 181.519531 168.503906 181.429688 166.734375 180.964844 C 163.949219 181.429688 161.25 180.871094 158.695312 179.203125 C 158.136719 178.644531 157.578125 178.089844 157.070312 177.484375 C 155.675781 176.234375 154.746094 174.515625 153.210938 173.355469 C 151.121094 171.734375 148.933594 171.222656 146.332031 170.945312 C 140.941406 170.339844 135.78125 170.15625 130.527344 168.671875 C 130.019531 168.53125 129.738281 169.226562 130.15625 169.550781 C 133.226562 171.59375 136.105469 173.636719 137.453125 177.390625 C 138.246094 179.664062 138.105469 182.171875 138.523438 184.535156 C 138.847656 186.390625 139.265625 188.246094 140.335938 189.824219 C 143.496094 194.371094 149.632812 194.417969 154.1875 196.550781 C 157.996094 198.359375 158.417969 200.308594 160.042969 203.972656 C 160.230469 204.4375 160.183594 205.316406 160.554688 205.691406 C 161.578125 206.941406 162.273438 207.035156 163.667969 207.546875 C 166.597656 208.703125 170.175781 208.289062 173.242188 209.308594 C 178.03125 210.839844 182.121094 213.484375 185.746094 216.914062 C 183.1875 216.914062 180.679688 216.871094 178.125 216.871094 C 177.519531 216.871094 177.519531 217.796875 178.125 217.796875 C 181.933594 217.84375 185.746094 217.84375 189.511719 217.890625 C 192.484375 217.890625 198.621094 216.683594 200.199219 219.746094 C 201.175781 221.648438 199.269531 228.652344 199.039062 230.972656 C 198.527344 235.75 199.039062 243.265625 193.554688 245.675781 C 189.882812 247.300781 182.957031 246.464844 179.191406 245.863281 C 173.382812 244.933594 171.847656 241.410156 171.289062 235.796875 C 170.917969 232.132812 170.78125 228.464844 170.78125 224.800781 C 170.78125 219.746094 171.105469 216.542969 176.914062 216.542969 C 177.519531 216.542969 177.519531 215.617188 176.914062 215.617188 C 175.335938 215.617188 171.710938 214.828125 170.453125 216.082031 C 168.640625 217.890625 169.804688 225.730469 169.851562 228.140625 C 169.988281 234.3125 168.640625 244.144531 175.800781 246.1875 C 181.003906 247.671875 193.972656 249.574219 197.785156 244.425781 C 199.457031 242.152344 199.222656 238.070312 199.457031 235.515625 C 200.109375 229.535156 200.710938 223.550781 201.363281 217.566406 C 201.410156 217.285156 201.128906 217.101562 200.898438 217.101562 C 196.15625 217.054688 191.417969 217.054688 186.675781 217.007812 C 186.769531 216.871094 186.722656 216.683594 186.582031 216.5 C 183.28125 213.390625 179.609375 210.839844 175.335938 209.167969 C 172.871094 208.195312 170.453125 207.871094 167.898438 207.21875 C 164.644531 206.386719 162.554688 204.296875 160.601562 201.605469 C 158.742188 199.054688 157.8125 197.199219 154.605469 195.714844 C 147.214844 192.328125 140.613281 192.792969 139.21875 182.773438 C 138.710938 179.203125 138.382812 175.863281 135.921875 173.03125 C 135.128906 172.148438 132.804688 169.921875 132.25 170.25 C 132.992188 169.832031 137.453125 171.316406 138.476562 171.453125 C 141.960938 171.917969 145.355469 171.734375 148.796875 172.660156 C 152.746094 173.726562 154.1875 176.140625 156.882812 178.875 C 157.953125 179.945312 159.113281 181.148438 160.554688 181.707031 C 163.34375 182.773438 167.945312 181.148438 169.941406 183.703125 C 170.035156 183.839844 170.222656 183.886719 170.363281 183.886719 C 170.316406 186.625 170.640625 189.3125 172.546875 191.867188 C 174.960938 195.066406 178.214844 197.710938 180.679688 200.910156 C 182.816406 203.648438 184.675781 206.523438 186.351562 209.539062 C 186.488281 211.394531 186.628906 213.203125 186.769531 215.058594 C 186.816406 215.664062 187.746094 215.664062 187.699219 215.058594 C 187.605469 213.898438 187.558594 212.742188 187.464844 211.582031 L 188.300781 213.25 C 188.441406 213.527344 188.71875 213.527344 188.90625 213.4375 C 188.765625 213.808594 188.628906 214.132812 188.535156 214.503906 C 188.300781 215.058594 189.230469 215.339844 189.464844 214.734375 C 192.390625 206.894531 195.597656 199.101562 200.152344 192.003906 C 200.851562 190.890625 201.59375 189.824219 202.386719 188.757812 C 202.570312 188.898438 202.804688 188.941406 202.988281 188.757812 C 206.195312 185.882812 208.84375 182.820312 211.167969 179.203125 C 211.496094 178.738281 210.796875 178.273438 210.425781 178.644531 C 199.96875 187.785156 193.972656 200.078125 189.140625 212.832031 L 189.140625 212.785156 C 188.535156 211.582031 187.929688 210.421875 187.28125 209.261719 C 186.535156 199.890625 185.375 190.566406 183.699219 181.335938 C 181.980469 171.824219 179.65625 162.640625 173.847656 154.707031 C 173.660156 154.429688 173.289062 154.476562 173.105469 154.617188 C 172.964844 154.335938 172.824219 154.058594 172.640625 153.78125 C 172.964844 154.289062 173.800781 153.828125 173.476562 153.316406 C 173.429688 153.269531 173.382812 153.222656 173.382812 153.132812 C 173.242188 152.945312 173.058594 152.851562 172.824219 152.898438 C 172.730469 152.898438 172.683594 152.945312 172.59375 152.945312 C 172.359375 152.992188 172.265625 153.222656 172.265625 153.410156 C 171.894531 156.238281 173.707031 160.089844 174.777344 162.6875 C 176.265625 166.304688 178.261719 169.597656 180.632812 172.707031 C 180.726562 172.847656 180.867188 172.894531 180.957031 172.894531 C 181.703125 175.722656 182.261719 178.644531 182.816406 181.519531 C 184.351562 190.054688 185.421875 198.636719 186.210938 207.265625 C 184.074219 203.648438 181.609375 200.167969 178.820312 197.015625 C 177.703125 195.714844 176.449219 194.554688 175.289062 193.304688 C 171.941406 189.683594 171.617188 186.808594 171.710938 181.84375 C 171.753906 179.664062 172.359375 177.71875 171.847656 175.535156 C 170.6875 170.292969 165.992188 166.953125 163.992188 162.175781 C 160.601562 154.058594 165.992188 146.867188 166.597656 138.796875 C 166.691406 137.453125 165.25 130.167969 165.804688 129.519531 C 166.921875 128.265625 170.964844 133.277344 172.59375 134.761719 C 177.425781 139.074219 184.117188 140.929688 188.441406 145.847656 C 194.625 152.898438 190.300781 161.203125 191.371094 169.367188 C 192.578125 178.597656 190.90625 186.714844 187.417969 195.34375 C 187.234375 195.808594 187.746094 196.039062 188.117188 195.855469 C 186.070312 200.308594 186.859375 204.621094 188.628906 209.957031 C 188.8125 210.515625 189.742188 210.28125 189.558594 209.726562 C 187.558594 203.695312 186.859375 198.824219 190.8125 193.304688 C 192.300781 191.214844 193.878906 189.59375 194.855469 187.085938 C 195.738281 184.816406 196.15625 182.402344 196.902344 180.082031 C 198.574219 174.980469 200.804688 174.007812 205.21875 172.011719 C 210.472656 169.644531 214.003906 164.773438 218.746094 161.621094 C 222 159.441406 225.71875 157.863281 229.527344 157.074219 C 230.410156 156.886719 235.058594 155.867188 235.429688 156.703125 C 235.664062 157.214844 232.96875 159.441406 232.734375 159.671875 C 228.691406 163.847656 226.925781 167.882812 225.671875 173.496094 C 224.601562 178.226562 222.695312 181.9375 218.328125 184.398438 C 215.957031 185.742188 212.980469 185.972656 210.84375 187.644531 C 207.125 190.566406 208.800781 195.578125 207.453125 199.613281 C 204.941406 207.265625 195.878906 208.984375 190.394531 214.039062 C 189.929688 214.457031 190.625 215.105469 191.042969 214.6875 C 195.691406 210.421875 202.523438 208.75 206.523438 203.789062 C 207.917969 202.070312 208.660156 200.355469 208.984375 198.175781 C 209.21875 196.644531 208.800781 194.972656 209.171875 193.488281 C 210.703125 186.902344 213.214844 187.738281 217.164062 185.972656 C 220.882812 184.304688 224.089844 181.472656 225.625 177.625 C 227.113281 173.914062 226.832031 169.878906 228.785156 166.257812 C 230.921875 162.316406 234.363281 159.207031 237.664062 156.238281 C 237.800781 156.054688 237.523438 155.542969 237.152344 155.496094 Z M 208.148438 182.03125 C 208.800781 181.335938 209.308594 180.777344 209.496094 180.59375 C 209.265625 180.871094 208.425781 181.800781 206.753906 183.746094 C 206.011719 184.582031 205.265625 185.417969 204.429688 186.207031 C 205.636719 184.769531 206.894531 183.375 208.148438 182.03125 Z M 176.355469 164.125 C 175.289062 161.804688 174.777344 158.882812 173.847656 156.378906 C 176.914062 160.878906 178.914062 165.796875 180.355469 170.898438 C 178.867188 168.765625 177.519531 166.539062 176.355469 164.125 Z M 167.339844 196.039062 C 164.320312 193.394531 161.203125 190.707031 157.765625 188.617188 C 158.183594 188.988281 157.71875 189.777344 157.253906 189.40625 C 155.628906 188.199219 153.953125 186.996094 152.328125 185.835938 C 151.816406 185.464844 152.234375 184.769531 152.792969 185 C 159.949219 188.15625 165.574219 193.210938 171.335938 198.359375 C 176.402344 202.90625 183.792969 207.5 186.394531 214.039062 C 186.628906 214.597656 185.699219 214.828125 185.46875 214.269531 C 182.679688 207.21875 172.917969 200.910156 167.339844 196.039062 Z M 167.339844 196.039062 " fill-opacity="1" fill-rule="nonzero"/></g></svg>