<svg xmlns="http://www.w3.org/2000/svg" xmlns:xlink="http://www.w3.org/1999/xlink" width="500" zoomAndPan="magnify" viewBox="0 0 375 374.999991" height="500" preserveAspectRatio="xMidYMid meet" version="1.0"><defs><clipPath id="608066f207"><path d="M 108.066406 235.507812 L 137.316406 235.507812 L 137.316406 240.007812 L 108.066406 240.007812 Z M 108.066406 235.507812 " clip-rule="nonzero"/></clipPath><clipPath id="ee9373e527"><path d="M 237.683594 134.992188 L 266.933594 134.992188 L 266.933594 139.492188 L 237.683594 139.492188 Z M 237.683594 134.992188 " clip-rule="nonzero"/></clipPath><clipPath id="642f8fbcce"><path d="M 234 206 L 260 206 L 260 229.78125 L 234 229.78125 Z M 234 206 " clip-rule="nonzero"/></clipPath><clipPath id="5f23c327a8"><path d="M 112.5 192 L 140 192 L 140 228 L 112.5 228 Z M 112.5 192 " clip-rule="nonzero"/></clipPath><clipPath id="c1c7de47f8"><path d="M 173 145.03125 L 201 145.03125 L 201 224 L 173 224 Z M 173 145.03125 " clip-rule="nonzero"/></clipPath><clipPath id="c2cae6d56a"><path d="M 116 218 L 262.5 218 L 262.5 229.78125 L 116 229.78125 Z M 116 218 " clip-rule="nonzero"/></clipPath></defs><rect x="-37.5" width="450" fill="#ffffff" y="-37.499999" height="449.999989" fill-opacity="1"/><rect x="-37.5" width="450" fill="#ffffff" y="-37.499999" height="449.999989" fill-opacity="1"/><rect x="-37.5" width="450" fill="#f4f1e9" y="-37.499999" height="449.999989" fill-opacity="1"/><path stroke-linecap="butt" transform="matrix(0.000000000000000092, 1.501943, -1.5, 0.000000000000000092, 121.940608, 117.906628)" fill="none" stroke-linejoin="miter" d="M -0.000251845 -0.000532372 L 78.400791 -0.000532372 " stroke="#000000" stroke-width="1" stroke-opacity="1" stroke-miterlimit="4"/><path stroke-linecap="butt" transform="matrix(0.000000000000000092, -1.501943, 1.5, 0.000000000000000092, 253.055496, 257.093362)" fill="none" stroke-linejoin="miter" d="M -0.000258653 -0.000538922 L 78.400784 -0.000538922 " stroke="#000000" stroke-width="1" stroke-opacity="1" stroke-miterlimit="4"/><path stroke-linecap="round" transform="matrix(-1.50929, -0.000000000000000185, 0.000000000000000184, -1.5, 171.137849, 234.75621)" fill="none" stroke-linejoin="miter" d="M 0.50026 -0.00106821 L 32.300705 -0.00106821 " stroke="#000000" stroke-width="1" stroke-opacity="1" stroke-miterlimit="4"/><path stroke-linecap="round" transform="matrix(1.50929, 0, 0, 1.5, 203.857448, 140.243765)" fill="none" stroke-linejoin="miter" d="M 0.500787 -0.00105179 L 32.301233 -0.00105179 " stroke="#000000" stroke-width="1" stroke-opacity="1" stroke-miterlimit="4"/><path stroke-linecap="round" transform="matrix(-1.497507, 0.000000000000000848, -0.00000000000000085, -1.5, 213.594878, 118.654679)" fill="none" stroke-linejoin="miter" d="M 0.498978 -0.00104706 L 60.606707 -0.00104706 " stroke="#000000" stroke-width="1" stroke-opacity="1" stroke-miterlimit="4"/><path stroke-linecap="round" transform="matrix(1.497507, 0, 0, 1.5, 161.397503, 256.345296)" fill="none" stroke-linejoin="miter" d="M 0.498848 -0.00103064 L 60.606577 -0.00103064 " stroke="#000000" stroke-width="1" stroke-opacity="1" stroke-miterlimit="4"/><g clip-path="url(#608066f207)"><path fill="#f4f1e9" d="M 108.066406 235.507812 L 137.316406 235.507812 L 137.316406 240.007812 L 108.066406 240.007812 L 108.066406 235.507812 " fill-opacity="1" fill-rule="nonzero"/></g><g clip-path="url(#ee9373e527)"><path fill="#f4f1e9" d="M 266.933594 139.492188 L 237.683594 139.492188 L 237.683594 134.992188 L 266.933594 134.992188 L 266.933594 139.492188 " fill-opacity="1" fill-rule="nonzero"/></g><path fill="#040606" d="M 244.257812 197.214844 L 244.328125 197.023438 L 244.140625 196.957031 L 244.179688 196.859375 L 245.492188 197.34375 L 245.535156 197.398438 L 245.257812 197.296875 L 245.164062 197.550781 Z M 241.265625 196.027344 L 241.265625 196.023438 L 241.300781 196.035156 Z M 239.226562 196.472656 C 239.226562 196.472656 239.082031 197.285156 239.015625 197.613281 C 238.949219 197.941406 236.976562 198.671875 236.976562 198.671875 C 236.976562 198.671875 236.445312 197.710938 236.09375 197.339844 C 236.046875 197.285156 236.003906 197.238281 235.96875 197.191406 C 236.074219 197.171875 236.175781 197.148438 236.261719 197.128906 C 236.546875 197.066406 236.941406 196.917969 237.226562 196.734375 L 237.269531 196.691406 L 237.476562 196.769531 C 237.726562 196.859375 238.015625 196.714844 238.171875 196.441406 L 238.324219 196.496094 L 238.464844 196.125 L 238.277344 196.632812 L 238.695312 196.785156 L 238.886719 196.261719 L 239.476562 196.453125 C 239.332031 196.460938 239.226562 196.472656 239.226562 196.472656 Z M 235.929688 195.351562 C 235.910156 195.398438 235.894531 195.464844 235.878906 195.5625 C 235.867188 195.617188 235.839844 195.679688 235.800781 195.746094 L 235.785156 195.734375 C 235.707031 195.605469 235.171875 195.671875 235.171875 195.671875 L 234.945312 195.703125 C 234.824219 195.558594 234.695312 195.40625 234.570312 195.253906 C 235.097656 195.289062 235.570312 195.324219 235.929688 195.351562 Z M 238.078125 196.402344 C 237.945312 196.628906 237.710938 196.746094 237.511719 196.675781 L 237.328125 196.605469 C 237.402344 196.40625 237.226562 196.132812 237.226562 196.132812 C 237.226562 196.132812 237.117188 196.0625 236.96875 195.96875 L 237.003906 195.855469 L 237.027344 195.800781 C 237.089844 195.742188 237.125 195.707031 237.125 195.707031 L 237.128906 195.691406 L 237.328125 195.757812 C 237.328125 195.933594 237.359375 196.210938 237.566406 196.371094 C 237.566406 196.371094 237.5625 196.074219 237.636719 195.859375 L 238.1875 196.035156 L 238.175781 196.136719 Z M 240.746094 195.703125 L 240.679688 195.679688 Z M 248.683594 198.054688 L 248.542969 198.003906 L 248.109375 198.410156 L 248.085938 198.464844 L 246.136719 197.746094 L 246.179688 197.636719 L 245.96875 197.558594 C 245.835938 197.445312 245.675781 197.273438 245.640625 197.074219 L 244.074219 196.496094 L 243.890625 196.992188 L 241.464844 196.097656 L 241.371094 196.0625 L 242.15625 196.351562 L 242.285156 196 L 242.222656 196.179688 L 242.347656 196.226562 L 242.507812 195.785156 L 242.382812 195.742188 L 242.417969 195.648438 L 240.964844 195.109375 L 240.785156 195.601562 L 240.914062 195.246094 L 240.820312 195.210938 L 240.753906 195.390625 L 240.886719 195.035156 L 240.039062 194.722656 L 240.007812 194.816406 L 239.597656 194.667969 L 239.566406 194.75 L 237.144531 193.855469 L 236.671875 194.328125 L 236.609375 194.304688 L 236.546875 194.363281 C 235.964844 194.207031 234.746094 193.875 234.589844 193.734375 C 234.4375 193.597656 234.394531 193.398438 234.386719 193.300781 L 234.40625 193.304688 C 234.652344 193.316406 234.796875 192.996094 234.851562 192.808594 C 234.902344 192.621094 235.121094 191.953125 235.121094 191.953125 C 235.121094 191.953125 235.515625 191.933594 235.464844 191.75 C 235.171875 190.714844 235.324219 190.34375 235.324219 190.34375 C 235.324219 190.34375 235.84375 190.304688 235.964844 190.09375 C 236.046875 189.945312 235.929688 189.820312 235.820312 189.695312 C 235.90625 189.667969 235.984375 189.632812 236.039062 189.585938 C 236.21875 189.433594 236.289062 188.582031 236.171875 188.375 C 236.058594 188.167969 235.820312 187.851562 235.566406 187.824219 C 235.484375 187.8125 235.355469 187.863281 235.21875 187.933594 C 235.070312 187.765625 234.519531 187.191406 233.890625 186.957031 C 233.144531 186.679688 231.753906 186.664062 231.09375 187.683594 C 230.527344 188.546875 230.667969 189.765625 230.667969 189.765625 C 230.667969 189.765625 230.621094 190.179688 230.511719 190.425781 L 230.484375 190.507812 C 229.828125 189.945312 229.085938 189.371094 228.886719 189.46875 C 228.511719 189.648438 228.144531 189.429688 227.839844 189.796875 C 227.765625 189.886719 227.601562 190.046875 227.398438 190.238281 C 227.09375 190.121094 226.675781 190.023438 226.285156 190.152344 C 226.152344 190.199219 226.011719 190.265625 225.867188 190.351562 C 225.449219 189.835938 224.753906 189.324219 223.871094 189.503906 C 222.273438 189.828125 220.804688 193.390625 220.140625 194.128906 C 219.480469 194.863281 218.582031 196 218.882812 196.40625 C 219.070312 196.660156 219.644531 197.101562 220.199219 197.417969 C 220.296875 197.957031 220.511719 198.453125 220.707031 198.8125 C 220.632812 199.054688 220.578125 199.277344 220.578125 199.417969 L 220.972656 199.851562 C 220.957031 199.929688 220.945312 200.007812 220.933594 200.09375 C 220.652344 200.390625 220.035156 201.136719 220.140625 201.847656 C 220.230469 202.429688 220.8125 202.675781 221.21875 202.777344 C 221.367188 203.265625 221.574219 203.761719 221.574219 203.761719 L 222.5625 203.761719 C 222.5625 203.761719 222.5625 204.640625 223.570312 204.640625 C 224.019531 204.769531 225.339844 204.917969 225.339844 204.917969 C 225.339844 204.917969 225.113281 206.128906 225.429688 207.007812 C 225.332031 208.445312 225.894531 210.851562 225.90625 211.226562 C 225.917969 211.671875 225.734375 212.246094 225.734375 212.246094 C 225.152344 212.613281 224.097656 213.832031 223.503906 214.644531 C 222.910156 215.460938 222.535156 215.433594 222.027344 215.71875 C 221.519531 216.007812 221.011719 216.386719 220.683594 216.796875 C 220.355469 217.207031 220.496094 217.792969 219.96875 218.1875 C 219.542969 218.507812 219.398438 219.296875 219.355469 219.589844 C 218.761719 220.527344 218.097656 221.582031 217.589844 222.527344 C 217.277344 223.121094 217.507812 223.410156 218.636719 223.707031 C 218.839844 223.761719 220.195312 223.84375 220.359375 223.917969 C 220.523438 223.996094 222.101562 224.121094 222.101562 224.121094 C 222.101562 224.121094 222.605469 223.480469 222.074219 223.125 C 221.542969 222.765625 220.585938 222.695312 220.492188 222.144531 C 220.441406 221.875 220.921875 221.269531 221.363281 220.644531 L 221.449219 220.660156 C 221.8125 220.722656 222.320312 220.277344 222.976562 219.765625 C 223.632812 219.257812 224.988281 219.484375 225.328125 218.8125 C 225.671875 218.144531 229.730469 215.164062 230.148438 214.488281 C 230.433594 214.027344 230.566406 212.882812 230.601562 212.039062 C 230.910156 212.527344 231.207031 212.96875 231.386719 213.183594 C 231.386719 213.183594 231.539062 213.925781 231.300781 214.71875 C 231.0625 215.511719 230.515625 217.609375 230.191406 218.953125 C 230.097656 219.34375 230.066406 219.671875 230.058594 219.976562 C 229.835938 220.761719 229.695312 221.359375 229.753906 221.457031 L 229.792969 221.53125 C 229.546875 222.144531 229.53125 222.160156 229.242188 223.09375 C 229.039062 223.738281 228.859375 225.074219 229.203125 225.140625 C 229.203125 225.140625 229.71875 225.492188 229.917969 225.554688 C 230.121094 225.617188 231.371094 225.511719 231.539062 225.574219 C 231.707031 225.636719 233.289062 225.632812 233.289062 225.632812 C 233.289062 225.632812 233.742188 224.957031 233.183594 224.644531 C 232.625 224.332031 231.648438 224.195312 231.449219 223.671875 C 231.398438 223.542969 231.46875 223.300781 231.59375 223 C 231.675781 223 231.957031 222.988281 232.214844 222.777344 C 232.523438 222.527344 234.761719 217.476562 234.78125 217.441406 C 234.816406 217.386719 234.847656 217.339844 234.878906 217.304688 C 235.375 216.695312 235.84375 215.417969 235.910156 214.558594 C 235.976562 213.746094 234.976562 211.097656 234.4375 209.476562 C 234.988281 209.296875 235.4375 209.125 235.527344 209.035156 C 235.785156 208.777344 236.175781 208.179688 235.980469 207.75 C 235.785156 207.324219 235.355469 206.46875 235.101562 206.125 C 234.84375 205.785156 235.640625 205.570312 234.898438 204.90625 C 234.9375 204.804688 234.976562 204.589844 235.019531 204.332031 C 235.019531 204.332031 235.585938 204.722656 235.800781 205.144531 C 236.015625 205.566406 236.589844 205.316406 236.828125 204.332031 C 237.0625 203.347656 236.523438 203.277344 236.503906 203.273438 C 236.496094 203.273438 236.359375 203.113281 236.160156 202.878906 L 236.261719 202.824219 C 236.601562 202.589844 236.789062 201.613281 236.820312 201.25 C 237.273438 201.507812 237.507812 201.667969 237.816406 201.308594 C 237.949219 201.160156 238.898438 200.089844 239.015625 199.847656 C 239.132812 199.601562 239.386719 199.054688 239.683594 198.753906 C 239.976562 198.449219 239.878906 198.445312 239.816406 198.253906 C 239.753906 198.066406 240.671875 197.40625 240.792969 197.171875 C 240.855469 197.050781 240.800781 196.949219 240.714844 196.855469 L 240.964844 196.9375 L 241.300781 196.039062 L 241.007812 196.820312 L 241.175781 196.882812 L 241.132812 197 L 243.757812 197.707031 L 243.824219 197.519531 L 248.164062 199.117188 L 248.207031 198.992188 L 244.15625 197.496094 L 244.1875 197.40625 L 245.09375 197.742188 L 246.011719 198.082031 L 246.054688 197.96875 L 247.824219 198.621094 L 247.75 198.824219 L 248.320312 199.035156 L 248.394531 198.832031 L 248.5625 198.894531 L 248.644531 198.671875 L 248.476562 198.609375 L 248.683594 198.054688 " fill-opacity="1" fill-rule="nonzero"/><path fill="#040606" d="M 244.046875 196.25 L 242.542969 195.695312 L 242.324219 196.285156 L 243.796875 196.828125 L 243.933594 196.878906 L 244.074219 196.496094 L 243.96875 196.457031 L 244.046875 196.25 " fill-opacity="1" fill-rule="nonzero"/><g clip-path="url(#642f8fbcce)"><path fill="#040606" d="M 255.578125 213.585938 L 255.65625 213.453125 L 255.480469 213.390625 L 255.519531 213.324219 L 256.730469 213.765625 L 256.769531 213.804688 L 256.511719 213.714844 L 256.410156 213.890625 Z M 248.710938 214.414062 C 248.710938 214.414062 248.230469 213.777344 247.941406 213.546875 C 247.757812 213.402344 247.683594 213.28125 247.65625 213.214844 C 247.832031 213.144531 248.027344 213.054688 248.253906 212.933594 C 248.390625 212.855469 248.730469 212.949219 248.9375 212.902344 C 249.03125 212.882812 249.140625 212.847656 249.253906 212.804688 C 249.476562 212.875 249.742188 212.789062 249.898438 212.609375 L 250.039062 212.660156 L 250.191406 212.398438 L 249.988281 212.753906 L 250.089844 212.792969 C 250.085938 212.988281 250.074219 213.289062 250.0625 213.445312 C 250.050781 213.6875 248.710938 214.414062 248.710938 214.414062 Z M 250.050781 211.507812 L 249.78125 211.410156 Z M 252.859375 212.53125 L 252.828125 212.523438 L 252.832031 212.519531 Z M 246.039062 211.433594 C 246.140625 211.445312 246.238281 211.457031 246.335938 211.46875 C 246.257812 211.46875 246.175781 211.488281 246.105469 211.507812 Z M 247.789062 211.816406 L 247.742188 211.902344 L 246.644531 212.0625 C 246.597656 211.847656 246.546875 211.640625 246.503906 211.554688 C 246.480469 211.511719 246.445312 211.488281 246.398438 211.480469 C 246.960938 211.550781 247.472656 211.617188 247.847656 211.667969 C 247.832031 211.699219 247.8125 211.746094 247.789062 211.816406 Z M 249.8125 212.574219 C 249.699219 212.699219 249.53125 212.765625 249.375 212.753906 C 249.46875 212.714844 249.558594 212.667969 249.636719 212.617188 C 249.792969 212.519531 249.710938 212.320312 249.664062 212.226562 L 249.9375 212.316406 L 249.921875 212.386719 Z M 259.691406 214.496094 L 259.5625 214.449219 L 259.128906 214.714844 L 259.109375 214.753906 L 257.3125 214.101562 L 257.359375 214.023438 L 257.167969 213.953125 C 257.046875 213.859375 256.90625 213.726562 256.882812 213.578125 L 255.441406 213.054688 L 255.242188 213.402344 L 253.011719 212.585938 L 252.953125 212.566406 L 253.648438 212.820312 L 253.929688 212.328125 L 252.59375 211.839844 L 252.359375 212.253906 L 252.296875 212.230469 L 252.359375 212.25 L 252.539062 211.933594 L 252.453125 211.902344 L 252.273438 212.21875 L 252.523438 211.777344 L 251.746094 211.496094 L 251.710938 211.558594 L 251.332031 211.421875 L 251.300781 211.480469 L 249.070312 210.667969 L 248.601562 210.976562 L 248.542969 210.957031 L 248.484375 210.992188 C 248.101562 210.886719 247.433594 210.695312 247.019531 210.550781 C 247.066406 210.390625 247.210938 209.953125 247.210938 209.953125 C 247.210938 209.953125 247.496094 209.9375 247.460938 209.804688 C 247.246094 209.054688 247.355469 208.785156 247.355469 208.785156 C 247.355469 208.785156 247.734375 208.757812 247.824219 208.605469 C 247.882812 208.5 247.796875 208.410156 247.71875 208.316406 C 247.78125 208.296875 247.835938 208.269531 247.875 208.238281 C 248.007812 208.125 248.058594 207.507812 247.972656 207.359375 C 247.890625 207.210938 247.71875 206.980469 247.535156 206.960938 C 247.472656 206.953125 247.382812 206.988281 247.28125 207.039062 C 247.171875 206.917969 246.777344 206.5 246.316406 206.332031 C 245.777344 206.128906 244.769531 206.121094 244.289062 206.855469 C 243.878906 207.484375 243.980469 208.367188 243.980469 208.367188 C 243.980469 208.367188 243.949219 208.667969 243.871094 208.84375 L 243.847656 208.902344 C 243.375 208.496094 242.835938 208.082031 242.691406 208.152344 C 242.417969 208.285156 242.152344 208.125 241.933594 208.390625 C 241.878906 208.453125 241.761719 208.570312 241.613281 208.710938 C 241.394531 208.625 241.089844 208.554688 240.808594 208.648438 C 240.710938 208.679688 240.605469 208.730469 240.503906 208.792969 C 240.199219 208.417969 239.695312 208.046875 239.054688 208.179688 C 237.898438 208.414062 236.832031 210.996094 236.351562 211.527344 C 235.871094 212.0625 235.222656 212.886719 235.4375 213.179688 C 235.574219 213.363281 235.992188 213.683594 236.394531 213.914062 C 236.464844 214.308594 236.621094 214.664062 236.761719 214.925781 C 236.707031 215.101562 236.667969 215.265625 236.667969 215.363281 L 236.953125 215.679688 C 236.945312 215.734375 236.933594 215.792969 236.929688 215.851562 C 236.722656 216.070312 236.277344 216.609375 236.351562 217.125 C 236.414062 217.546875 236.839844 217.726562 237.132812 217.796875 C 237.242188 218.152344 237.390625 218.511719 237.390625 218.511719 L 238.109375 218.515625 C 238.109375 218.515625 238.109375 219.148438 238.839844 219.148438 C 239.164062 219.242188 240.121094 219.351562 240.121094 219.351562 C 240.121094 219.351562 240.023438 219.863281 240.082031 220.390625 C 239.886719 221.019531 239.878906 221.695312 239.679688 222.464844 C 239.46875 223.28125 239.148438 225.296875 238.96875 225.148438 C 238.347656 224.632812 237.003906 224.761719 237.003906 224.761719 C 236.347656 224.523438 236.253906 225.121094 236.074219 224.910156 C 235.894531 224.703125 234.78125 224.164062 234.664062 224.699219 C 234.542969 225.230469 233.90625 227.46875 234.148438 228.183594 C 234.386719 228.898438 234.710938 228.394531 234.902344 227.886719 C 235.167969 227.171875 235.828125 226.367188 235.828125 226.367188 C 236.292969 226.605469 239.105469 228.421875 239.894531 228.542969 C 240.683594 228.664062 241.171875 228.542969 241.171875 228.542969 C 241.984375 228.125 241.789062 227.5 242.03125 227.140625 C 242.269531 226.785156 242.804688 224.90625 242.988281 224.488281 C 243.164062 224.074219 243.582031 223.824219 243.789062 223.464844 C 243.992188 223.109375 243.953125 222.96875 244.308594 222.453125 C 244.394531 222.328125 244.480469 222.183594 244.558594 222.042969 C 244.992188 222.175781 245.96875 222.472656 246.125 222.464844 C 246.257812 222.457031 246.867188 222.347656 247.253906 222.214844 C 247.644531 222.289062 247.996094 222.351562 248.238281 222.398438 C 248.25 222.679688 248.289062 223.023438 248.136719 223.328125 C 247.894531 223.804688 248.144531 223.839844 248.140625 224.175781 L 248.136719 224.253906 C 248.082031 224.664062 247.289062 226.191406 247.378906 226.503906 C 247.417969 226.632812 247.460938 226.761719 247.503906 226.867188 C 247.402344 227.085938 247.292969 227.289062 247.167969 227.464844 C 246.496094 228.402344 246.726562 229.230469 246.726562 229.230469 L 248.9375 229.449219 C 248.9375 229.449219 250.542969 229.78125 250.796875 229.449219 C 251.050781 229.117188 251.207031 228.84375 250.796875 228.769531 C 250.390625 228.691406 249.757812 228.511719 249.757812 228.511719 C 249.757812 228.511719 249.21875 227.90625 249.007812 227.628906 C 248.925781 227.523438 248.921875 227.355469 248.945312 227.183594 C 249.042969 227.171875 249.140625 227.152344 249.226562 227.128906 C 249.863281 226.949219 249.914062 225.878906 249.824219 225.699219 C 249.734375 225.519531 250.132812 224.445312 250.527344 224.207031 C 250.925781 223.972656 251.546875 222.226562 251.546875 222.226562 C 251.691406 221.9375 252.070312 221.621094 252.101562 221.214844 C 252.132812 220.8125 251.5625 220.070312 251.21875 219.980469 C 251.09375 219.949219 250.992188 219.972656 250.910156 220.015625 C 250.785156 219.960938 250.648438 219.90625 250.5 219.84375 C 250.15625 219.382812 247.574219 218.140625 247.5625 218.136719 C 247.558594 218.136719 247.496094 218.03125 247.410156 217.875 C 247.574219 217.914062 247.855469 217.960938 248.039062 217.832031 C 248.308594 217.648438 248.445312 216.8125 248.445312 216.625 C 248.445312 216.625 248.417969 216.371094 248.359375 216.097656 L 248.429688 216.125 C 249.085938 216.308594 249.335938 216.605469 249.585938 216.21875 C 249.664062 216.097656 250.234375 215.234375 250.292969 215.046875 C 250.351562 214.859375 250.480469 214.4375 250.660156 214.191406 C 250.839844 213.945312 250.769531 213.949219 250.703125 213.824219 C 250.640625 213.695312 251.230469 213.125 251.292969 212.941406 C 251.324219 212.859375 251.28125 212.796875 251.21875 212.738281 L 252.496094 213.160156 L 252.542969 213.078125 L 252.699219 213.136719 L 252.652344 213.214844 L 255.078125 213.90625 L 255.15625 213.777344 L 259.144531 215.230469 L 259.191406 215.144531 L 255.203125 213.6875 L 255.464844 213.785156 L 255.5 213.722656 L 256.332031 214.023438 L 257.179688 214.332031 L 257.222656 214.253906 L 258.851562 214.847656 L 258.769531 214.988281 L 259.296875 215.179688 L 259.378906 215.039062 L 259.53125 215.097656 L 259.621094 214.941406 L 259.46875 214.886719 L 259.691406 214.496094 " fill-opacity="1" fill-rule="nonzero"/></g><path fill="#040606" d="M 255.429688 212.875 L 254.046875 212.371094 L 253.972656 212.5 L 254.007812 212.433594 L 253.894531 212.390625 L 253.71875 212.699219 L 253.832031 212.742188 L 253.808594 212.78125 L 255.1875 213.285156 L 255.289062 213.320312 L 255.441406 213.054688 L 255.347656 213.019531 L 255.429688 212.875 " fill-opacity="1" fill-rule="nonzero"/><g clip-path="url(#5f23c327a8)"><path fill="#040606" d="M 113.667969 200.0625 L 116.28125 200.0625 L 116.28125 200.226562 L 118.976562 200.226562 L 118.976562 200.359375 L 113.667969 200.359375 Z M 122.125 199.832031 L 119.5625 199.832031 L 119.5625 199.664062 L 121.941406 199.664062 L 121.941406 199.574219 L 122.125 199.574219 Z M 123.390625 199.832031 L 123.4375 199.832031 L 123.4375 199.835938 Z M 125.109375 201.230469 L 126.414062 201.28125 L 126.414062 202.054688 L 127.03125 202.054688 L 127.03125 201.859375 L 127.257812 201.859375 C 127.292969 202.066406 127.382812 202.246094 127.507812 202.378906 C 127.285156 202.71875 127.089844 203.074219 127.089844 203.074219 C 127.089844 203.074219 125.335938 202.421875 125.273438 202.132812 C 125.230469 201.910156 125.144531 201.441406 125.109375 201.230469 Z M 127.585938 202.261719 C 127.496094 202.152344 127.429688 202.011719 127.402344 201.851562 L 127.402344 201.605469 C 127.515625 201.644531 127.628906 201.679688 127.722656 201.703125 C 127.800781 201.71875 127.890625 201.742188 127.984375 201.757812 C 127.949219 201.796875 127.914062 201.84375 127.871094 201.890625 C 127.785156 201.980469 127.683594 202.117188 127.585938 202.261719 Z M 119.257812 199.523438 L 119.257812 199.664062 L 118.976562 199.664062 L 118.976562 199.945312 L 117.640625 199.945312 L 117.640625 199.570312 L 117.230469 199.570312 L 117.3125 199.523438 Z M 112.578125 199.734375 L 112.578125 200.0625 L 112.828125 200.0625 L 112.828125 200.359375 L 112.992188 200.359375 L 112.992188 200.546875 L 119.394531 200.546875 L 119.394531 200.824219 L 123.144531 201.160156 L 123.144531 200.992188 L 123.390625 200.992188 L 123.390625 201.160156 L 124.007812 201.1875 L 123.992188 201.207031 C 123.882812 201.390625 123.585938 201.527344 123.695312 201.738281 C 123.804688 201.949219 124.621094 202.535156 124.5625 202.703125 C 124.507812 202.871094 124.417969 202.875 124.679688 203.144531 C 124.945312 203.414062 125.171875 203.902344 125.273438 204.117188 C 125.378906 204.335938 126.222656 205.285156 126.339844 205.417969 C 126.710938 205.84375 126.960938 205.4375 127.726562 205.105469 C 127.726562 205.332031 128.773438 207.746094 128.773438 207.746094 C 128.773438 207.746094 128.800781 208.085938 128.867188 208.382812 C 128.605469 208.640625 128.613281 208.8125 128.671875 208.957031 C 128.609375 209.136719 128.679688 209.265625 128.742188 209.382812 C 128.519531 209.675781 128.15625 210.402344 127.988281 210.769531 C 127.9375 210.886719 127.9375 211.019531 127.96875 211.15625 C 127.886719 211.351562 127.933594 211.578125 128.03125 211.789062 C 127.621094 213.164062 127.207031 214.679688 127.019531 215.542969 C 126.949219 215.558594 126.875 215.601562 126.800781 215.707031 C 126.527344 216.085938 126.308594 217.914062 126.378906 218.132812 C 126.441406 218.3125 126.800781 218.730469 127.144531 218.84375 C 127.433594 219.601562 127.878906 220.738281 127.878906 221.679688 C 127.878906 222.394531 128.28125 222.898438 128.574219 223.414062 C 128.867188 223.933594 128.820312 224.027344 129.078125 224.609375 C 129.339844 225.195312 129.089844 225.683594 129.089844 225.683594 C 129.023438 226.398438 127.691406 226.632812 127.28125 226.910156 C 127.023438 227.082031 126.957031 227.171875 127.109375 227.4375 C 127.261719 227.703125 129.753906 227.507812 129.753906 227.507812 C 129.753906 227.507812 130.203125 227.292969 130.265625 227.292969 C 130.332031 227.292969 130.726562 227.5 130.726562 227.5 C 131.1875 227.5 131.242188 227.394531 131.335938 227.046875 C 131.429688 226.699219 131.355469 226.113281 131.183594 225.730469 C 130.945312 225.199219 130.753906 225.039062 130.75 223.933594 C 130.746094 222.832031 130.726562 220.300781 130.726562 220.300781 C 130.726562 220.300781 130.261719 219.328125 130.171875 219.132812 C 130.078125 218.941406 130.328125 218.550781 130.171875 218.292969 C 130.015625 218.03125 130.042969 217.835938 130.042969 217.835938 L 130.171875 217.253906 C 130.136719 217.054688 130.089844 216.789062 130.046875 216.535156 C 130.167969 216.066406 130.472656 215.167969 131.222656 214.03125 C 131.398438 213.765625 131.570312 213.484375 131.734375 213.203125 C 131.898438 213.589844 132.101562 214.046875 132.292969 214.464844 C 132.292969 214.464844 133.132812 215.378906 133.339844 215.964844 C 133.339844 215.964844 133.207031 216.625 133.339844 216.878906 C 133.472656 217.132812 133.523438 217.863281 133.964844 218.15625 C 134.402344 218.449219 134.605469 218.871094 134.605469 218.871094 C 134.605469 218.871094 135.449219 220.789062 135.519531 221.007812 C 135.59375 221.226562 136.914062 223.492188 137.058594 223.929688 C 137.207031 224.367188 137.300781 225.5 137.207031 225.71875 C 137.113281 225.9375 136.894531 226.050781 136.894531 226.050781 L 135.210938 226.925781 C 135.210938 226.925781 134.757812 227.640625 135.210938 227.574219 C 135.667969 227.511719 139.292969 227.5625 139.292969 227.5625 C 139.292969 227.5625 139.585938 227.71875 139.441406 226.984375 C 139.292969 226.253906 138.578125 224.480469 138.78125 224.257812 C 139.183594 223.820312 138.347656 220.25 138.195312 219.527344 C 138.042969 218.800781 137.132812 217.28125 137.132812 217.28125 C 137.132812 217.28125 136.660156 216.546875 136.640625 216.328125 C 136.621094 216.109375 136.640625 215.628906 136.640625 215.304688 C 136.640625 215.046875 136.628906 214.78125 136.613281 214.519531 C 136.738281 214.492188 136.859375 214.4375 136.96875 214.339844 C 137.253906 214.089844 136.9375 212.554688 136.617188 211.28125 L 136.621094 211.273438 C 136.675781 211.160156 136.5625 210.933594 136.5625 210.933594 C 136.636719 210.894531 136.820312 210.707031 136.820312 210.707031 C 136.820312 210.707031 136.980469 210.515625 136.96875 210.195312 C 136.949219 209.660156 136.800781 208.75 136.800781 208.75 C 136.722656 208.671875 136.609375 208.640625 136.503906 208.625 C 136.488281 208.527344 136.480469 208.464844 136.480469 208.464844 C 136.382812 208.371094 136.230469 208.34375 136.105469 208.34375 C 135.855469 207.589844 135.675781 207.496094 135.675781 207.496094 C 135.675781 207.496094 135.636719 207.496094 135.578125 207.503906 C 135.464844 207.296875 135.394531 207.261719 135.394531 207.261719 L 135.371094 207.261719 C 135.574219 205.097656 135.660156 201.863281 135.390625 201.046875 C 134.933594 199.671875 134 198.9375 133.414062 198.59375 C 133.371094 198.414062 133.332031 198.25 133.292969 198.105469 L 133.363281 198.0625 C 133.363281 198.0625 133.304688 197.996094 133.238281 197.914062 C 133.160156 197.664062 133.089844 197.515625 133.035156 197.515625 C 132.9375 197.515625 132.804688 197.542969 132.652344 197.597656 C 132.582031 197.542969 132.445312 197.425781 132.386719 197.28125 C 132.359375 197.21875 132.339844 197.148438 132.324219 197.082031 C 132.386719 197.035156 132.359375 196.992188 132.339844 196.925781 C 132.324219 196.859375 132.320312 196.71875 132.355469 196.609375 C 132.382812 196.527344 132.40625 196.324219 132.414062 196.230469 C 132.515625 196.222656 132.648438 196.207031 132.722656 196.183594 C 132.863281 196.140625 132.929688 195.960938 132.832031 195.742188 C 132.734375 195.523438 132.695312 195.15625 132.695312 195.15625 C 132.695312 195.15625 132.820312 194.074219 132.316406 193.304688 C 131.730469 192.398438 130.496094 192.414062 129.832031 192.660156 C 129.269531 192.867188 128.78125 193.378906 128.648438 193.527344 C 128.527344 193.464844 128.414062 193.421875 128.339844 193.429688 C 128.113281 193.457031 127.90625 193.738281 127.800781 193.921875 C 127.699219 194.105469 127.761719 194.859375 127.921875 194.996094 C 127.96875 195.039062 128.039062 195.066406 128.113281 195.09375 C 128.019531 195.207031 127.914062 195.316406 127.988281 195.445312 C 128.09375 195.636719 128.558594 195.671875 128.558594 195.671875 C 128.558594 195.671875 128.695312 196 128.433594 196.917969 C 128.386719 197.082031 128.734375 197.101562 128.734375 197.101562 C 128.734375 197.101562 128.929688 197.695312 128.976562 197.863281 C 129.023438 198.027344 129.152344 198.3125 129.371094 198.300781 C 129.40625 198.300781 129.464844 198.289062 129.535156 198.273438 C 129.554688 198.316406 129.578125 198.355469 129.597656 198.367188 C 129.648438 198.390625 130.027344 198.234375 130.03125 198.210938 L 130.03125 198.183594 C 130.101562 198.179688 130.160156 198.1875 130.191406 198.214844 C 130.308594 198.308594 130.359375 198.601562 130.355469 198.753906 C 130.292969 198.789062 130.261719 198.8125 130.261719 198.8125 C 130.261719 198.8125 130.195312 198.886719 130.09375 199.007812 C 129.964844 198.96875 129.789062 198.9375 129.679688 198.992188 L 126.261719 198.992188 L 126.261719 198.867188 L 125.660156 198.867188 L 125.660156 198.730469 L 124.410156 198.730469 L 124.410156 198.992188 L 124.269531 198.992188 L 124.269531 198.789062 L 122.125 198.789062 L 122.125 198.929688 L 121.941406 198.929688 L 121.941406 198.789062 L 119.71875 198.789062 L 119.71875 199.097656 L 117.25 199.097656 C 117.109375 199.335938 116.820312 199.484375 116.59375 199.570312 L 116.28125 199.570312 L 116.28125 199.734375 L 113.402344 199.734375 L 113.402344 199.652344 L 113.03125 198.914062 L 112.828125 198.914062 L 112.828125 199.734375 L 112.578125 199.734375 " fill-opacity="1" fill-rule="nonzero"/></g><path fill="#040606" d="M 142.824219 214.269531 C 142.757812 214.253906 142.691406 214.238281 142.621094 214.214844 L 142.820312 213.929688 L 142.867188 213.992188 C 142.855469 214.082031 142.839844 214.175781 142.824219 214.269531 Z M 140.210938 215.640625 L 139.980469 216.183594 L 140.257812 216.375 L 141.171875 215.332031 C 141.203125 215.332031 141.238281 215.320312 141.285156 215.292969 C 141.375 215.25 141.417969 215.175781 141.417969 215.175781 L 141.382812 215.089844 L 141.449219 215.011719 C 141.589844 215.042969 141.816406 215.09375 141.90625 215.078125 C 141.996094 215.0625 141.726562 214.953125 141.554688 214.890625 L 141.695312 214.734375 C 141.761719 214.789062 141.820312 214.84375 141.820312 214.84375 C 141.820312 214.84375 141.972656 214.90625 142.039062 214.96875 C 142.109375 215.035156 142.1875 214.859375 142.253906 214.84375 C 142.296875 214.835938 142.09375 214.597656 141.949219 214.441406 L 142.09375 214.277344 L 142.128906 214.277344 C 142.296875 214.363281 142.515625 214.449219 142.792969 214.492188 C 142.59375 215.839844 142.386719 217.59375 142.324219 217.734375 C 142.230469 217.953125 142.355469 218.570312 142.324219 218.789062 C 142.292969 219.003906 142.265625 219.933594 142.324219 220.121094 C 142.386719 220.304688 142.417969 220.460938 142.449219 220.582031 C 142.480469 220.707031 142.292969 222.734375 142.324219 222.953125 C 142.355469 223.167969 142.574219 223.230469 142.574219 223.230469 C 142.632812 223.671875 142.855469 224.519531 142.640625 224.859375 C 142.421875 225.199219 141.394531 225.570312 141.269531 225.664062 C 141.148438 225.753906 141.269531 225.96875 141.269531 225.96875 C 141.269531 225.96875 142.230469 225.972656 142.386719 225.96875 C 142.542969 225.964844 142.730469 225.726562 142.730469 225.726562 L 142.914062 225.96875 L 143.515625 225.972656 C 143.515625 225.972656 143.984375 225.882812 143.984375 225.417969 C 143.984375 224.953125 143.828125 223.683594 144.347656 223.371094 C 144.953125 223.007812 144.632812 220.988281 144.851562 220.433594 C 145.074219 219.875 144.84375 219.222656 145.0625 218.851562 C 145.285156 218.480469 145.0625 217.21875 145.339844 216.621094 C 145.539062 216.183594 145.84375 215.304688 146.082031 214.589844 C 146.183594 215.148438 146.351562 215.871094 146.554688 216.085938 C 146.664062 216.203125 146.816406 216.46875 146.972656 216.789062 C 147.140625 217.585938 147.390625 218.722656 147.507812 218.957031 C 147.695312 219.328125 148.125 219.5625 148.210938 219.726562 C 148.210938 219.726562 148.394531 220.996094 148.535156 221.179688 C 148.675781 221.367188 149.117188 222.132812 149.515625 222.292969 C 149.835938 223.003906 150.203125 223.8125 150.203125 223.8125 C 150.203125 223.8125 150.398438 224.503906 150.164062 224.851562 C 149.980469 225.125 148.953125 225.535156 149.269531 225.835938 C 149.582031 226.136719 150.964844 225.839844 150.964844 225.839844 C 150.964844 225.839844 151.925781 225.128906 151.925781 224.734375 C 151.925781 224.734375 151.515625 223.492188 151.152344 222.535156 C 151.023438 222.203125 150.917969 221.914062 150.832031 221.65625 C 150.875 221.429688 151.101562 220.183594 150.910156 219.726562 C 150.730469 219.300781 150.140625 217.890625 150.140625 217.890625 C 150.140625 217.890625 149.933594 216.511719 149.863281 216.210938 C 149.71875 215.589844 149.421875 214.90625 149.160156 214.375 C 149.113281 214.140625 149.066406 213.929688 149.019531 213.78125 C 149.0625 213.621094 149.078125 213.449219 149.078125 213.449219 C 149.078125 213.449219 149.179688 213.402344 149.222656 213.316406 C 149.265625 213.230469 149.179688 213.058594 149.179688 213.058594 C 149.238281 213.027344 149.375 212.882812 149.375 212.882812 C 149.375 212.882812 149.496094 212.738281 149.488281 212.496094 C 149.472656 212.089844 149.359375 211.394531 149.359375 211.394531 C 149.210938 211.246094 148.898438 211.308594 148.898438 211.308594 C 148.839844 211.097656 148.78125 210.9375 148.730469 210.816406 C 148.90625 210.753906 149.113281 210.671875 149.171875 210.621094 C 149.28125 210.535156 149.199219 210.230469 149.199219 210.230469 C 149.199219 210.230469 149.519531 210.316406 149.707031 210.230469 C 149.894531 210.144531 150 209.515625 150.027344 209.429688 C 150.054688 209.34375 149.972656 209.058594 149.867188 208.90625 C 149.757812 208.757812 149.464844 208.605469 149.464844 208.605469 C 149.464844 208.605469 149.601562 208.539062 149.734375 208.453125 C 149.867188 208.367188 149.867188 207.886719 149.867188 207.886719 C 149.945312 207.976562 150.105469 207.996094 150.105469 207.996094 C 150.160156 207.757812 150.292969 206.671875 150.292969 206.671875 C 150.292969 206.671875 150.1875 206.242188 150.136719 206.109375 C 150.089844 205.980469 149.921875 205.894531 149.921875 205.894531 L 150.054688 205.675781 C 150.214844 205.546875 150.105469 205.199219 150.054688 204.851562 C 150 204.503906 149.734375 204.851562 149.734375 204.851562 C 149.734375 204.851562 149.945312 204.199219 149.734375 203.8125 C 149.519531 203.421875 148.613281 202.378906 148.292969 202.421875 C 147.972656 202.464844 147.597656 202.855469 147.597656 202.855469 C 147.300781 202.785156 146.734375 202.828125 146.515625 202.847656 L 146.496094 202.84375 L 146.449219 202.851562 C 146.414062 202.785156 146.386719 202.722656 146.390625 202.683594 C 146.398438 202.574219 146.105469 202.664062 146.105469 202.664062 C 146.105469 202.664062 145.945312 202.53125 145.902344 202.378906 C 145.890625 202.328125 145.878906 202.273438 145.871094 202.21875 C 145.925781 202.191406 145.90625 202.15625 145.898438 202.105469 C 145.890625 202.054688 145.898438 201.945312 145.933594 201.867188 C 145.960938 201.804688 146 201.65625 146.015625 201.585938 C 146.089844 201.585938 146.191406 201.585938 146.25 201.574219 C 146.359375 201.554688 146.425781 201.425781 146.371094 201.25 C 146.316406 201.078125 146.316406 200.792969 146.316406 200.792969 C 146.316406 200.792969 146.5 199.988281 146.1875 199.363281 C 145.816406 198.632812 144.882812 198.535156 144.359375 198.667969 C 143.917969 198.777344 143.507812 199.125 143.390625 199.226562 C 143.304688 199.167969 143.222656 199.125 143.167969 199.125 C 142.992188 199.125 142.8125 199.320312 142.71875 199.453125 C 142.625 199.582031 142.609375 200.160156 142.71875 200.273438 C 142.75 200.308594 142.800781 200.339844 142.855469 200.363281 C 142.773438 200.441406 142.683594 200.515625 142.730469 200.621094 C 142.796875 200.773438 143.144531 200.839844 143.144531 200.839844 C 143.144531 200.839844 143.21875 201.101562 142.941406 201.773438 C 142.894531 201.894531 143.15625 201.933594 143.15625 201.933594 C 143.15625 201.933594 143.253906 202.402344 143.277344 202.53125 C 143.296875 202.660156 143.371094 202.886719 143.539062 202.898438 C 143.5625 202.898438 143.609375 202.894531 143.660156 202.886719 L 143.703125 202.964844 L 144.042969 202.882812 L 144.046875 202.863281 C 144.101562 202.867188 144.144531 202.878906 144.164062 202.898438 C 144.25 202.984375 144.261719 203.234375 144.238281 203.34375 C 144.21875 203.449219 144.121094 203.417969 144.078125 203.527344 C 144.050781 203.589844 144.101562 203.796875 144.144531 203.957031 C 144.039062 203.9375 143.925781 203.941406 143.882812 204.023438 C 143.835938 204.117188 143.78125 204.371094 143.730469 204.605469 C 143.363281 205.039062 142.964844 205.519531 142.851562 205.675781 C 142.632812 205.980469 142.503906 206.933594 142.449219 207.0625 C 142.398438 207.195312 142.640625 207.453125 142.640625 207.453125 L 142.449219 207.628906 C 142.179688 207.757812 142.070312 208.757812 142.070312 208.757812 C 142.070312 208.929688 142.199219 209.710938 142.449219 209.882812 L 142.519531 209.921875 C 142.386719 210.078125 142.292969 210.1875 142.289062 210.1875 C 142.273438 210.191406 141.910156 210.238281 142.070312 210.902344 C 142.171875 211.328125 142.363281 211.546875 142.53125 211.582031 L 142.105469 212.179688 C 142.105469 212.179688 141.691406 211.855469 141.738281 211.832031 C 141.78125 211.8125 142.027344 211.425781 142.027344 211.425781 C 142.027344 211.425781 141.816406 211.132812 141.710938 211.167969 C 141.570312 211.210938 140.808594 212.417969 140.871094 212.496094 C 141.109375 212.796875 141.339844 213.09375 141.339844 213.09375 L 139.890625 215.304688 L 140.210938 215.640625 " fill-opacity="1" fill-rule="nonzero"/><path fill="#040606" d="M 163.871094 219.621094 C 163.859375 219.148438 163.824219 218.652344 163.75 218.195312 C 163.613281 217.378906 163.527344 216.707031 163.476562 216.125 C 163.542969 215.949219 163.621094 215.730469 163.699219 215.492188 C 163.945312 215.988281 164.371094 216.824219 164.824219 217.078125 C 165.179688 218.222656 165.585938 219.535156 165.585938 219.535156 C 165.585938 219.535156 165.75 220.628906 165.324219 221.117188 C 165.136719 221.328125 164.546875 221.558594 164.128906 221.808594 C 164.089844 221.164062 164.011719 220.324219 163.871094 219.621094 Z M 155.039062 199.144531 C 155.289062 200.175781 155.886719 200.4375 156.113281 199.996094 C 156.335938 199.554688 156.925781 199.144531 156.925781 199.144531 C 156.96875 199.414062 157.015625 199.640625 157.054688 199.746094 C 156.277344 200.4375 157.113281 200.660156 156.84375 201.019531 C 156.574219 201.375 156.128906 202.269531 155.921875 202.714844 C 155.71875 203.160156 156.128906 203.785156 156.398438 204.054688 C 156.535156 204.191406 157.433594 204.496094 158.308594 204.761719 C 158.308594 205.5625 158.355469 206.460938 158.566406 206.796875 C 158.691406 207 158.839844 207.453125 158.984375 207.984375 C 158.988281 209.242188 159.015625 211.039062 159.121094 211.429688 C 159.289062 212.050781 159.867188 212.539062 159.949219 212.8125 C 159.949219 212.8125 159.835938 214.785156 159.992188 215.109375 C 160.136719 215.417969 160.539062 216.609375 161.054688 217.035156 C 161.269531 218.183594 161.515625 219.511719 161.515625 219.511719 C 161.515625 219.511719 161.785156 220.703125 161.320312 221.160156 L 161.242188 221.222656 L 161.179688 221.261719 C 161.179688 221.261719 159.796875 221.824219 159.640625 221.867188 C 159.640625 221.867188 159.511719 222.125 159.597656 222.5 C 159.597656 222.5 159.464844 222.785156 159.578125 222.816406 C 159.578125 222.816406 160.523438 222.84375 161.410156 222.867188 C 161.863281 222.902344 162.230469 222.898438 162.230469 222.898438 L 162.253906 222.890625 C 162.550781 222.898438 162.78125 222.898438 162.878906 222.898438 C 162.878906 222.898438 163.132812 222.605469 163.199219 222.648438 C 163.265625 222.691406 163.1875 222.898438 163.1875 222.898438 L 164.175781 222.816406 C 164.175781 222.816406 164.175781 222.765625 164.171875 222.679688 C 164.941406 222.90625 166.359375 222.785156 166.359375 222.785156 C 166.359375 222.785156 167.964844 221.882812 168.039062 221.28125 C 168.039062 221.28125 167.65625 219.296875 167.28125 217.761719 C 167.152344 217.226562 167.046875 216.765625 166.96875 216.355469 C 167.078125 216.011719 167.664062 214.148438 167.460938 213.417969 C 167.269531 212.726562 166.640625 210.457031 166.640625 210.457031 C 166.640625 210.457031 166.585938 208.304688 166.539062 207.828125 C 166.503906 207.507812 166.449219 207.175781 166.375 206.839844 C 167.855469 206.429688 167.351562 203.769531 167.351562 203.769531 C 167.351562 203.769531 168.730469 203.613281 169.199219 203.480469 C 170.25 203.480469 170.25 202.5625 170.25 202.5625 L 171.28125 202.5625 C 171.28125 202.5625 171.496094 202.046875 171.65625 201.535156 C 172.082031 201.429688 172.6875 201.171875 172.777344 200.5625 C 172.890625 199.820312 172.246094 199.042969 171.953125 198.730469 C 171.941406 198.644531 171.925781 198.558594 171.910156 198.480469 L 172.324219 198.027344 C 172.324219 197.882812 172.265625 197.644531 172.191406 197.398438 C 172.390625 197.019531 172.613281 196.503906 172.71875 195.941406 C 173.296875 195.609375 173.898438 195.148438 174.09375 194.882812 C 174.40625 194.460938 173.46875 193.269531 172.777344 192.503906 C 172.089844 191.734375 170.554688 188.015625 168.886719 187.675781 C 167.964844 187.488281 167.238281 188.023438 166.800781 188.558594 C 166.652344 188.472656 166.503906 188.402344 166.363281 188.355469 C 165.957031 188.21875 165.519531 188.320312 165.203125 188.441406 C 164.988281 188.242188 164.820312 188.074219 164.742188 187.980469 C 164.421875 187.601562 163.886719 187.535156 163.496094 187.34375 C 163.171875 187.1875 162.375 186.984375 162.117188 186.921875 C 162.039062 186.78125 161.957031 186.703125 161.871094 186.707031 L 161.796875 186.71875 C 161.746094 186.621094 161.703125 186.523438 161.707031 186.457031 C 161.722656 186.289062 161.269531 186.429688 161.269531 186.429688 C 161.269531 186.429688 161.023438 186.222656 160.957031 185.988281 C 160.933594 185.910156 160.921875 185.828125 160.910156 185.746094 C 160.992188 185.699219 160.960938 185.644531 160.949219 185.566406 C 160.9375 185.488281 160.949219 185.320312 161.007812 185.199219 C 161.050781 185.105469 161.101562 184.875 161.128906 184.765625 C 161.246094 184.769531 161.402344 184.769531 161.496094 184.75 C 161.664062 184.71875 161.761719 184.515625 161.675781 184.25 C 161.59375 183.980469 161.59375 183.546875 161.59375 183.546875 C 161.59375 183.546875 161.878906 182.300781 161.394531 181.335938 C 160.824219 180.207031 159.378906 180.058594 158.574219 180.261719 C 157.890625 180.429688 157.257812 180.964844 157.082031 181.125 C 156.949219 181.035156 156.820312 180.96875 156.734375 180.96875 C 156.464844 180.96875 156.1875 181.269531 156.039062 181.472656 C 155.894531 181.671875 155.871094 182.5625 156.039062 182.742188 C 156.089844 182.796875 156.167969 182.84375 156.253906 182.882812 C 156.128906 183 155.988281 183.117188 156.058594 183.277344 C 156.160156 183.511719 156.695312 183.613281 156.695312 183.613281 C 156.695312 183.613281 156.8125 184.015625 156.386719 185.054688 C 156.3125 185.238281 156.71875 185.304688 156.71875 185.304688 C 156.71875 185.304688 156.871094 186.023438 156.902344 186.222656 C 156.9375 186.425781 157.046875 186.773438 157.304688 186.789062 C 157.347656 186.792969 157.414062 186.785156 157.5 186.777344 C 157.515625 186.828125 157.539062 186.878906 157.5625 186.894531 C 157.617188 186.925781 158.078125 186.792969 158.089844 186.765625 L 158.089844 186.738281 C 158.175781 186.742188 158.242188 186.757812 158.273438 186.792969 C 158.40625 186.925781 158.425781 187.308594 158.390625 187.476562 C 158.355469 187.644531 158.207031 187.597656 158.140625 187.765625 C 158.101562 187.863281 158.175781 188.179688 158.246094 188.421875 C 158.078125 188.394531 157.90625 188.398438 157.839844 188.527344 C 157.765625 188.675781 157.679688 189.066406 157.601562 189.425781 C 157.039062 190.09375 156.421875 190.839844 156.25 191.078125 C 155.914062 191.546875 155.710938 193.019531 155.628906 193.222656 C 155.546875 193.421875 155.921875 193.824219 155.921875 193.824219 L 155.628906 194.09375 C 155.210938 194.292969 155.039062 195.832031 155.039062 195.832031 C 155.039062 196.101562 155.242188 197.304688 155.628906 197.574219 L 155.738281 197.628906 C 155.527344 197.875 155.386719 198.039062 155.378906 198.039062 C 155.359375 198.046875 154.792969 198.117188 155.039062 199.144531 " fill-opacity="1" fill-rule="nonzero"/><g clip-path="url(#c1c7de47f8)"><path fill="#040606" d="M 176.933594 161.628906 L 178.195312 161.671875 L 178.316406 157.996094 L 178.335938 157.445312 L 178.636719 157.457031 L 178.488281 162.007812 L 178.027344 161.996094 L 178.039062 161.664062 Z M 178.214844 153.433594 L 178.308594 153.292969 L 178.28125 154.019531 L 178.953125 154.042969 L 178.871094 156.421875 L 178.371094 156.402344 L 178.351562 156.898438 L 178.101562 156.890625 Z M 179.433594 145.925781 L 179.398438 146.988281 L 179.929688 147.007812 L 179.59375 157.183594 L 179.617188 156.445312 L 179.378906 156.4375 L 179.457031 154.058594 L 179.535156 151.644531 L 179.242188 151.632812 Z M 200.398438 179.089844 C 200.535156 178.101562 201.035156 177.980469 200.398438 176.558594 C 199.765625 175.140625 199.546875 173.773438 199.105469 173.085938 L 199.046875 172.980469 C 199.035156 172.226562 198.582031 170.621094 198.582031 170.621094 L 197.246094 168.683594 L 197.066406 168.660156 C 197.011719 168.429688 196.949219 168.1875 196.863281 167.925781 C 196.644531 167.261719 195.902344 166.230469 195.765625 165.890625 C 195.625 165.546875 192.5625 164.867188 192.542969 164.863281 C 192.246094 164.773438 191.933594 164.679688 191.621094 164.582031 C 191.484375 164.261719 191.308594 163.882812 191.195312 163.761719 C 190.984375 163.546875 190.371094 163.503906 189.847656 163.339844 C 189.328125 163.179688 189.296875 161.117188 189.296875 160.898438 C 189.296875 160.898438 189.867188 160.332031 190.050781 160.097656 C 190.492188 159.519531 190.664062 157.398438 190.664062 157.398438 C 190.664062 157.398438 191.898438 157.152344 191.898438 156.824219 C 191.898438 156.5 191.320312 155.0625 191.152344 154.804688 C 190.867188 154.355469 190.730469 154 190.664062 153.882812 C 190.425781 153.476562 189.808594 151.066406 186.910156 151.25 C 186.910156 151.25 183.726562 151.1875 183.328125 153.597656 C 183.328125 153.597656 182.875 155.125 182.644531 155.777344 C 182.417969 156.429688 182.195312 156.644531 182.644531 156.867188 C 183.410156 157.246094 183.507812 157.355469 183.507812 157.355469 C 183.507812 157.355469 183.664062 158.949219 183.847656 159.4375 C 183.929688 159.65625 184.292969 160.1875 184.292969 160.1875 C 184.292969 160.1875 184.765625 160.542969 184.890625 160.789062 C 185.019531 161.039062 185.160156 162.3125 184.792969 163.238281 C 184.792969 163.238281 184.277344 163.71875 183.859375 163.773438 C 183.441406 163.824219 183.101562 163.816406 183.050781 164.144531 C 183.046875 164.183594 183.035156 164.226562 183.023438 164.273438 C 182.914062 164.414062 182.777344 164.554688 182.617188 164.605469 L 182.613281 164.609375 C 182.238281 164.726562 182.074219 163.550781 181.851562 163.894531 C 181.695312 164.132812 181.402344 164.6875 181.285156 165.039062 C 181.101562 165.097656 180.933594 165.152344 180.789062 165.199219 L 180.785156 164.335938 L 180.484375 164.328125 L 180.496094 163.886719 L 178.425781 163.820312 L 178.414062 164.257812 L 178.414062 164.339844 L 178.410156 164.339844 L 178.4375 163.515625 L 178.425781 163.820312 L 180.800781 163.898438 L 180.414062 157.210938 L 179.921875 157.195312 L 180.300781 145.8125 L 179.96875 145.800781 L 179.980469 145.507812 L 179.445312 145.492188 L 179.460938 145.050781 L 178.875 145.03125 L 178.859375 145.472656 L 177.394531 145.421875 L 177.382812 145.789062 L 178.679688 146.492188 L 178.828125 146.496094 L 178.65625 151.617188 L 178.363281 151.605469 L 178.34375 152.164062 C 178.179688 152.558594 177.898438 153.066406 177.464844 153.296875 L 177.328125 157.410156 L 177.320312 157.6875 L 176.769531 157.667969 L 176.636719 161.617188 L 176.882812 161.625 L 176.875 161.957031 L 178.015625 161.992188 L 176.625 161.949219 L 176.5 165.761719 L 177.265625 165.785156 L 176.859375 165.773438 L 176.847656 166.019531 L 176.921875 166.023438 L 176.382812 166.003906 L 176.308594 168.226562 L 176.554688 168.234375 L 176.519531 169.304688 L 176.738281 169.3125 L 176.734375 169.421875 C 176.339844 170.078125 175.957031 170.710938 175.738281 171.074219 C 175.148438 172.058594 174.800781 173.207031 174.601562 174.230469 C 174.40625 175.257812 173.421875 176.734375 173.421875 177.816406 C 173.421875 178.898438 173.714844 180.570312 174.703125 181.457031 C 175.523438 182.191406 177.0625 182.113281 178.148438 181.894531 C 177.835938 182.40625 177.25 182.609375 177.25 182.609375 L 177.289062 185.183594 C 177.105469 185.632812 177.003906 186.007812 177.226562 186.007812 L 177.304688 185.992188 L 177.367188 190.375 L 177.515625 190.417969 C 177.527344 190.761719 177.566406 191.117188 177.636719 191.542969 C 177.785156 192.425781 177.632812 192.734375 178.078125 192.949219 C 178.523438 193.164062 178.777344 193.3125 179.058594 193.460938 C 179.335938 193.605469 178.46875 193.851562 179.058594 194.050781 C 179.222656 194.105469 179.378906 194.128906 179.527344 194.136719 C 179.359375 194.859375 178.65625 197.890625 178.414062 198.28125 C 178.414062 198.28125 178.296875 199.253906 178.582031 198.871094 C 178.636719 198.796875 178.722656 198.730469 178.828125 198.671875 C 178.695312 199.292969 178.582031 199.828125 178.496094 200.101562 C 178.25 200.914062 178.523438 202.316406 178.96875 202.585938 C 178.699219 203.769531 178.796875 208.171875 178.402344 209.15625 C 178.402344 209.15625 178.011719 210.246094 178.039062 210.933594 C 178.070312 211.625 178.304688 212.410156 178.039062 212.902344 C 177.773438 213.394531 178.109375 213.789062 178.039062 214.378906 C 177.996094 214.761719 178.339844 214.980469 178.703125 215.113281 C 178.898438 215.515625 179.132812 216.089844 179.1875 216.632812 C 179.28125 217.617188 178.925781 218.894531 178.402344 220.078125 C 178.402344 220.078125 177.414062 221.570312 176.429688 222.0625 C 175.441406 222.554688 175.34375 223.4375 175.441406 223.832031 C 175.539062 224.226562 182.148438 223.519531 182.148438 223.519531 C 182.148438 223.519531 182.949219 222.632812 182.585938 221.75 C 182.585938 221.75 182.246094 219.957031 182.246094 219.128906 C 182.246094 218.589844 182.550781 216.636719 182.761719 215.351562 C 182.9375 215.359375 183.023438 215.257812 183.398438 214.773438 C 184.085938 213.886719 183.886719 212.117188 183.886719 211.425781 C 183.886719 210.738281 183.851562 208.414062 184.316406 207.332031 C 184.785156 206.25 185.105469 204.824219 185.402344 203.644531 C 186.140625 203.304688 185.625 202.167969 185.769531 201.429688 C 185.855469 201.003906 186.429688 199.003906 186.898438 197.371094 C 187.359375 197.382812 187.78125 197.285156 188.101562 197.191406 C 188.359375 198.429688 188.605469 199.8125 188.730469 200.101562 C 188.851562 200.386719 189.195312 200.644531 189.484375 200.824219 C 189.507812 201.769531 189.285156 202.671875 189.410156 203.359375 C 189.609375 204.441406 190.101562 205.621094 190.199219 206.605469 C 190.296875 207.589844 189.804688 211.820312 190.199219 212.605469 C 190.59375 213.394531 190.394531 214.75 190.691406 215.351562 C 190.835938 215.644531 191.1875 215.578125 191.605469 215.472656 C 191.574219 217.191406 191.453125 219.820312 191.023438 220.960938 C 190.359375 222.734375 190.757812 223.070312 191.203125 223.507812 C 191.644531 223.945312 196.347656 223.628906 196.347656 223.628906 C 196.347656 223.628906 198.371094 223.738281 196.347656 220.667969 C 195.476562 219.34375 195.144531 217.277344 195.015625 215.765625 C 195.078125 215.75 195.136719 215.734375 195.195312 215.707031 C 195.839844 215.410156 196.234375 215.609375 196.335938 215.113281 C 196.433594 214.625 195.90625 209.65625 195.765625 208.179688 C 195.621094 206.703125 195.90625 204.734375 195.765625 203.753906 C 195.722656 203.460938 195.660156 203.03125 195.59375 202.539062 C 196.394531 202.171875 195.765625 201.503906 195.765625 201.503906 C 195.765625 201.503906 196.199219 201.0625 196.347656 200.398438 C 196.480469 199.789062 196.058594 198.253906 195.824219 197.601562 C 196.195312 197.757812 196.644531 197.835938 196.503906 197.480469 C 196.382812 197.167969 195.820312 194.863281 195.511719 193.585938 C 195.667969 193.460938 195.816406 193.324219 195.925781 193.167969 C 196.339844 192.582031 195.914062 191.121094 195.914062 191.121094 C 195.914062 191.121094 196.582031 191.414062 196.496094 191.121094 C 196.414062 190.828125 195.914062 189.144531 195.914062 189.144531 C 195.914062 189.144531 195.734375 188.925781 195.925781 188.707031 C 196.121094 188.488281 195.539062 188.023438 195.539062 188.023438 C 195.539062 188.023438 195.542969 187.242188 195.539062 187.023438 C 195.535156 186.804688 195.371094 186.441406 194.574219 186.148438 L 194.507812 186.132812 C 194.460938 185.777344 194.390625 185.421875 194.34375 185.121094 L 194.335938 185.085938 C 194.703125 185.253906 195.109375 185.386719 195.523438 185.453125 C 195.46875 185.851562 195.378906 186.324219 195.527344 186.628906 C 195.808594 187.207031 196.394531 187.753906 196.265625 188.300781 C 196.136719 188.851562 196.230469 189.617188 196.402344 190.277344 C 196.492188 190.613281 196.695312 190.828125 196.945312 190.953125 C 196.851562 191.234375 196.75 191.515625 196.667969 191.703125 C 196.457031 192.183594 196.410156 193.0625 196.433594 193.433594 C 196.457031 193.804688 196.765625 194.804688 196.964844 194.980469 C 197.160156 195.15625 197.457031 194.613281 197.402344 193.9375 C 197.347656 193.261719 197.707031 193.136719 197.785156 192.746094 C 197.863281 192.355469 198.175781 191.757812 198.410156 192.222656 C 198.640625 192.691406 198.621094 193.839844 198.621094 193.839844 C 198.621094 193.839844 198.421875 194.316406 198.109375 194.914062 C 197.796875 195.511719 197.757812 195.949219 197.925781 196.269531 C 198.097656 196.585938 198.460938 195.949219 198.734375 195.628906 C 199.007812 195.308594 200.160156 193.863281 200.167969 193.199219 C 200.179688 192.535156 200.019531 192.496094 200.070312 191.710938 C 200.09375 191.300781 200.058594 190.964844 199.992188 190.675781 L 200.09375 190.605469 C 200.753906 190.054688 199.875 188.027344 200.09375 186.628906 C 200.316406 185.230469 200.484375 183.601562 200.347656 182.828125 C 200.207031 182.050781 200.367188 180.214844 200.398438 180.144531 C 200.425781 180.074219 200.257812 180.074219 200.398438 179.089844 " fill-opacity="1" fill-rule="nonzero"/></g><path fill="#040606" d="M 213.582031 204.949219 L 213.875 204.847656 L 213.84375 204.753906 L 214.785156 204.441406 L 215.363281 204.246094 L 215.496094 204.203125 L 215.742188 204.121094 L 215.703125 204.003906 L 218.007812 203.234375 L 217.542969 203.390625 L 217.613281 203.597656 Z M 213.296875 204.496094 L 213.335938 204.613281 L 212.214844 204.988281 C 212.203125 204.945312 212.195312 204.902344 212.183594 204.867188 L 213.1875 204.53125 Z M 214.851562 203.867188 L 214.917969 203.882812 L 214.628906 203.976562 L 214.71875 204.242188 L 213.777344 204.554688 L 213.710938 204.359375 L 213.511719 204.421875 L 213.480469 204.324219 Z M 218.140625 203.191406 L 218.3125 203.132812 L 218.234375 202.902344 L 218.0625 202.960938 L 217.867188 202.378906 L 217.722656 202.429688 L 217.636719 203.039062 L 217.65625 203.09375 L 215.625 203.773438 L 215.585938 203.65625 L 215.367188 203.730469 C 215.1875 203.726562 214.949219 203.6875 214.792969 203.550781 L 213.164062 204.097656 L 213.054688 204.132812 L 212.980469 203.917969 L 211.859375 204.292969 L 211.582031 203.894531 L 211.507812 203.886719 C 211.484375 203.789062 211.460938 203.6875 211.425781 203.578125 C 211.332031 203.304688 211.023438 202.871094 210.964844 202.730469 C 210.90625 202.589844 209.96875 202.5 209.96875 202.5 L 209.972656 202.511719 L 209.886719 202.5 C 209.824219 202.5 209.578125 202.410156 209.285156 202.296875 C 209.230469 202.160156 209.125 201.910156 209.0625 201.84375 C 208.972656 201.753906 208.71875 201.738281 208.5 201.667969 C 208.28125 201.601562 208.269531 200.742188 208.269531 200.648438 C 208.269531 200.648438 208.507812 200.414062 208.582031 200.316406 C 208.769531 200.074219 208.839844 199.191406 208.839844 199.191406 C 208.839844 199.191406 209.355469 199.089844 209.355469 198.953125 C 209.355469 198.816406 209.113281 198.21875 209.042969 198.109375 C 208.925781 197.921875 208.867188 197.773438 208.839844 197.726562 C 208.742188 197.554688 208.484375 196.550781 207.277344 196.625 C 207.277344 196.625 205.949219 196.601562 205.78125 197.605469 C 205.78125 197.605469 205.59375 198.242188 205.496094 198.515625 C 205.402344 198.785156 205.308594 198.875 205.496094 198.96875 C 205.816406 199.125 205.855469 199.171875 205.855469 199.171875 C 205.855469 199.171875 205.921875 199.835938 206 200.039062 C 206.03125 200.132812 206.183594 200.355469 206.183594 200.355469 C 206.183594 200.355469 206.378906 200.5 206.433594 200.605469 C 206.488281 200.707031 206.546875 201.238281 206.394531 201.625 C 206.394531 201.625 206.175781 201.824219 206.003906 201.847656 C 205.828125 201.871094 205.6875 201.867188 205.667969 202.003906 L 205.65625 202.054688 C 205.609375 202.117188 205.550781 202.175781 205.484375 202.195312 C 205.328125 202.246094 205.257812 201.757812 205.167969 201.898438 C 205.101562 201.996094 204.980469 202.230469 204.929688 202.375 C 204.746094 202.433594 204.601562 202.480469 204.550781 202.5 C 204.453125 202.53125 204.371094 202.554688 204.300781 202.589844 L 204.296875 202.589844 C 204.296875 202.589844 203.65625 202.589844 203.578125 202.792969 C 203.511719 202.972656 203.394531 203.449219 203.246094 203.855469 C 203.019531 204.226562 202.75 204.675781 202.617188 204.894531 C 202.371094 205.300781 202.496094 205.554688 202.410156 205.984375 C 202.328125 206.410156 201.917969 207.023438 201.917969 207.476562 C 201.917969 207.691406 201.949219 207.960938 202.019531 208.222656 L 200.261719 208.90625 L 200.441406 211.164062 C 200.441406 211.164062 200.605469 211.457031 200.863281 211.347656 C 201.003906 211.289062 202.5625 210.371094 204 209.515625 C 203.996094 209.613281 203.976562 209.695312 203.933594 209.734375 C 203.777344 209.855469 203.597656 209.949219 203.535156 210.164062 C 203.472656 210.378906 203.035156 211.117188 203.238281 211.117188 C 203.4375 211.117188 203.5 210.808594 203.59375 210.902344 C 203.6875 210.996094 203.625 211.269531 203.578125 211.457031 C 203.53125 211.640625 203.5 211.78125 203.578125 211.957031 C 203.65625 212.132812 203.410156 212.132812 203.378906 212.472656 C 203.347656 212.808594 203.347656 213.054688 203.410156 213.425781 C 203.472656 213.792969 203.40625 213.921875 203.59375 214.011719 C 203.777344 214.101562 203.886719 214.164062 204 214.222656 C 204.117188 214.285156 203.757812 214.386719 204 214.46875 C 204.09375 214.5 204.175781 214.507812 204.253906 214.507812 C 204.242188 214.570312 204.226562 214.636719 204.207031 214.699219 C 204.097656 215.023438 204.101562 215.253906 204.128906 215.4375 C 203.976562 216 203.84375 216.742188 203.769531 216.992188 C 203.664062 217.332031 203.777344 217.914062 203.964844 218.027344 C 203.851562 218.519531 203.894531 220.355469 203.730469 220.765625 C 203.730469 220.765625 203.566406 221.222656 203.578125 221.507812 C 203.589844 221.796875 203.6875 222.125 203.578125 222.328125 C 203.46875 222.535156 203.605469 222.699219 203.578125 222.945312 C 203.558594 223.105469 203.703125 223.195312 203.855469 223.25 C 203.9375 223.417969 204.035156 223.65625 204.054688 223.882812 C 204.09375 224.292969 203.945312 224.828125 203.730469 225.320312 C 203.730469 225.320312 203.316406 225.941406 202.90625 226.148438 C 202.496094 226.351562 202.453125 226.722656 202.496094 226.886719 C 202.535156 227.050781 205.289062 226.753906 205.289062 226.753906 C 205.289062 226.753906 205.625 226.386719 205.472656 226.015625 C 205.472656 226.015625 205.332031 225.269531 205.332031 224.925781 C 205.332031 224.699219 205.457031 223.886719 205.546875 223.347656 C 205.621094 223.351562 205.65625 223.3125 205.8125 223.109375 C 206.097656 222.738281 206.015625 222 206.015625 221.714844 C 206.015625 221.425781 206 220.457031 206.195312 220.007812 C 206.390625 219.554688 206.523438 218.960938 206.644531 218.46875 C 206.953125 218.328125 206.738281 217.855469 206.800781 217.546875 C 206.863281 217.238281 207.539062 214.929688 207.539062 214.929688 C 207.691406 215.128906 207.941406 216.777344 208.035156 216.992188 C 208.085938 217.113281 208.226562 217.21875 208.347656 217.292969 C 208.359375 217.6875 208.265625 218.066406 208.316406 218.351562 C 208.398438 218.800781 208.605469 219.292969 208.644531 219.703125 C 208.6875 220.113281 208.480469 221.878906 208.644531 222.207031 C 208.8125 222.535156 208.730469 223.097656 208.851562 223.351562 C 208.914062 223.472656 209.058594 223.445312 209.234375 223.402344 C 209.21875 224.117188 209.167969 225.210938 208.988281 225.6875 C 208.710938 226.425781 208.878906 226.570312 209.0625 226.75 C 209.25 226.933594 211.210938 226.800781 211.210938 226.800781 C 211.210938 226.800781 212.050781 226.847656 211.210938 225.566406 C 210.847656 225.015625 210.707031 224.152344 210.65625 223.523438 L 210.730469 223.5 C 211 223.375 211.164062 223.457031 211.203125 223.25 C 211.246094 223.046875 211.023438 220.976562 210.964844 220.359375 C 210.90625 219.746094 211.023438 218.925781 210.964844 218.515625 C 210.949219 218.394531 210.925781 218.214844 210.894531 218.007812 C 211.230469 217.855469 210.964844 217.578125 210.964844 217.578125 C 210.964844 217.578125 211.148438 217.390625 211.210938 217.117188 C 211.269531 216.839844 211.054688 216.101562 210.964844 215.886719 C 210.878906 215.671875 210.871094 215.117188 210.777344 214.871094 C 210.730469 214.746094 210.65625 214.640625 210.585938 214.5625 C 210.558594 214.164062 210.519531 213.777344 210.457031 213.464844 C 210.359375 212.941406 210.402344 212.28125 210.347656 211.90625 L 210.351562 211.894531 C 210.558594 211.664062 210.433594 211.109375 210.375 210.746094 L 210.371094 210.730469 C 210.707031 210.886719 211.128906 210.972656 211.472656 210.839844 C 212.109375 210.59375 212.320312 209.855469 212.152344 209.390625 C 212.113281 209.28125 212.089844 209.191406 212.078125 209.101562 L 212.152344 209.390625 C 212.152344 209.390625 212.503906 207.800781 212.503906 207.320312 C 212.503906 206.886719 212.316406 206.183594 212.320312 205.871094 L 213.691406 205.273438 L 213.625 205.078125 L 218.136719 203.570312 L 218.09375 203.4375 L 218.210938 203.398438 L 218.140625 203.191406 " fill-opacity="1" fill-rule="nonzero"/><g clip-path="url(#c2cae6d56a)"><path fill="#040606" d="M 116.324219 229.78125 L 262.433594 229.78125 C 262.433594 229.78125 250.289062 225.09375 247.15625 225.09375 C 244.023438 225.09375 243.238281 227.046875 240.105469 225.09375 C 236.96875 223.136719 230.3125 222.746094 227.179688 221.964844 C 227.179688 221.964844 225.089844 220.792969 223.261719 221.964844 C 221.433594 223.136719 220.386719 223.398438 219.34375 223.660156 C 218.300781 223.917969 217.777344 223.917969 216.992188 224.179688 C 216.210938 224.441406 215.949219 226.265625 215.164062 225.613281 C 214.382812 224.960938 211.769531 225.480469 210.464844 225.613281 C 209.160156 225.742188 205.503906 223.917969 202.109375 222.878906 C 198.714844 221.835938 197.40625 221.574219 196.625 221.445312 C 195.839844 221.3125 192.96875 219.488281 192.183594 219.230469 C 191.402344 218.96875 191.007812 218.1875 189.378906 219.230469 C 187.746094 220.273438 184.613281 221.054688 183.828125 221.3125 C 183.828125 221.3125 181.738281 221.054688 179.128906 220.011719 C 176.515625 218.96875 174.6875 218.695312 172.597656 218.703125 C 170.511719 218.707031 165.289062 217.394531 163.722656 218.703125 C 162.152344 220.011719 155.886719 220.273438 153.535156 221.574219 C 151.1875 222.878906 151.449219 223.984375 149.621094 223.953125 C 149.621094 223.953125 147.269531 222.617188 144.917969 221.574219 C 142.570312 220.53125 143.351562 219.226562 141.261719 219.488281 C 139.175781 219.75 138.390625 220.273438 136.039062 221.574219 C 133.691406 222.878906 130.816406 223.464844 129.511719 223.953125 C 128.207031 224.441406 126.636719 226.265625 124.8125 226.523438 C 122.984375 226.785156 118.28125 227.828125 116.324219 229.78125 " fill-opacity="1" fill-rule="nonzero"/></g></svg>