<svg xmlns="http://www.w3.org/2000/svg" xmlns:xlink="http://www.w3.org/1999/xlink" width="500" zoomAndPan="magnify" viewBox="0 0 375 374.999991" height="500" preserveAspectRatio="xMidYMid meet" version="1.0"><defs><clipPath id="b1fc72ff77"><path d="M 108.066406 235.507812 L 137.316406 235.507812 L 137.316406 240.007812 L 108.066406 240.007812 Z M 108.066406 235.507812 " clip-rule="nonzero"/></clipPath><clipPath id="a2e3e9818e"><path d="M 237.683594 134.992188 L 266.933594 134.992188 L 266.933594 139.492188 L 237.683594 139.492188 Z M 237.683594 134.992188 " clip-rule="nonzero"/></clipPath><clipPath id="ec10359c9c"><path d="M 162.039062 101.707031 L 207 101.707031 L 207 251.707031 L 162.039062 251.707031 Z M 162.039062 101.707031 " clip-rule="nonzero"/></clipPath></defs><rect x="-37.5" width="450" fill="#ffffff" y="-37.499999" height="449.999989" fill-opacity="1"/><rect x="-37.5" width="450" fill="#ffffff" y="-37.499999" height="449.999989" fill-opacity="1"/><rect x="-37.5" width="450" fill="#f4f1e9" y="-37.499999" height="449.999989" fill-opacity="1"/><path stroke-linecap="butt" transform="matrix(0.000000000000000092, 1.501943, -1.5, 0.000000000000000092, 121.940608, 117.906628)" fill="none" stroke-linejoin="miter" d="M -0.000251845 -0.000532372 L 78.400791 -0.000532372 " stroke="#000000" stroke-width="1" stroke-opacity="1" stroke-miterlimit="4"/><path stroke-linecap="butt" transform="matrix(0.000000000000000092, -1.501943, 1.5, 0.000000000000000092, 252.305496, 255.593362)" fill="none" stroke-linejoin="miter" d="M -0.000258588 -0.000538955 L 78.400784 -0.000538955 " stroke="#000000" stroke-width="1" stroke-opacity="1" stroke-miterlimit="4"/><path stroke-linecap="round" transform="matrix(-1.50929, -0.000000000000000185, 0.000000000000000184, -1.5, 171.137849, 234.75621)" fill="none" stroke-linejoin="miter" d="M 0.50026 -0.00106821 L 32.300705 -0.00106821 " stroke="#000000" stroke-width="1" stroke-opacity="1" stroke-miterlimit="4"/><path stroke-linecap="round" transform="matrix(1.50929, 0, 0, 1.5, 203.107448, 140.243765)" fill="none" stroke-linejoin="miter" d="M 0.500787 -0.00105179 L 32.301233 -0.00105179 " stroke="#000000" stroke-width="1" stroke-opacity="1" stroke-miterlimit="4"/><path stroke-linecap="round" transform="matrix(-1.507571, -0.000000000000000185, 0.000000000000000184, -1.5, 184.626129, 118.654679)" fill="none" stroke-linejoin="miter" d="M 0.500829 -0.00104706 L 41.294916 -0.00104706 " stroke="#000000" stroke-width="1" stroke-opacity="1" stroke-miterlimit="4"/><path stroke-linecap="round" transform="matrix(1.497507, 0, 0, 1.5, 161.397503, 256.345296)" fill="none" stroke-linejoin="miter" d="M 0.498848 -0.00103064 L 60.606577 -0.00103064 " stroke="#000000" stroke-width="1" stroke-opacity="1" stroke-miterlimit="4"/><g clip-path="url(#b1fc72ff77)"><path fill="#f4f1e9" d="M 108.066406 235.507812 L 137.316406 235.507812 L 137.316406 240.007812 L 108.066406 240.007812 L 108.066406 235.507812 " fill-opacity="1" fill-rule="nonzero"/></g><g clip-path="url(#a2e3e9818e)"><path fill="#f4f1e9" d="M 266.933594 139.492188 L 237.683594 139.492188 L 237.683594 134.992188 L 266.933594 134.992188 L 266.933594 139.492188 " fill-opacity="1" fill-rule="nonzero"/></g><path fill="#000000" d="M 189.859375 220.21875 C 188.085938 220.261719 186.3125 220.277344 184.539062 220.285156 C 182.765625 220.292969 180.992188 220.285156 179.21875 220.285156 L 173.875 220.167969 C 175.601562 220.683594 177.363281 221.035156 179.152344 221.21875 C 180.945312 221.417969 182.738281 221.519531 184.539062 221.519531 C 186.34375 221.511719 188.136719 221.398438 189.925781 221.175781 C 191.722656 220.972656 193.488281 220.628906 195.230469 220.144531 C 193.421875 220.136719 191.640625 220.203125 189.859375 220.21875 Z M 189.859375 220.21875 " fill-opacity="1" fill-rule="nonzero"/><g clip-path="url(#ec10359c9c)"><path fill="#000000" d="M 205.589844 155.164062 C 205.902344 153.9375 206.167969 152.792969 206.386719 151.804688 C 206.605469 150.8125 206.722656 149.949219 206.8125 149.359375 C 206.90625 148.773438 206.9375 148.410156 206.9375 148.410156 L 206.636719 149.25 C 206.460938 149.796875 206.210938 150.570312 205.882812 151.46875 L 205.808594 151.71875 C 205.894531 148.425781 205.097656 144.4375 204.386719 140.800781 C 203.871094 138.640625 203.542969 136.453125 203.410156 134.234375 C 203.609375 130.453125 204.246094 125.28125 204.246094 125.222656 C 204.359375 124.582031 204.195312 124.023438 203.761719 123.542969 C 203.65625 123.441406 203.535156 123.382812 203.390625 123.367188 C 203.050781 123.351562 202.796875 123.496094 202.632812 123.792969 C 201.695312 125.257812 200.839844 126.765625 200.0625 128.320312 L 200.398438 127.339844 L 200.546875 127.035156 C 200.839844 126.355469 201.167969 125.648438 201.5 124.953125 C 201.835938 124.253906 202.128906 123.507812 202.445312 122.851562 C 202.765625 122.199219 203.015625 121.519531 203.285156 120.988281 C 203.550781 120.460938 203.710938 119.949219 203.851562 119.628906 C 203.996094 119.308594 204.054688 119.082031 204.054688 119.082031 L 203.71875 119.410156 C 203.515625 119.636719 203.226562 119.972656 202.882812 120.390625 L 202.746094 120.585938 C 202.75 120.550781 202.75 120.519531 202.746094 120.484375 C 201.742188 117.5625 201.277344 114.554688 201.351562 111.464844 C 201.527344 105.527344 200.449219 102.796875 197.5625 102.03125 L 197.292969 101.957031 C 195.621094 101.714844 194.375 103.386719 192.960938 105.316406 C 191.980469 106.757812 190.863281 108.082031 189.617188 109.296875 C 187.777344 110.976562 186.730469 114.605469 186.121094 118.234375 C 186.121094 117.957031 186.121094 117.6875 186.164062 117.394531 C 186.21875 116.839844 186.074219 116.347656 185.726562 115.914062 C 185.613281 115.785156 185.472656 115.703125 185.300781 115.679688 C 185.070312 115.652344 184.871094 115.722656 184.707031 115.890625 C 184.605469 115.992188 182.105469 118.410156 180.523438 123.734375 C 179.703125 126.1875 179.253906 128.707031 179.179688 131.292969 C 179.09375 131.042969 179.019531 130.796875 178.953125 130.5625 C 178.785156 130.074219 178.660156 129.640625 178.578125 129.335938 L 178.425781 128.859375 C 178.425781 128.859375 178.425781 129.050781 178.425781 129.402344 C 178.425781 129.757812 178.425781 130.242188 178.46875 130.847656 C 178.507812 131.453125 178.625 132.109375 178.761719 132.824219 C 178.8125 133.03125 178.878906 133.242188 178.9375 133.453125 C 178.535156 133.453125 178.175781 133.914062 178.042969 134.535156 C 177.421875 138.203125 177.21875 141.890625 177.429688 145.605469 C 177.429688 145.664062 177.429688 145.722656 177.429688 145.78125 C 177.386719 145.734375 177.34375 145.683594 177.304688 145.628906 C 177.027344 145.058594 176.820312 144.554688 176.679688 144.195312 L 176.425781 143.648438 C 176.425781 143.648438 176.425781 143.890625 176.503906 144.328125 C 176.578125 144.765625 176.667969 145.351562 176.8125 146.058594 C 176.953125 146.765625 177.203125 147.546875 177.472656 148.375 C 177.738281 149.207031 178.109375 150.007812 178.46875 150.804688 C 178.828125 151.601562 179.304688 152.265625 179.707031 152.902344 L 179.832031 153.0625 C 179.601562 153.035156 179.40625 153.105469 179.246094 153.273438 C 178.925781 153.621094 178.761719 154.035156 178.753906 154.507812 C 178.542969 158.847656 178.898438 163.140625 179.824219 167.382812 L 180.417969 169.902344 L 180.859375 171.714844 C 180.492188 170.792969 180.148438 169.878906 179.847656 168.980469 C 179.460938 167.960938 179.140625 166.921875 178.894531 165.863281 C 178.695312 165.078125 178.554688 164.285156 178.476562 163.476562 C 178.433594 163.175781 178.417969 162.941406 178.402344 162.773438 L 178.402344 162.519531 L 178.402344 162.773438 C 178.402344 162.941406 178.351562 163.183594 178.335938 163.496094 C 178.300781 164.371094 178.328125 165.25 178.417969 166.125 C 178.574219 167.308594 178.804688 168.480469 179.113281 169.632812 C 179.464844 170.851562 179.890625 172.085938 180.324219 173.296875 C 180.757812 174.503906 181.246094 175.578125 181.636719 176.65625 C 181.554688 176.597656 181.460938 176.558594 181.363281 176.539062 C 181.164062 176.511719 180.988281 176.566406 180.835938 176.695312 C 180.34375 177.210938 180.164062 177.820312 180.300781 178.519531 C 180.5 179.957031 180.875 184.1875 180.199219 186.523438 C 179.054688 190.472656 178.859375 192.804688 179.972656 198.878906 C 180.183594 200.027344 180.5 201.398438 180.867188 202.859375 C 180.558594 202.339844 180.257812 201.867188 179.980469 201.480469 C 179.707031 201.09375 179.269531 200.640625 179.027344 200.363281 L 178.644531 200.003906 L 178.902344 200.589844 C 179.078125 200.945312 179.3125 201.429688 179.582031 202.101562 C 179.847656 202.773438 180.183594 203.429688 180.492188 204.226562 C 180.800781 205.027344 181.152344 205.847656 181.445312 206.746094 L 181.585938 207.152344 C 179.085938 207.25 176.609375 207.558594 174.160156 208.074219 C 173.734375 208.175781 173.386719 208.394531 173.113281 208.738281 C 172.839844 209.082031 172.707031 209.476562 172.707031 209.914062 L 172.707031 216.390625 C 172.164062 216.6875 171.738281 217.105469 171.429688 217.640625 C 171.117188 218.175781 170.964844 218.75 170.972656 219.371094 L 170.972656 220.292969 C 169.84375 220.429688 168.742188 220.683594 167.671875 221.058594 C 164.117188 222.335938 162.167969 224.847656 162.167969 228.128906 L 162.167969 247.449219 C 162.167969 250.503906 166.15625 250.964844 168.070312 251.191406 C 171.167969 251.554688 176.09375 251.707031 184.539062 251.707031 C 192.988281 251.707031 197.921875 251.554688 201.015625 251.191406 C 202.933594 250.964844 206.921875 250.503906 206.921875 247.449219 L 206.921875 228.128906 C 206.921875 222.765625 202.019531 220.757812 198.121094 220.285156 L 198.121094 219.378906 C 198.128906 218.761719 197.980469 218.183594 197.671875 217.648438 C 197.363281 217.113281 196.9375 216.699219 196.398438 216.398438 L 196.398438 209.921875 C 196.398438 209.484375 196.261719 209.089844 195.992188 208.746094 C 195.71875 208.402344 195.371094 208.183594 194.945312 208.082031 C 192.734375 207.632812 190.503906 207.351562 188.253906 207.242188 C 188.636719 206.839844 189.035156 206.460938 189.457031 206.101562 C 189.726562 205.832031 189.984375 205.648438 190.210938 205.453125 C 190.394531 205.285156 190.59375 205.136719 190.804688 205 C 191.128906 204.730469 191.324219 204.589844 191.324219 204.589844 L 190.746094 204.707031 C 190.523438 204.757812 190.308594 204.832031 190.101562 204.925781 C 189.816406 205.027344 189.535156 205.148438 189.265625 205.285156 C 188.972656 205.453125 188.65625 205.648438 188.320312 205.882812 C 188.796875 205.421875 189.332031 204.917969 189.917969 204.386719 C 190.503906 203.859375 191.214844 203.101562 191.890625 202.464844 C 192.570312 201.824219 193.203125 201.078125 193.824219 200.441406 C 194.441406 199.800781 195.011719 199.136719 195.496094 198.617188 L 196.667969 197.257812 L 197.101562 196.710938 L 196.574219 196.988281 L 195.238281 197.828125 L 195.160156 197.878906 L 195.289062 197.742188 C 196.175781 196.675781 197.070312 195.585938 197.871094 194.492188 C 198.613281 193.429688 199.292969 192.328125 199.902344 191.183594 C 200.34375 190.300781 200.726562 189.394531 201.050781 188.464844 C 201.167969 188.121094 201.234375 187.824219 201.292969 187.625 C 201.351562 187.421875 201.375 187.328125 201.375 187.328125 L 201.25 187.582031 C 201.167969 187.742188 201.058594 187.992188 200.890625 188.277344 C 200.492188 189.082031 200.03125 189.847656 199.511719 190.578125 C 198.871094 191.550781 198.171875 192.480469 197.410156 193.359375 C 198.851562 190.734375 199.992188 187.980469 200.832031 185.105469 C 205.316406 170.828125 205.214844 161.773438 205.214844 161.402344 C 205.246094 160.816406 205.03125 160.34375 204.570312 159.984375 C 204.5 159.941406 204.425781 159.914062 204.34375 159.898438 C 204.234375 159.886719 204.128906 159.902344 204.027344 159.949219 C 204.167969 159.589844 204.3125 159.226562 204.445312 158.859375 C 204.820312 157.617188 205.25 156.355469 205.589844 155.164062 Z M 182.289062 209.34375 C 182.382812 209.628906 182.464844 209.90625 182.550781 210.183594 C 180.445312 210.117188 178.355469 209.921875 176.277344 209.601562 C 178.238281 209.296875 180.207031 209.105469 182.191406 209.023438 Z M 205.574219 229.136719 L 205.625 230.816406 C 205.625 231.960938 205.625 233.101562 205.625 234.234375 L 205.625 237.65625 C 205.625 238.796875 205.574219 239.929688 205.515625 241.074219 C 205.425781 243.347656 205.289062 245.625 205.015625 247.902344 C 204.746094 245.625 204.613281 243.347656 204.519531 241.074219 C 204.460938 239.929688 204.445312 238.796875 204.414062 237.65625 L 204.414062 234.234375 C 204.414062 233.101562 204.414062 231.960938 204.414062 230.816406 L 204.453125 229.136719 L 204.453125 228.296875 C 204.472656 228.035156 204.472656 227.773438 204.453125 227.507812 C 204.40625 226.820312 204.21875 226.167969 203.894531 225.558594 L 203.625 225.679688 L 203.117188 225.855469 C 202.78125 225.964844 202.457031 226.039062 202.128906 226.113281 C 201.476562 226.265625 200.832031 226.375 200.1875 226.46875 C 198.902344 226.652344 197.621094 226.761719 196.339844 226.84375 C 197.5625 226.449219 198.765625 226.003906 199.945312 225.550781 C 200.523438 225.308594 201.109375 225.054688 201.617188 224.78125 C 201.894531 224.636719 202.164062 224.492188 202.457031 224.34375 C 202.574219 224.265625 202.6875 224.191406 202.796875 224.109375 C 202.144531 223.535156 201.425781 223.066406 200.640625 222.695312 C 201.804688 222.9375 202.839844 223.441406 203.75 224.207031 C 204.714844 225.050781 205.285156 226.105469 205.464844 227.375 C 205.535156 227.960938 205.570312 228.546875 205.574219 229.136719 Z M 170.921875 222.21875 C 170.921875 222.21875 169.066406 223.167969 167.847656 226.695312 C 168.566406 226.964844 169.335938 227.179688 170.105469 227.398438 C 171.652344 227.8125 173.25 228.121094 174.855469 228.40625 C 176.460938 228.691406 178.089844 228.910156 179.722656 229.097656 C 181.351562 229.28125 183 229.441406 184.648438 229.582031 C 182.976562 229.699219 181.351562 229.820312 179.699219 229.886719 C 178.042969 229.953125 176.351562 229.988281 174.679688 229.976562 C 173.007812 229.96875 171.332031 229.894531 169.660156 229.726562 C 168.824219 229.632812 167.988281 229.53125 167.152344 229.363281 C 166.957031 230.511719 166.84375 231.667969 166.808594 232.832031 C 166.546875 237.832031 165.625 242.703125 164.03125 247.449219 L 164.03125 228.128906 C 164.046875 223.839844 168.339844 222.578125 170.921875 222.21875 Z M 189.925781 246.488281 C 188.128906 246.378906 186.339844 246.304688 184.539062 246.3125 C 182.742188 246.320312 180.953125 246.378906 179.160156 246.488281 C 177.371094 246.597656 175.566406 246.777344 173.757812 246.945312 C 175.503906 246.316406 177.289062 245.859375 179.121094 245.574219 C 180.917969 245.289062 182.726562 245.144531 184.539062 245.144531 C 186.359375 245.148438 188.167969 245.289062 189.96875 245.566406 C 191.796875 245.847656 193.582031 246.296875 195.328125 246.910156 C 193.523438 246.785156 191.722656 246.609375 189.925781 246.488281 Z M 201.394531 248.707031 C 198.574219 248.546875 195.765625 248.371094 192.960938 248.253906 C 190.160156 248.136719 187.351562 248.070312 184.539062 248.085938 C 181.730469 248.101562 178.9375 248.144531 176.125 248.253906 C 173.316406 248.363281 170.515625 248.546875 167.6875 248.707031 C 170.449219 248.089844 173.234375 247.644531 176.050781 247.371094 C 181.703125 246.800781 187.351562 246.800781 193.003906 247.371094 C 195.828125 247.644531 198.625 248.089844 201.394531 248.707031 Z M 189.683594 231.785156 C 187.71875 231.902344 185.734375 231.96875 183.761719 231.933594 C 181.785156 231.921875 179.8125 231.8125 177.847656 231.597656 C 178.835938 231.597656 179.824219 231.597656 180.808594 231.539062 C 181.796875 231.480469 182.773438 231.488281 183.761719 231.457031 C 185.726562 231.371094 187.683594 231.289062 189.617188 231.152344 C 191.550781 231.019531 193.53125 230.859375 195.472656 230.683594 C 196.449219 230.582031 197.429688 230.472656 198.398438 230.339844 C 199.367188 230.203125 200.347656 230.0625 201.324219 229.945312 C 197.511719 230.953125 193.636719 231.566406 189.699219 231.785156 Z M 196.222656 220.722656 C 195.195312 221.035156 191.976562 221.765625 184.632812 221.765625 C 177.816406 221.765625 174.253906 221.132812 172.832031 220.796875 L 172.832031 219.378906 C 172.847656 218.996094 172.980469 218.65625 173.230469 218.363281 C 173.480469 218.070312 173.792969 217.886719 174.167969 217.808594 C 181.089844 219.058594 188.015625 219.058594 194.9375 217.808594 C 195.308594 217.882812 195.613281 218.0625 195.855469 218.355469 C 196.097656 218.648438 196.21875 218.984375 196.222656 219.363281 Z M 182.003906 217.0625 C 186.222656 216.886719 190.378906 216.273438 194.46875 215.222656 L 194.46875 216.230469 C 190.359375 216.960938 186.222656 217.238281 182.054688 217.0625 Z M 194.46875 213.558594 C 187.917969 215.292969 181.265625 215.855469 174.519531 215.238281 L 174.519531 214.164062 C 181.265625 214.742188 187.914062 214.183594 194.46875 212.484375 Z M 192.796875 209.601562 C 190.476562 209.953125 188.148438 210.152344 185.804688 210.199219 C 186.0625 209.789062 186.339844 209.394531 186.640625 209.015625 C 188.707031 209.085938 190.765625 209.285156 192.8125 209.601562 Z M 188.929688 212.023438 C 184.160156 212.800781 179.367188 212.960938 174.554688 212.5 L 174.554688 211.308594 C 177.847656 211.917969 181.171875 212.210938 184.523438 212.191406 C 186.164062 212.191406 187.644531 212.121094 188.929688 212.023438 Z M 184.640625 210.34375 L 184.304688 210.34375 C 185.015625 207.964844 185.6875 205.554688 186.296875 203.109375 C 187.410156 198.703125 188.339844 194.203125 189.082031 189.605469 C 189.484375 187.320312 189.757812 184.996094 190.070312 182.675781 C 190.378906 180.359375 190.5625 178.015625 190.710938 175.65625 C 191.414062 166.238281 191.53125 156.8125 191.0625 147.378906 C 190.886719 142.664062 190.605469 137.945312 190.644531 133.191406 C 190.628906 128.480469 191.234375 123.855469 192.46875 119.308594 C 191.332031 123.867188 190.804688 128.496094 190.886719 133.191406 C 190.886719 137.910156 191.214844 142.605469 191.433594 147.320312 C 191.96875 156.792969 191.890625 166.265625 191.1875 175.730469 C 191.039062 178.101562 190.769531 180.453125 190.519531 182.804688 C 190.269531 185.15625 189.917969 187.472656 189.515625 189.773438 C 188.738281 194.382812 187.84375 198.9375 186.648438 203.328125 C 186.035156 205.707031 185.371094 208.046875 184.65625 210.34375 Z M 204.238281 161.488281 C 204.238281 161.488281 204.386719 170.304688 199.960938 184.433594 C 196.183594 196.535156 192.578125 196.191406 187.058594 205.21875 C 187.351562 204.175781 187.609375 203.101562 187.894531 202.035156 C 188.179688 200.96875 188.480469 199.75 188.730469 198.574219 L 189.484375 195.074219 C 189.71875 193.898438 189.917969 192.703125 190.128906 191.519531 L 190.445312 189.738281 L 190.710938 187.933594 L 191.230469 184.324219 L 191.625 180.679688 C 191.757812 179.460938 191.890625 178.25 191.96875 177.03125 L 192.191406 173.347656 C 192.277344 172.121094 192.316406 170.902344 192.375 169.675781 L 192.460938 167.84375 L 192.503906 166.003906 C 192.503906 164.789062 192.570312 163.5625 192.570312 162.34375 C 192.570312 157.449219 192.453125 152.566406 192.226562 147.738281 C 192 142.910156 191.691406 138.128906 191.65625 133.460938 C 191.648438 128.800781 192.0625 124.179688 192.902344 119.59375 C 192.972656 119.28125 192.902344 119 192.695312 118.753906 C 192.46875 118.542969 192.183594 118.679688 192.050781 119.046875 C 191.230469 121.335938 190.675781 123.683594 190.378906 126.09375 C 190.066406 128.570312 189.914062 131.058594 189.917969 133.554688 C 189.917969 138.5 190.195312 143.320312 190.371094 148.109375 C 190.546875 152.894531 190.644531 157.625 190.605469 162.429688 C 190.5625 167.230469 190.285156 171.960938 189.875 176.707031 C 189.800781 177.898438 189.675781 179.066406 189.550781 180.242188 L 189.164062 183.761719 L 188.664062 187.238281 L 188.414062 188.984375 L 188.09375 190.664062 C 187.324219 195.273438 186.296875 199.777344 185.160156 204.203125 C 184.722656 205.882812 184.238281 207.605469 183.738281 209.242188 C 183.007812 206.78125 181.503906 201.539062 180.925781 198.382812 C 179.839844 192.453125 180.089844 190.539062 181.09375 187.171875 C 182.097656 183.800781 181.269531 178.117188 181.269531 178.117188 C 182.96875 181.902344 183.949219 185.871094 184.214844 190.015625 C 184.882812 182.457031 182.179688 172.84375 180.769531 166.785156 C 179.894531 162.796875 179.550781 158.757812 179.730469 154.675781 C 182.492188 156.714844 185.8125 162.101562 185.8125 162.101562 C 183.300781 152.617188 178.585938 152.339844 178.351562 145.539062 C 178.136719 142.039062 178.320312 138.5625 178.894531 135.105469 C 179.0625 135.796875 179.320312 136.453125 179.664062 137.078125 C 180.007812 137.699219 180.429688 138.265625 180.921875 138.773438 C 181.417969 139.28125 181.972656 139.71875 182.582031 140.078125 C 183.191406 140.441406 183.839844 140.714844 184.523438 140.902344 C 178.558594 135.199219 179.929688 129.378906 181.402344 124.457031 C 182.875 119.535156 185.191406 117.320312 185.191406 117.320312 C 185.101562 120.953125 185.46875 124.542969 186.289062 128.085938 C 186.289062 128.085938 186.363281 114.128906 190.078125 110.707031 C 193.789062 107.289062 195.019531 103.25 197.203125 103.5625 L 197.394531 103.605469 C 199.703125 104.199219 200.539062 106.125 200.3125 111.441406 C 200.21875 114.851562 200.734375 118.171875 201.863281 121.390625 C 197.070312 129.789062 196.734375 141.691406 196.734375 141.691406 C 197.746094 133.292969 203.265625 124.996094 203.265625 124.996094 C 203.265625 124.996094 202.65625 130.261719 202.429688 134.167969 C 202.203125 138.070312 205.660156 148.148438 204.664062 153.441406 C 203.667969 158.730469 197.546875 173.832031 197.546875 173.832031 Z M 204.238281 161.488281 " fill-opacity="1" fill-rule="nonzero"/></g><path fill="#000000" d="M 195.621094 179.972656 C 195.070312 181.0625 194.542969 182.070312 194.074219 182.910156 C 193.605469 183.75 193.238281 184.523438 192.980469 185.019531 L 192.578125 185.859375 L 193.105469 185.265625 C 193.4375 184.859375 193.941406 184.273438 194.449219 183.582031 C 194.960938 182.894531 195.589844 181.902344 196.234375 180.945312 C 196.875 179.988281 197.496094 178.804688 198.121094 177.671875 C 198.75 176.539062 199.300781 175.277344 199.796875 174.128906 C 200.289062 172.976562 200.75 171.824219 201.125 170.851562 C 201.5 169.878906 201.753906 169.011719 201.960938 168.425781 L 202.230469 167.46875 L 201.792969 168.246094 C 201.535156 168.761719 201.160156 169.492188 200.691406 170.339844 C 200.222656 171.1875 199.71875 172.230469 199.144531 173.289062 C 198.566406 174.34375 197.988281 175.519531 197.378906 176.648438 C 196.769531 177.773438 196.183594 178.914062 195.621094 179.972656 Z M 195.621094 179.972656 " fill-opacity="1" fill-rule="nonzero"/><path fill="#000000" d="M 194.878906 161.050781 C 194.734375 161.789062 194.558594 162.445312 194.410156 163.03125 C 194.324219 163.328125 194.257812 163.59375 194.191406 163.871094 C 194.125 164.148438 194.042969 164.34375 193.984375 164.542969 C 193.730469 165.382812 193.597656 165.855469 193.597656 165.855469 C 193.597656 165.855469 193.789062 165.433594 194.140625 164.695312 L 194.417969 164.074219 C 194.507812 163.832031 194.609375 163.578125 194.710938 163.300781 C 194.929688 162.746094 195.160156 162.125 195.378906 161.410156 C 195.839844 159.984375 196.214844 158.246094 196.667969 156.371094 C 197.121094 154.5 197.371094 152.441406 197.6875 150.410156 C 198.003906 148.375 198.25 146.335938 198.523438 144.445312 C 198.800781 142.554688 199.09375 140.808594 199.417969 139.347656 C 199.5625 138.601562 199.710938 137.929688 199.855469 137.339844 C 199.996094 136.753906 200.121094 136.230469 200.246094 135.820312 C 200.472656 134.980469 200.597656 134.484375 200.597656 134.484375 C 200.597656 134.484375 200.414062 134.921875 200.078125 135.679688 C 199.921875 136.054688 199.738281 136.519531 199.542969 137.105469 C 199.351562 137.695312 199.125 138.308594 198.917969 139.039062 C 198.492188 140.472656 198.082031 142.230469 197.703125 144.078125 C 197.328125 145.925781 197.035156 148.015625 196.71875 150.039062 C 196.398438 152.0625 196.148438 154.105469 195.832031 155.976562 C 195.511719 157.851562 195.246094 159.613281 194.878906 161.050781 Z M 194.878906 161.050781 " fill-opacity="1" fill-rule="nonzero"/><path fill="#000000" d="M 188.371094 142.269531 C 187.820312 141.414062 187.210938 140.605469 186.539062 139.84375 C 185.785156 139.070312 185.085938 138.25 184.441406 137.382812 C 183.726562 136.472656 183.191406 135.46875 182.832031 134.367188 C 182.4375 133.28125 182.1875 132.160156 182.089844 131.007812 C 181.980469 130.144531 181.945312 129.277344 181.988281 128.40625 C 181.988281 128.078125 181.988281 127.824219 181.988281 127.648438 C 181.988281 127.472656 181.988281 127.378906 181.988281 127.378906 C 181.988281 127.378906 181.988281 127.464844 181.921875 127.632812 C 181.855469 127.800781 181.8125 128.035156 181.753906 128.355469 C 181.585938 129.265625 181.5 130.183594 181.496094 131.109375 C 181.507812 132.425781 181.6875 133.71875 182.03125 134.988281 C 182.40625 136.28125 182.980469 137.480469 183.753906 138.582031 C 184.457031 139.4375 185.214844 140.238281 186.027344 140.984375 C 186.722656 141.574219 187.367188 142.21875 187.953125 142.917969 C 188.421875 143.441406 188.816406 144.015625 189.132812 144.648438 C 189.277344 144.917969 189.398438 145.199219 189.5 145.488281 C 189.453125 145.15625 189.382812 144.832031 189.289062 144.511719 C 189.070312 143.730469 188.765625 142.984375 188.371094 142.269531 Z M 188.371094 142.269531 " fill-opacity="1" fill-rule="nonzero"/><path fill="#000000" d="M 193.28125 128.179688 C 193.429688 127.179688 193.671875 126.042969 193.90625 124.820312 C 194.140625 123.59375 194.433594 122.300781 194.742188 121.039062 C 195.054688 119.78125 195.371094 118.519531 195.699219 117.328125 C 196.023438 116.132812 196.332031 115.066406 196.625 114.152344 C 196.917969 113.238281 197.152344 112.472656 197.328125 111.925781 C 197.503906 111.378906 197.597656 111.085938 197.597656 111.085938 L 197.253906 111.859375 C 197.035156 112.355469 196.71875 113.058594 196.417969 113.949219 C 196.117188 114.839844 195.707031 115.890625 195.347656 117.058594 C 194.988281 118.226562 194.636719 119.484375 194.308594 120.777344 C 193.984375 122.070312 193.738281 123.390625 193.523438 124.640625 C 193.304688 125.894531 193.144531 127.078125 193.027344 128.09375 C 192.914062 129.109375 192.855469 129.96875 192.804688 130.5625 C 192.753906 131.160156 192.753906 131.503906 192.753906 131.503906 L 192.894531 130.589844 C 192.960938 129.992188 193.113281 129.167969 193.28125 128.179688 Z M 193.28125 128.179688 " fill-opacity="1" fill-rule="nonzero"/><path fill="#000000" d="M 188.09375 129.167969 C 188.1875 129.882812 188.285156 130.597656 188.386719 131.25 C 188.488281 131.90625 188.636719 132.511719 188.746094 133.015625 C 188.855469 133.519531 188.980469 133.941406 189.066406 134.226562 L 189.199219 134.671875 C 189.199219 134.671875 189.199219 134.492188 189.15625 134.175781 C 189.113281 133.855469 189.074219 133.417969 189.007812 132.890625 C 188.9375 132.359375 188.890625 131.738281 188.804688 131.082031 C 188.722656 130.429688 188.648438 129.722656 188.578125 129.019531 C 188.511719 128.3125 188.421875 127.617188 188.363281 126.953125 C 188.304688 126.289062 188.226562 125.675781 188.1875 125.136719 C 188.144531 124.601562 188.09375 124.15625 188.09375 123.84375 L 188.035156 123.347656 C 188.035156 123.347656 188.035156 123.535156 188.035156 123.851562 C 188.035156 124.171875 187.984375 124.632812 187.984375 125.179688 C 187.984375 125.726562 187.984375 126.363281 187.984375 127.042969 C 187.984375 127.722656 188.09375 128.457031 188.09375 129.167969 Z M 188.09375 129.167969 " fill-opacity="1" fill-rule="nonzero"/><path fill="#000000" d="M 202.210938 154.113281 C 201.953125 154.894531 201.644531 155.792969 201.316406 156.785156 C 200.992188 157.773438 200.648438 158.800781 200.289062 159.832031 C 199.929688 160.867188 199.601562 161.914062 199.269531 162.882812 C 198.933594 163.847656 198.625 164.761719 198.367188 165.542969 C 198.105469 166.324219 197.878906 166.980469 197.730469 167.433594 L 197.496094 168.164062 L 197.804688 167.515625 C 197.996094 167.097656 198.28125 166.507812 198.589844 165.769531 C 198.902344 165.03125 199.269531 164.175781 199.628906 163.25 C 199.988281 162.328125 200.355469 161.269531 200.714844 160.234375 C 201.074219 159.203125 201.394531 158.121094 201.695312 157.113281 C 201.996094 156.105469 202.246094 155.144531 202.457031 154.324219 C 202.664062 153.5 202.824219 152.804688 202.941406 152.316406 L 203.097656 151.542969 L 202.847656 152.257812 C 202.699219 152.675781 202.480469 153.332031 202.210938 154.113281 Z M 202.210938 154.113281 " fill-opacity="1" fill-rule="nonzero"/><path fill="#000000" d="M 196.71875 186.246094 C 196.359375 187.21875 195.882812 188.3125 195.363281 189.464844 C 194.84375 190.613281 194.25 191.789062 193.632812 192.921875 C 193.011719 194.058594 192.367188 195.164062 191.742188 196.164062 C 191.113281 197.164062 190.503906 198.0625 189.960938 198.792969 C 189.417969 199.523438 188.972656 200.15625 188.648438 200.558594 L 188.136719 201.222656 L 188.695312 200.683594 C 189.046875 200.332031 189.53125 199.84375 190.128906 199.136719 C 190.800781 198.34375 191.433594 197.519531 192.027344 196.660156 C 192.679688 195.679688 193.363281 194.601562 193.992188 193.445312 C 194.617188 192.285156 195.203125 191.050781 195.707031 189.847656 C 196.207031 188.648438 196.625 187.480469 196.953125 186.488281 C 197.277344 185.5 197.511719 184.582031 197.679688 183.96875 C 197.847656 183.355469 197.90625 182.988281 197.90625 182.988281 L 197.585938 183.902344 C 197.394531 184.457031 197.09375 185.273438 196.71875 186.246094 Z M 196.71875 186.246094 " fill-opacity="1" fill-rule="nonzero"/><path fill="#000000" d="M 183.914062 203.664062 L 184.078125 204.042969 C 184.078125 204.042969 184.078125 203.882812 183.996094 203.597656 C 183.914062 203.3125 183.871094 202.910156 183.777344 202.429688 C 183.6875 201.953125 183.578125 201.398438 183.460938 200.808594 C 183.34375 200.222656 183.210938 199.589844 183.101562 198.953125 C 182.992188 198.316406 182.851562 197.695312 182.742188 197.097656 C 182.632812 196.5 182.515625 195.945312 182.433594 195.46875 C 182.347656 194.988281 182.265625 194.628906 182.207031 194.308594 L 182.113281 193.863281 L 182.113281 194.34375 C 182.113281 194.644531 182.113281 195.074219 182.164062 195.578125 C 182.214844 196.082031 182.25 196.667969 182.332031 197.257812 C 182.414062 197.84375 182.523438 198.535156 182.632812 199.179688 C 182.742188 199.828125 182.917969 200.457031 183.058594 201.035156 C 183.203125 201.617188 183.386719 202.144531 183.527344 202.589844 C 183.671875 203.035156 183.8125 203.414062 183.914062 203.664062 Z M 183.914062 203.664062 " fill-opacity="1" fill-rule="nonzero"/><path fill="#000000" d="M 185.761719 184.675781 C 185.628906 183.476562 185.5 182.0625 185.351562 180.558594 C 185.199219 179.058594 185.035156 177.445312 184.847656 175.839844 C 184.664062 174.234375 184.40625 172.640625 184.136719 171.171875 C 183.871094 169.699219 183.527344 168.375 183.21875 167.257812 C 182.910156 166.140625 182.566406 165.273438 182.332031 164.679688 C 182.097656 164.082031 181.9375 163.761719 181.9375 163.761719 C 181.9375 163.761719 182.054688 164.125 182.25 164.761719 C 182.441406 165.402344 182.691406 166.316406 182.960938 167.441406 C 183.226562 168.566406 183.476562 169.960938 183.730469 171.371094 C 183.980469 172.785156 184.1875 174.414062 184.371094 176.007812 C 184.558594 177.605469 184.757812 179.199219 184.933594 180.703125 C 185.109375 182.207031 185.316406 183.59375 185.492188 184.777344 C 185.667969 185.960938 185.878906 186.933594 186.019531 187.617188 C 186.164062 188.296875 186.253906 188.664062 186.253906 188.664062 C 186.253906 188.664062 186.203125 188.261719 186.113281 187.566406 C 186.019531 186.867188 185.902344 185.867188 185.761719 184.675781 Z M 185.761719 184.675781 " fill-opacity="1" fill-rule="nonzero"/><path fill="#000000" d="M 188.671875 163.746094 C 188.503906 162.753906 188.285156 161.613281 188.003906 160.386719 C 187.71875 159.160156 187.351562 157.960938 186.964844 156.742188 C 186.582031 155.523438 186.128906 154.398438 185.667969 153.382812 C 185.210938 152.367188 184.75 151.410156 184.339844 150.667969 C 183.929688 149.929688 183.5625 149.300781 183.300781 148.890625 L 182.882812 148.25 L 183.226562 148.988281 C 183.453125 149.453125 183.753906 150.140625 184.121094 150.957031 C 184.488281 151.769531 184.882812 152.753906 185.316406 153.792969 C 185.753906 154.835938 186.152344 156.003906 186.539062 157.152344 C 186.921875 158.304688 187.300781 159.523438 187.609375 160.679688 C 187.917969 161.839844 188.203125 162.914062 188.402344 163.871094 C 188.605469 164.828125 188.796875 165.628906 188.90625 166.191406 C 189.015625 166.753906 189.082031 167.082031 189.082031 167.082031 C 189.082031 167.082031 189.082031 166.746094 188.996094 166.148438 C 188.914062 165.550781 188.839844 164.738281 188.671875 163.746094 Z M 188.671875 163.746094 " fill-opacity="1" fill-rule="nonzero"/></svg>