<svg xmlns="http://www.w3.org/2000/svg" xmlns:xlink="http://www.w3.org/1999/xlink" width="500" zoomAndPan="magnify" viewBox="0 0 375 374.999991" height="500" preserveAspectRatio="xMidYMid meet" version="1.0"><defs><clipPath id="d7a6800ead"><path d="M 108.066406 235.507812 L 137.316406 235.507812 L 137.316406 240.007812 L 108.066406 240.007812 Z M 108.066406 235.507812 " clip-rule="nonzero"/></clipPath><clipPath id="07e3a8c589"><path d="M 189.148438 140.265625 L 240.105469 140.265625 L 240.105469 235.472656 L 189.148438 235.472656 Z M 189.148438 140.265625 " clip-rule="nonzero"/></clipPath><clipPath id="e8f52d4990"><path d="M 133.605469 140.265625 L 184.535156 140.265625 L 184.535156 235.472656 L 133.605469 235.472656 Z M 133.605469 140.265625 " clip-rule="nonzero"/></clipPath><clipPath id="29a02ad5fa"><path d="M 133.605469 142 L 148 142 L 148 168 L 133.605469 168 Z M 133.605469 142 " clip-rule="nonzero"/></clipPath></defs><rect x="-37.5" width="450" fill="#ffffff" y="-37.499999" height="449.999989" fill-opacity="1"/><rect x="-37.5" width="450" fill="#ffffff" y="-37.499999" height="449.999989" fill-opacity="1"/><rect x="-37.5" width="450" fill="#f4f1e9" y="-37.499999" height="449.999989" fill-opacity="1"/><path stroke-linecap="butt" transform="matrix(0.000000000000000092, 1.501943, -1.5, 0.000000000000000092, 121.940608, 117.906628)" fill="none" stroke-linejoin="miter" d="M -0.000251845 -0.000532372 L 78.400791 -0.000532372 " stroke="#000000" stroke-width="1" stroke-opacity="1" stroke-miterlimit="4"/><path stroke-linecap="butt" transform="matrix(0.000000000000000092, -1.501943, 1.5, 0.000000000000000092, 251.555496, 251.352053)" fill="none" stroke-linejoin="miter" d="M 0.00032664 -0.000538987 L 78.40137 -0.000538987 " stroke="#000000" stroke-width="1" stroke-opacity="1" stroke-miterlimit="4"/><path stroke-linecap="round" transform="matrix(-1.50929, -0.000000000000000185, 0.000000000000000184, -1.5, 171.137849, 234.75621)" fill="none" stroke-linejoin="miter" d="M 0.50026 -0.00106821 L 32.300705 -0.00106821 " stroke="#000000" stroke-width="1" stroke-opacity="1" stroke-miterlimit="4"/><path stroke-linecap="round" transform="matrix(1.508989, 0.0301527, -0.0299671, 1.499701, 203.102276, 133.261045)" fill="none" stroke-linejoin="miter" d="M 0.499154 0.00083219 L 32.300747 -0.000417509 " stroke="#000000" stroke-width="1" stroke-opacity="1" stroke-miterlimit="4"/><path stroke-linecap="round" transform="matrix(-1.497507, 0.000000000000000848, -0.00000000000000085, -1.5, 213.594878, 118.654679)" fill="none" stroke-linejoin="miter" d="M 0.498978 -0.00104706 L 60.606707 -0.00104706 " stroke="#000000" stroke-width="1" stroke-opacity="1" stroke-miterlimit="4"/><path stroke-linecap="round" transform="matrix(1.497507, 0, 0, 1.5, 159.897503, 250.603988)" fill="none" stroke-linejoin="miter" d="M 0.498848 0.000987471 L 60.606577 0.000987471 " stroke="#000000" stroke-width="1" stroke-opacity="1" stroke-miterlimit="4"/><g clip-path="url(#d7a6800ead)"><path fill="#f4f1e9" d="M 108.066406 235.507812 L 137.316406 235.507812 L 137.316406 240.007812 L 108.066406 240.007812 L 108.066406 235.507812 " fill-opacity="1" fill-rule="nonzero"/></g><path fill="#212121" d="M 225.230469 166.476562 C 224.398438 166.714844 223.652344 167.265625 223.011719 168.113281 C 221.410156 170.253906 220.644531 174.054688 219.96875 177.40625 C 219.46875 179.878906 219 182.210938 218.3125 183.125 C 218.304688 183.140625 218.296875 183.152344 218.285156 183.164062 C 216.269531 185.710938 209.082031 190.214844 209.007812 190.261719 C 208.957031 190.292969 208.910156 190.335938 208.871094 190.386719 C 208.746094 190.550781 208.738281 190.78125 208.847656 190.957031 C 208.996094 191.191406 209.308594 191.261719 209.542969 191.113281 C 209.847656 190.925781 216.960938 186.460938 219.078125 183.789062 C 219.089844 183.769531 219.105469 183.753906 219.117188 183.734375 C 219.945312 182.632812 220.414062 180.304688 220.957031 177.605469 C 221.578125 174.523438 222.351562 170.691406 223.832031 168.714844 C 224.335938 168.046875 224.898438 167.617188 225.503906 167.445312 C 226.410156 167.191406 227.109375 167.269531 227.640625 167.683594 C 229.160156 168.871094 229.035156 172.449219 228.980469 173.980469 L 228.980469 173.992188 C 228.976562 174.132812 228.972656 174.253906 228.96875 174.359375 C 228.960938 174.792969 228.953125 175.265625 228.949219 175.765625 C 228.925781 178.265625 228.894531 181.691406 228.070312 184.679688 C 227.960938 185.089844 227.636719 185.652344 227.113281 186.351562 C 224.421875 189.9375 216.96875 196.425781 210.886719 201.300781 C 210.855469 201.328125 210.824219 201.359375 210.800781 201.390625 C 210.660156 201.574219 210.667969 201.828125 210.808594 202.007812 C 210.984375 202.226562 211.304688 202.261719 211.519531 202.085938 C 213.160156 200.769531 216.398438 198.136719 219.65625 195.257812 C 223.65625 191.722656 226.429688 188.941406 227.890625 186.988281 C 228.511719 186.160156 228.898438 185.472656 229.046875 184.945312 C 229.902344 181.832031 229.933594 178.332031 229.960938 175.773438 C 229.964844 175.304688 229.96875 174.820312 229.976562 174.378906 C 229.980469 174.28125 229.984375 174.160156 229.988281 174.015625 C 230.046875 172.332031 230.183594 168.390625 228.261719 166.890625 C 227.472656 166.269531 226.453125 166.132812 225.230469 166.476562 " fill-opacity="1" fill-rule="nonzero"/><path fill="#212121" d="M 225.710938 166.410156 C 225.515625 166.367188 225.316406 166.441406 225.195312 166.601562 C 225.152344 166.660156 225.125 166.722656 225.109375 166.792969 C 225.054688 167.035156 224.78125 168.316406 224.699219 169.722656 C 224.585938 171.558594 224.828125 172.835938 225.421875 173.515625 C 226.765625 175.066406 229.445312 174.667969 229.558594 174.648438 C 229.6875 174.628906 229.804688 174.558594 229.882812 174.453125 C 229.964844 174.34375 230 174.210938 229.976562 174.074219 C 229.933594 173.800781 229.675781 173.613281 229.402344 173.65625 C 229.378906 173.65625 227.15625 173.976562 226.183594 172.855469 C 225.382812 171.933594 225.703125 168.78125 226.09375 167.011719 C 226.152344 166.738281 225.980469 166.472656 225.710938 166.410156 " fill-opacity="1" fill-rule="nonzero"/><g clip-path="url(#07e3a8c589)"><path fill="#212121" d="M 240.058594 144.753906 C 240.03125 144.949219 240.003906 145.164062 239.96875 145.394531 C 239.96875 145.398438 239.96875 145.40625 239.96875 145.410156 C 239.964844 145.425781 239.964844 145.441406 239.960938 145.457031 C 238.742188 153.984375 233.304688 183.765625 230.753906 188.109375 C 230.578125 188.410156 230.351562 188.746094 230.082031 189.105469 C 228.375 191.382812 225.019531 194.574219 221.464844 197.957031 C 217.707031 201.535156 213.453125 205.585938 211.164062 208.632812 C 210.480469 209.546875 209.996094 210.335938 209.730469 210.984375 C 207.867188 215.484375 209.304688 227.277344 210.519531 234.890625 C 210.566406 235.195312 210.328125 235.472656 210.019531 235.472656 C 209.769531 235.472656 209.558594 235.292969 209.519531 235.046875 C 209.226562 233.226562 208.921875 231.167969 208.65625 229.035156 C 207.503906 219.808594 207.554688 213.609375 208.796875 210.601562 C 209.105469 209.855469 209.621094 209.007812 210.371094 208.003906 C 212.679688 204.925781 216.789062 201.019531 220.761719 197.234375 L 220.769531 197.226562 C 224.292969 193.875 227.621094 190.707031 229.265625 188.511719 C 229.515625 188.179688 229.722656 187.875 229.882812 187.601562 C 232.214844 183.625 237.605469 154.816406 238.945312 145.425781 C 238.988281 145.136719 239.023438 144.867188 239.058594 144.621094 C 239.101562 144.296875 239.105469 143.984375 239.074219 143.683594 C 239.074219 143.683594 239.074219 143.679688 239.074219 143.679688 C 238.960938 142.535156 238.34375 141.601562 237.460938 141.347656 C 236.671875 141.121094 235.746094 141.425781 234.78125 142.230469 C 234.289062 142.644531 233.796875 143.175781 233.316406 143.816406 C 232.574219 144.804688 231.851562 146.066406 231.15625 147.566406 C 231.15625 147.566406 231.15625 147.574219 231.152344 147.582031 C 231.136719 147.613281 231.117188 147.640625 231.097656 147.667969 C 231 147.800781 230.84375 147.875 230.683594 147.871094 C 230.429688 147.867188 230.117188 147.996094 229.765625 148.25 C 229.230469 148.632812 228.601562 149.292969 227.929688 150.191406 C 226.6875 151.839844 225.398438 154.175781 224.386719 156.59375 C 224.386719 156.59375 224.386719 156.597656 224.386719 156.601562 C 224.382812 156.601562 224.382812 156.605469 224.382812 156.605469 C 224.378906 156.617188 224.371094 156.625 224.367188 156.636719 C 224.363281 156.640625 224.363281 156.648438 224.355469 156.652344 C 224.347656 156.671875 224.335938 156.683594 224.324219 156.699219 C 224.253906 156.800781 224.148438 156.867188 224.027344 156.890625 C 223.628906 156.976562 223.1875 157.222656 222.703125 157.632812 C 222.136719 158.113281 221.503906 158.816406 220.804688 159.753906 C 219.230469 161.851562 217.589844 164.71875 216.003906 167.488281 C 214.765625 169.660156 213.589844 171.710938 212.554688 173.191406 C 212.191406 173.714844 211.808594 174.238281 211.425781 174.753906 C 208.515625 178.632812 205.507812 181.640625 202.855469 184.292969 C 200.570312 186.582031 198.410156 188.742188 196.609375 191.144531 C 194.5625 193.871094 193.210938 196.601562 192.363281 199.734375 C 190.792969 205.519531 190.34375 221.925781 190.214844 230.445312 C 190.210938 230.777344 189.882812 231.03125 189.535156 230.917969 C 189.332031 230.847656 189.199219 230.652344 189.199219 230.4375 L 189.199219 230.429688 C 189.320312 221.878906 189.765625 205.453125 191.386719 199.472656 C 192.273438 196.207031 193.671875 193.371094 195.789062 190.550781 C 197.628906 188.09375 199.820312 185.902344 202.140625 183.585938 C 204.769531 180.953125 207.75 177.972656 210.617188 174.152344 C 210.996094 173.644531 211.371094 173.128906 211.726562 172.613281 C 212.738281 171.171875 213.898438 169.140625 215.128906 166.992188 C 216.726562 164.195312 218.378906 161.304688 219.96875 159.1875 C 221.332031 157.367188 222.503906 156.316406 223.550781 155.980469 C 224.570312 153.597656 225.910156 151.199219 227.148438 149.546875 C 228.34375 147.949219 229.425781 147.054688 230.359375 146.890625 C 231.042969 145.4375 231.765625 144.203125 232.507812 143.214844 C 233.035156 142.507812 233.582031 141.917969 234.132812 141.460938 C 235.695312 140.15625 236.957031 140.152344 237.742188 140.378906 C 239.359375 140.84375 240.335938 142.683594 240.058594 144.753906 " fill-opacity="1" fill-rule="nonzero"/></g><path fill="#212121" d="M 224.160156 155.953125 C 223.941406 155.839844 223.664062 155.902344 223.519531 156.097656 C 223.503906 156.117188 223.488281 156.140625 223.476562 156.164062 C 221.589844 159.703125 220.175781 162.660156 218.929688 165.269531 C 217.945312 167.324219 217.097656 169.097656 216.183594 170.824219 C 216.050781 171.070312 216.148438 171.375 216.394531 171.507812 C 216.613281 171.621094 216.882812 171.5625 217.03125 171.363281 C 217.046875 171.34375 217.0625 171.320312 217.074219 171.296875 C 218 169.550781 218.851562 167.769531 219.835938 165.707031 L 219.683594 165.636719 L 219.839844 165.699219 C 221.082031 163.101562 222.492188 160.15625 224.367188 156.636719 C 224.496094 156.390625 224.402344 156.085938 224.160156 155.953125 " fill-opacity="1" fill-rule="nonzero"/><path fill="#212121" d="M 230.890625 146.90625 C 230.675781 146.8125 230.429688 146.878906 230.289062 147.066406 C 230.265625 147.097656 230.246094 147.132812 230.230469 147.167969 C 230.175781 147.292969 224.777344 159.894531 219.960938 170.808594 C 219.90625 170.929688 219.902344 171.066406 219.953125 171.195312 C 220 171.320312 220.09375 171.417969 220.21875 171.472656 C 220.433594 171.566406 220.683594 171.5 220.828125 171.3125 C 220.847656 171.28125 220.867188 171.25 220.882812 171.214844 C 225.703125 160.296875 231.105469 147.6875 231.15625 147.566406 C 231.210938 147.441406 231.210938 147.304688 231.164062 147.179688 C 231.113281 147.054688 231.015625 146.957031 230.890625 146.90625 " fill-opacity="1" fill-rule="nonzero"/><path fill="#212121" d="M 237.171875 142.683594 C 236.285156 142.710938 235.386719 143.324219 234.5 144.503906 C 233.417969 145.949219 232.742188 147.730469 232.5625 148.242188 C 231.425781 151.457031 226.238281 166.386719 226.191406 166.527344 C 226.144531 166.65625 226.152344 166.792969 226.210938 166.914062 C 226.269531 167.035156 226.375 167.125 226.5 167.167969 C 226.710938 167.242188 226.9375 167.171875 227.070312 166.996094 C 227.101562 166.953125 227.125 166.90625 227.144531 166.851562 C 227.359375 166.234375 232.402344 151.722656 233.511719 148.578125 C 233.972656 147.277344 234.625 146.011719 235.300781 145.113281 C 235.984375 144.199219 236.644531 143.707031 237.207031 143.6875 C 237.851562 143.664062 238.457031 144.292969 239.003906 145.554688 C 239.058594 145.679688 239.15625 145.773438 239.28125 145.824219 C 239.40625 145.871094 239.542969 145.871094 239.667969 145.816406 C 239.75 145.78125 239.820312 145.726562 239.871094 145.65625 C 239.980469 145.511719 240.003906 145.320312 239.929688 145.15625 C 239.199219 143.476562 238.273438 142.644531 237.171875 142.683594 " fill-opacity="1" fill-rule="nonzero"/><path fill="#212121" d="M 148.480469 166.476562 C 149.3125 166.714844 150.058594 167.265625 150.695312 168.113281 C 152.300781 170.253906 153.066406 174.054688 153.742188 177.40625 C 154.238281 179.878906 154.710938 182.210938 155.394531 183.125 C 155.40625 183.140625 155.414062 183.152344 155.425781 183.164062 C 157.441406 185.710938 164.628906 190.214844 164.703125 190.261719 C 164.753906 190.292969 164.800781 190.335938 164.835938 190.386719 C 164.960938 190.550781 164.972656 190.78125 164.859375 190.957031 C 164.714844 191.191406 164.402344 191.261719 164.164062 191.113281 C 163.863281 190.925781 156.746094 186.460938 154.632812 183.789062 C 154.617188 183.769531 154.605469 183.753906 154.59375 183.734375 C 153.765625 182.632812 153.296875 180.304688 152.753906 177.605469 C 152.132812 174.523438 151.359375 170.691406 149.875 168.714844 C 149.375 168.046875 148.8125 167.617188 148.203125 167.445312 C 147.296875 167.191406 146.601562 167.269531 146.070312 167.683594 C 144.550781 168.871094 144.675781 172.449219 144.730469 173.980469 L 144.730469 173.992188 C 144.734375 174.132812 144.738281 174.253906 144.742188 174.359375 C 144.75 174.792969 144.753906 175.265625 144.761719 175.765625 C 144.785156 178.265625 144.816406 181.691406 145.636719 184.679688 C 145.75 185.089844 146.074219 185.652344 146.597656 186.351562 C 149.289062 189.9375 156.742188 196.425781 162.820312 201.300781 C 162.855469 201.328125 162.886719 201.359375 162.910156 201.390625 C 163.046875 201.574219 163.042969 201.828125 162.898438 202.007812 C 162.726562 202.226562 162.40625 202.261719 162.191406 202.085938 C 160.550781 200.769531 157.3125 198.136719 154.054688 195.257812 C 150.050781 191.722656 147.28125 188.941406 145.820312 186.988281 C 145.199219 186.160156 144.808594 185.472656 144.664062 184.945312 C 143.808594 181.832031 143.773438 178.332031 143.75 175.773438 C 143.746094 175.304688 143.742188 174.820312 143.730469 174.378906 C 143.730469 174.28125 143.726562 174.160156 143.71875 174.015625 C 143.660156 172.332031 143.523438 168.390625 145.449219 166.890625 C 146.238281 166.269531 147.257812 166.132812 148.480469 166.476562 " fill-opacity="1" fill-rule="nonzero"/><path fill="#212121" d="M 148 166.410156 C 148.195312 166.367188 148.394531 166.441406 148.511719 166.601562 C 148.554688 166.660156 148.585938 166.722656 148.601562 166.792969 C 148.65625 167.035156 148.925781 168.316406 149.011719 169.722656 C 149.125 171.558594 148.882812 172.835938 148.289062 173.515625 C 146.945312 175.066406 144.265625 174.667969 144.152344 174.648438 C 144.019531 174.628906 143.90625 174.558594 143.824219 174.453125 C 143.742188 174.34375 143.710938 174.210938 143.730469 174.074219 C 143.773438 173.800781 144.03125 173.613281 144.308594 173.65625 C 144.328125 173.65625 146.554688 173.976562 147.527344 172.855469 C 148.328125 171.933594 148.007812 168.78125 147.617188 167.011719 C 147.554688 166.738281 147.730469 166.472656 148 166.410156 " fill-opacity="1" fill-rule="nonzero"/><g clip-path="url(#e8f52d4990)"><path fill="#212121" d="M 184.511719 230.429688 C 184.515625 230.714844 184.285156 230.945312 184.003906 230.945312 C 183.726562 230.945312 183.5 230.722656 183.496094 230.445312 C 183.367188 221.925781 182.917969 205.519531 181.347656 199.734375 C 180.496094 196.601562 179.148438 193.871094 177.101562 191.144531 C 175.300781 188.742188 173.140625 186.582031 170.855469 184.292969 C 168.203125 181.640625 165.195312 178.632812 162.285156 174.753906 C 161.898438 174.238281 161.519531 173.714844 161.152344 173.191406 C 160.117188 171.710938 158.945312 169.660156 157.703125 167.488281 C 156.121094 164.71875 154.480469 161.851562 152.90625 159.753906 C 152.203125 158.816406 151.574219 158.113281 151.007812 157.632812 C 150.523438 157.222656 150.082031 156.976562 149.683594 156.890625 C 149.5625 156.867188 149.457031 156.800781 149.382812 156.699219 C 149.371094 156.683594 149.359375 156.671875 149.351562 156.652344 C 149.347656 156.648438 149.347656 156.640625 149.34375 156.636719 C 149.335938 156.625 149.332031 156.617188 149.328125 156.605469 C 149.328125 156.605469 149.324219 156.601562 149.324219 156.601562 C 149.324219 156.597656 149.324219 156.59375 149.320312 156.59375 C 148.3125 154.175781 147.019531 151.839844 145.78125 150.191406 C 145.109375 149.292969 144.480469 148.632812 143.945312 148.25 C 143.589844 147.996094 143.28125 147.867188 143.027344 147.871094 C 142.863281 147.875 142.710938 147.800781 142.613281 147.667969 C 142.589844 147.640625 142.574219 147.613281 142.558594 147.582031 C 142.554688 147.574219 142.550781 147.566406 142.550781 147.566406 C 141.859375 146.066406 141.136719 144.804688 140.394531 143.816406 C 139.914062 143.175781 139.421875 142.644531 138.929688 142.230469 C 137.964844 141.425781 137.035156 141.121094 136.25 141.347656 C 135.363281 141.601562 134.75 142.535156 134.636719 143.679688 C 134.636719 143.679688 134.636719 143.683594 134.636719 143.683594 C 134.605469 143.984375 134.609375 144.296875 134.652344 144.621094 C 134.683594 144.867188 134.722656 145.136719 134.761719 145.425781 C 136.105469 154.816406 141.492188 183.625 143.828125 187.601562 C 143.984375 187.875 144.195312 188.179688 144.441406 188.511719 C 146.089844 190.707031 149.417969 193.875 152.941406 197.226562 L 152.949219 197.234375 C 156.921875 201.019531 161.03125 204.925781 163.335938 208.003906 C 164.089844 209.007812 164.605469 209.855469 164.914062 210.601562 C 166.15625 213.609375 166.203125 219.808594 165.050781 229.035156 C 164.785156 231.167969 164.484375 233.226562 164.191406 235.046875 C 164.152344 235.292969 163.941406 235.472656 163.691406 235.472656 C 163.378906 235.472656 163.144531 235.195312 163.191406 234.890625 C 164.40625 227.277344 165.839844 215.484375 163.980469 210.984375 C 163.710938 210.335938 163.230469 209.546875 162.542969 208.632812 C 160.257812 205.585938 156.003906 201.535156 152.246094 197.957031 C 148.691406 194.574219 145.335938 191.382812 143.628906 189.105469 C 143.355469 188.746094 143.132812 188.410156 142.957031 188.109375 C 140.40625 183.765625 134.96875 153.984375 133.75 145.457031 C 133.746094 145.441406 133.746094 145.425781 133.742188 145.410156 C 133.738281 145.40625 133.738281 145.398438 133.738281 145.394531 C 133.707031 145.164062 133.679688 144.949219 133.652344 144.753906 C 133.375 142.683594 134.351562 140.84375 135.96875 140.378906 C 136.753906 140.152344 138.015625 140.15625 139.574219 141.460938 C 140.125 141.917969 140.671875 142.507812 141.203125 143.214844 C 141.941406 144.203125 142.664062 145.4375 143.351562 146.890625 C 144.285156 147.054688 145.363281 147.949219 146.5625 149.546875 C 147.800781 151.199219 149.140625 153.597656 150.15625 155.980469 C 151.203125 156.316406 152.378906 157.367188 153.742188 159.1875 C 155.332031 161.304688 156.984375 164.195312 158.582031 166.992188 C 159.8125 169.140625 160.972656 171.171875 161.980469 172.613281 C 162.339844 173.128906 162.714844 173.644531 163.09375 174.152344 C 165.960938 177.972656 168.941406 180.953125 171.570312 183.585938 C 173.890625 185.902344 176.078125 188.09375 177.917969 190.550781 C 180.035156 193.371094 181.4375 196.207031 182.320312 199.472656 C 183.945312 205.453125 184.390625 221.878906 184.511719 230.429688 " fill-opacity="1" fill-rule="nonzero"/></g><path fill="#212121" d="M 149.550781 155.953125 C 149.769531 155.839844 150.042969 155.902344 150.191406 156.097656 C 150.207031 156.117188 150.222656 156.140625 150.234375 156.164062 C 152.121094 159.703125 153.535156 162.660156 154.78125 165.269531 C 155.761719 167.324219 156.613281 169.097656 157.527344 170.824219 C 157.65625 171.070312 157.5625 171.375 157.316406 171.507812 C 157.097656 171.621094 156.828125 171.5625 156.675781 171.363281 C 156.660156 171.34375 156.648438 171.320312 156.636719 171.296875 C 155.710938 169.550781 154.859375 167.769531 153.875 165.707031 L 154.023438 165.636719 L 153.867188 165.699219 C 152.625 163.101562 151.21875 160.15625 149.34375 156.636719 C 149.210938 156.390625 149.304688 156.085938 149.550781 155.953125 " fill-opacity="1" fill-rule="nonzero"/><path fill="#212121" d="M 142.816406 146.90625 C 143.03125 146.8125 143.28125 146.878906 143.421875 147.066406 C 143.445312 147.097656 143.464844 147.132812 143.480469 147.167969 C 143.53125 147.292969 148.933594 159.894531 153.75 170.808594 C 153.804688 170.929688 153.808594 171.066406 153.757812 171.195312 C 153.710938 171.320312 153.613281 171.417969 153.492188 171.472656 C 153.273438 171.566406 153.023438 171.5 152.882812 171.3125 C 152.859375 171.28125 152.839844 171.25 152.824219 171.214844 C 148.007812 160.296875 142.605469 147.6875 142.550781 147.566406 C 142.5 147.441406 142.496094 147.304688 142.546875 147.179688 C 142.597656 147.054688 142.695312 146.957031 142.816406 146.90625 " fill-opacity="1" fill-rule="nonzero"/><g clip-path="url(#29a02ad5fa)"><path fill="#212121" d="M 136.535156 142.683594 C 137.425781 142.710938 138.324219 143.324219 139.207031 144.503906 C 140.292969 145.949219 140.96875 147.730469 141.148438 148.242188 C 142.285156 151.457031 147.46875 166.386719 147.519531 166.527344 C 147.5625 166.65625 147.554688 166.792969 147.496094 166.914062 C 147.4375 167.035156 147.335938 167.125 147.207031 167.167969 C 147 167.242188 146.769531 167.171875 146.640625 166.996094 C 146.609375 166.953125 146.582031 166.90625 146.5625 166.851562 C 146.351562 166.234375 141.308594 151.722656 140.195312 148.578125 C 139.734375 147.277344 139.082031 146.011719 138.410156 145.113281 C 137.726562 144.199219 137.066406 143.707031 136.5 143.6875 C 135.859375 143.664062 135.253906 144.292969 134.707031 145.554688 C 134.652344 145.679688 134.554688 145.773438 134.425781 145.824219 C 134.300781 145.871094 134.164062 145.871094 134.042969 145.816406 C 133.960938 145.78125 133.890625 145.726562 133.839844 145.65625 C 133.730469 145.511719 133.707031 145.320312 133.78125 145.15625 C 134.507812 143.476562 135.4375 142.644531 136.535156 142.683594 " fill-opacity="1" fill-rule="nonzero"/></g><path fill="#212121" d="M 187.359375 163.175781 L 187.359375 151.96875 C 187.359375 151.6875 187.132812 151.460938 186.855469 151.460938 C 186.574219 151.460938 186.351562 151.6875 186.351562 151.96875 L 186.351562 163.175781 C 186.351562 163.453125 186.574219 163.679688 186.855469 163.679688 C 187.132812 163.679688 187.359375 163.453125 187.359375 163.175781 " fill-opacity="1" fill-rule="nonzero"/><path fill="#212121" d="M 195.851562 156.636719 C 196.246094 156.636719 196.488281 157.070312 196.28125 157.40625 L 191.5625 165.015625 C 191.464844 165.167969 191.300781 165.253906 191.128906 165.253906 C 191.039062 165.253906 190.949219 165.230469 190.863281 165.179688 C 190.628906 165.03125 190.554688 164.722656 190.703125 164.484375 L 195.421875 156.875 C 195.511719 156.726562 195.675781 156.636719 195.851562 156.636719 " fill-opacity="1" fill-rule="nonzero"/><path fill="#212121" d="M 182.84375 165.179688 C 182.761719 165.230469 182.671875 165.253906 182.578125 165.253906 C 182.410156 165.253906 182.246094 165.167969 182.148438 165.015625 L 177.429688 157.40625 C 177.222656 157.070312 177.464844 156.636719 177.859375 156.636719 C 178.035156 156.636719 178.199219 156.726562 178.289062 156.875 L 183.007812 164.484375 C 183.15625 164.722656 183.082031 165.03125 182.84375 165.179688 " fill-opacity="1" fill-rule="nonzero"/><path fill="#212121" d="M 201.355469 163.539062 C 201.355469 163.707031 201.269531 163.863281 201.132812 163.957031 L 194.199219 168.679688 C 194.113281 168.738281 194.015625 168.765625 193.914062 168.765625 C 193.753906 168.765625 193.597656 168.691406 193.5 168.546875 C 193.339844 168.316406 193.398438 168.003906 193.628906 167.847656 L 200.5625 163.121094 C 200.898438 162.894531 201.355469 163.132812 201.355469 163.539062 " fill-opacity="1" fill-rule="nonzero"/><path fill="#212121" d="M 180.210938 168.546875 C 180.113281 168.691406 179.957031 168.765625 179.792969 168.765625 C 179.695312 168.765625 179.597656 168.738281 179.507812 168.679688 L 172.578125 163.957031 C 172.4375 163.863281 172.355469 163.707031 172.355469 163.539062 C 172.355469 163.132812 172.8125 162.894531 173.148438 163.121094 L 180.078125 167.847656 C 180.308594 168.003906 180.367188 168.316406 180.210938 168.546875 " fill-opacity="1" fill-rule="nonzero"/></svg>