<svg xmlns="http://www.w3.org/2000/svg" xmlns:xlink="http://www.w3.org/1999/xlink" width="500" zoomAndPan="magnify" viewBox="0 0 375 374.999991" height="500" preserveAspectRatio="xMidYMid meet" version="1.0"><defs><clipPath id="7586f72bdc"><path d="M 108.066406 235.507812 L 137.316406 235.507812 L 137.316406 240.007812 L 108.066406 240.007812 Z M 108.066406 235.507812 " clip-rule="nonzero"/></clipPath><clipPath id="a6c25df7c9"><path d="M 237.683594 134.992188 L 266.933594 134.992188 L 266.933594 139.492188 L 237.683594 139.492188 Z M 237.683594 134.992188 " clip-rule="nonzero"/></clipPath><clipPath id="7f966eeb18"><path d="M 150 138 L 244.921875 138 L 244.921875 235.492188 L 150 235.492188 Z M 150 138 " clip-rule="nonzero"/></clipPath></defs><rect x="-37.5" width="450" fill="#ffffff" y="-37.499999" height="449.999989" fill-opacity="1"/><rect x="-37.5" width="450" fill="#ffffff" y="-37.499999" height="449.999989" fill-opacity="1"/><rect x="-37.5" width="450" fill="#f4f1e9" y="-37.499999" height="449.999989" fill-opacity="1"/><path stroke-linecap="butt" transform="matrix(0.000000000000000092, 1.501943, -1.5, 0.000000000000000092, 121.940608, 117.906628)" fill="none" stroke-linejoin="miter" d="M -0.000251845 -0.000532372 L 78.400791 -0.000532372 " stroke="#000000" stroke-width="1" stroke-opacity="1" stroke-miterlimit="4"/><path stroke-linecap="butt" transform="matrix(0.000000000000000092, -1.501943, 1.5, 0.000000000000000092, 252.305496, 255.593362)" fill="none" stroke-linejoin="miter" d="M -0.000258588 -0.000538955 L 78.400784 -0.000538955 " stroke="#000000" stroke-width="1" stroke-opacity="1" stroke-miterlimit="4"/><path stroke-linecap="round" transform="matrix(-1.50929, -0.000000000000000185, 0.000000000000000184, -1.5, 171.137849, 234.75621)" fill="none" stroke-linejoin="miter" d="M 0.50026 -0.00106821 L 32.300705 -0.00106821 " stroke="#000000" stroke-width="1" stroke-opacity="1" stroke-miterlimit="4"/><path stroke-linecap="round" transform="matrix(1.50929, 0, 0, 1.5, 203.107448, 140.243765)" fill="none" stroke-linejoin="miter" d="M 0.500787 -0.00105179 L 32.301233 -0.00105179 " stroke="#000000" stroke-width="1" stroke-opacity="1" stroke-miterlimit="4"/><path stroke-linecap="round" transform="matrix(-1.497507, 0.000000000000000848, -0.00000000000000085, -1.5, 213.594878, 118.654679)" fill="none" stroke-linejoin="miter" d="M 0.498978 -0.00104706 L 60.606707 -0.00104706 " stroke="#000000" stroke-width="1" stroke-opacity="1" stroke-miterlimit="4"/><path stroke-linecap="round" transform="matrix(1.497507, 0, 0, 1.5, 161.397503, 256.345296)" fill="none" stroke-linejoin="miter" d="M 0.498848 -0.00103064 L 60.606577 -0.00103064 " stroke="#000000" stroke-width="1" stroke-opacity="1" stroke-miterlimit="4"/><g clip-path="url(#7586f72bdc)"><path fill="#f4f1e9" d="M 108.066406 235.507812 L 137.316406 235.507812 L 137.316406 240.007812 L 108.066406 240.007812 L 108.066406 235.507812 " fill-opacity="1" fill-rule="nonzero"/></g><g clip-path="url(#a6c25df7c9)"><path fill="#f4f1e9" d="M 266.933594 139.492188 L 237.683594 139.492188 L 237.683594 134.992188 L 266.933594 134.992188 L 266.933594 139.492188 " fill-opacity="1" fill-rule="nonzero"/></g><g clip-path="url(#7f966eeb18)"><path fill="#000000" d="M 155.148438 218.757812 C 154.753906 218.632812 154.351562 218.519531 153.949219 218.417969 C 153.773438 218.382812 153.597656 218.34375 153.421875 218.300781 C 151.351562 222.585938 152.324219 226.941406 153.09375 231.5625 C 153.195312 231.582031 153.304688 231.609375 153.40625 231.636719 C 153.195312 227.230469 154.035156 223.027344 155.148438 218.757812 Z M 156.910156 219.214844 C 156.910156 219.210938 156.917969 219.203125 156.921875 219.191406 C 156.703125 219.101562 156.488281 219.015625 156.269531 218.945312 C 155.148438 223.226562 154.300781 227.457031 154.550781 231.882812 C 154.867188 231.945312 155.179688 232 155.496094 232.050781 C 155.46875 227.71875 156.464844 223.519531 156.910156 219.214844 Z M 160.230469 217 C 160.0625 216.6875 159.925781 216.347656 159.8125 216.003906 C 159.765625 216.011719 159.730469 216.023438 159.679688 216.027344 C 157.875 216.242188 156.144531 216.800781 154.425781 217.371094 C 155.507812 217.601562 156.589844 217.804688 157.609375 218.269531 C 158.421875 217.726562 159.328125 217.359375 160.230469 217 Z M 173.09375 232.617188 C 173.941406 231.082031 174.003906 229.339844 174.757812 227.820312 C 172.933594 227.78125 171.140625 226.855469 170.394531 225.191406 C 169.523438 225.296875 168.648438 225.171875 167.972656 224.511719 C 167.28125 223.839844 166.949219 222.863281 166.25 222.222656 C 165.464844 221.5 164.347656 221.367188 163.527344 220.691406 C 162.925781 220.203125 162.621094 219.585938 162.484375 218.894531 C 161.84375 218.71875 161.328125 218.386719 160.910156 217.941406 C 159.910156 218.335938 158.910156 218.734375 158.03125 219.347656 C 157.570312 223.652344 156.578125 227.878906 156.628906 232.21875 C 161.257812 232.835938 165.980469 232.578125 170.652344 232.585938 C 171.464844 232.585938 172.28125 232.597656 173.09375 232.617188 Z M 176.820312 228.925781 C 176.476562 228.667969 176.160156 228.378906 175.890625 228.050781 C 175.027344 229.433594 174.964844 231.160156 174.324219 232.65625 C 174.609375 232.671875 174.898438 232.679688 175.179688 232.6875 C 175.753906 231.449219 176.21875 230.15625 176.820312 228.925781 Z M 179.105469 232.902344 C 179.363281 231.976562 179.710938 231.078125 180.097656 230.191406 C 179.300781 230.097656 178.507812 229.871094 177.789062 229.515625 C 177.269531 230.570312 176.851562 231.675781 176.386719 232.753906 C 177.292969 232.796875 178.199219 232.847656 179.105469 232.902344 Z M 182.691406 229.972656 C 182.683594 229.96875 182.683594 229.96875 182.683594 229.960938 C 182.25 230.109375 181.789062 230.191406 181.3125 230.222656 C 180.917969 231.128906 180.53125 232.03125 180.25 232.972656 C 180.628906 233 181.003906 233.023438 181.382812 233.046875 C 181.757812 231.996094 182.179688 230.964844 182.691406 229.972656 Z M 184.457031 189.96875 C 184.671875 189.480469 184.765625 188.953125 184.714844 188.425781 C 183.320312 187.960938 182.292969 188.042969 180.867188 188.65625 C 180.230469 188.933594 179.550781 189.289062 178.867188 189.402344 C 178.507812 189.464844 178.15625 189.511719 177.816406 189.523438 C 178.375 189.738281 178.910156 189.835938 179.273438 189.84375 C 179.5 189.894531 179.765625 189.816406 179.921875 189.835938 C 180.09375 189.84375 180.199219 189.882812 180.226562 189.949219 C 180.25 190.019531 180.191406 190.113281 180.066406 190.226562 C 179.921875 190.332031 179.785156 190.496094 179.4375 190.570312 C 178.773438 190.808594 177.867188 190.726562 177.003906 190.339844 C 176.367188 190.058594 175.871094 189.679688 175.496094 189.324219 C 174.625 191.644531 179.363281 191.589844 180.527344 191.375 C 181.898438 191.128906 183.308594 190.777344 184.457031 189.96875 Z M 185.628906 230.949219 C 184.941406 230.964844 184.261719 230.839844 183.652344 230.570312 C 183.230469 231.398438 182.871094 232.25 182.558594 233.113281 C 183.308594 233.160156 184.054688 233.207031 184.804688 233.238281 C 185.082031 232.484375 185.40625 231.730469 185.628906 230.949219 Z M 188.777344 230.558594 C 188.554688 230.46875 188.332031 230.355469 188.097656 230.222656 C 187.714844 230.46875 187.28125 230.648438 186.832031 230.777344 C 186.648438 231.648438 186.296875 232.464844 185.988281 233.300781 C 186.6875 233.332031 187.398438 233.355469 188.109375 233.375 C 188.109375 233.332031 188.101562 233.289062 188.117188 233.238281 C 188.347656 232.351562 188.65625 231.472656 188.777344 230.558594 Z M 190.808594 233.425781 C 190.796875 232.554688 190.859375 231.675781 191.101562 230.839844 C 190.699219 230.878906 190.289062 230.878906 189.878906 230.832031 C 189.742188 231.707031 189.476562 232.546875 189.246094 233.40625 C 189.359375 233.40625 189.484375 233.410156 189.601562 233.410156 C 190.003906 233.414062 190.40625 233.414062 190.808594 233.425781 Z M 199.363281 189.71875 C 198.796875 189.929688 198.261719 190.167969 197.671875 190.28125 C 197.265625 190.507812 196.746094 190.722656 196.148438 190.785156 C 195.777344 190.839844 195.492188 190.847656 195.097656 190.859375 C 194.746094 190.867188 194.378906 190.871094 193.996094 190.867188 C 192.488281 190.871094 191.039062 190.621094 190.101562 190.136719 C 189.863281 190 189.65625 189.875 189.484375 189.761719 C 189.3125 189.640625 189.203125 189.515625 189.101562 189.417969 C 188.914062 189.210938 188.828125 189.066406 188.875 189.007812 C 188.914062 188.945312 189.082031 188.976562 189.339844 189.078125 C 189.46875 189.121094 189.628906 189.210938 189.800781 189.265625 C 189.980469 189.316406 190.171875 189.371094 190.382812 189.441406 C 191.234375 189.6875 192.472656 189.804688 193.894531 189.804688 C 193.570312 189.71875 193.234375 189.609375 192.910156 189.492188 C 191.988281 189.164062 187.800781 187.175781 186.550781 188 C 186.636719 188.789062 186.585938 189.53125 186.347656 190.265625 C 188.714844 191.40625 191.230469 191.988281 193.871094 191.828125 C 195.410156 191.730469 198.800781 191.507812 199.363281 189.71875 Z M 201.085938 200.113281 C 203.46875 197.398438 205.433594 194.304688 205.539062 190.804688 C 203.808594 193.582031 201.496094 196.066406 199.242188 198.363281 C 196.292969 201.375 192.625 203.164062 189.589844 206.027344 C 189.246094 206.351562 188.835938 206.347656 188.511719 206.171875 C 188.269531 206.058594 188.074219 205.832031 187.957031 205.5625 C 187.886719 205.367188 187.808594 205.171875 187.738281 204.976562 C 187.601562 204.898438 187.492188 204.832031 187.332031 204.785156 C 187.320312 204.785156 187.304688 204.777344 187.292969 204.777344 C 186.933594 205.253906 186.488281 205.65625 185.941406 205.914062 C 185.476562 206.132812 184.929688 206.046875 184.652344 205.574219 C 184.632812 205.542969 184.621094 205.511719 184.609375 205.480469 C 184.609375 205.480469 184.601562 205.472656 184.597656 205.46875 C 183.691406 204.179688 182.40625 203.300781 181.273438 202.273438 C 182.117188 205.035156 183.210938 207.660156 184.683594 209.214844 C 184.550781 208.949219 184.4375 208.695312 184.363281 208.449219 C 184.167969 207.828125 184.105469 207.308594 184.125 206.9375 C 184.136719 206.574219 184.207031 206.390625 184.277344 206.378906 C 184.4375 206.378906 184.535156 207.144531 185.0625 208.171875 C 185.320312 208.6875 185.691406 209.277344 186.226562 209.730469 C 186.492188 209.949219 186.792969 210.144531 187.132812 210.21875 C 187.457031 210.300781 187.851562 210.269531 188.167969 210.1875 L 188.492188 210.066406 C 188.59375 210.03125 188.65625 209.988281 188.742188 209.949219 C 188.890625 209.859375 189.066406 209.753906 189.210938 209.628906 C 189.511719 209.390625 189.769531 209.101562 190.003906 208.800781 C 190.460938 208.203125 190.808594 207.582031 191.078125 207.050781 C 191.625 205.976562 191.945312 205.273438 192.097656 205.324219 C 192.222656 205.359375 192.160156 206.132812 191.769531 207.339844 C 191.59375 207.867188 191.34375 208.480469 190.957031 209.113281 C 191.023438 209.058594 191.097656 209 191.179688 208.933594 C 191.707031 208.503906 192.394531 207.859375 193.039062 207.0625 C 193.675781 206.253906 194.128906 205.457031 194.332031 204.832031 C 194.550781 204.261719 194.570312 203.761719 194.726562 203.753906 C 194.851562 203.742188 195.121094 204.136719 195.066406 204.976562 C 195.046875 205.328125 194.953125 205.71875 194.796875 206.125 C 195.160156 205.789062 195.523438 205.441406 195.890625 205.097656 C 196.074219 204.859375 196.253906 204.601562 196.4375 204.3125 C 196.878906 203.585938 197.203125 202.875 197.425781 202.367188 C 197.636719 201.828125 197.796875 201.449219 197.953125 201.476562 C 198.085938 201.5 198.199219 201.878906 198.160156 202.503906 C 198.148438 202.6875 198.109375 202.894531 198.066406 203.101562 C 198.367188 202.839844 198.675781 202.574219 198.992188 202.324219 C 199.066406 202.25 199.140625 202.171875 199.21875 202.097656 C 199.417969 201.726562 199.664062 201.273438 199.871094 200.734375 C 200.078125 200.152344 200.199219 199.59375 200.324219 199.183594 C 200.429688 198.746094 200.550781 198.457031 200.703125 198.457031 C 200.847656 198.457031 200.992188 198.726562 201.074219 199.191406 C 201.109375 199.457031 201.117188 199.769531 201.085938 200.113281 Z M 213.695312 185.820312 C 214.71875 184.765625 215.191406 183.484375 214.976562 181.980469 C 213.984375 181.742188 212.988281 181.546875 212.019531 181.246094 C 211.882812 181.199219 211.355469 183.214844 210.984375 184.890625 C 210.75 185.925781 210.574219 186.832031 210.59375 187.039062 C 210.65625 187.867188 213.503906 186.007812 213.695312 185.820312 Z M 229.007812 203.980469 C 227.574219 201.59375 226.328125 199.085938 224.851562 196.726562 C 222.890625 193.609375 220.242188 189.335938 216.179688 188.941406 C 216.109375 188.933594 216.046875 188.921875 215.984375 188.902344 C 215.9375 188.941406 215.890625 188.976562 215.839844 189.003906 C 215.800781 189.066406 215.75 189.128906 215.6875 189.191406 C 215.65625 189.222656 215.617188 189.253906 215.582031 189.289062 C 217.707031 190.238281 219.355469 191.363281 220.507812 192.515625 C 221.738281 193.753906 222.523438 194.882812 222.992188 195.796875 C 223.5 196.695312 223.714844 197.371094 223.847656 197.804688 C 223.96875 198.238281 223.996094 198.433594 223.929688 198.457031 C 223.871094 198.484375 223.738281 198.332031 223.507812 197.949219 C 223.273438 197.574219 222.972656 196.949219 222.417969 196.136719 C 221.902344 195.296875 221.097656 194.28125 219.910156 193.152344 C 219.003906 192.289062 217.792969 191.4375 216.273438 190.660156 C 216.5 191.097656 216.648438 191.542969 216.632812 192.039062 C 216.617188 192.316406 216.605469 192.59375 216.59375 192.855469 C 216.863281 193.007812 217.132812 193.152344 217.359375 193.328125 C 217.65625 193.570312 217.964844 193.777344 218.210938 194.03125 C 218.449219 194.273438 218.6875 194.507812 218.890625 194.746094 C 219.085938 194.984375 219.265625 195.214844 219.4375 195.433594 C 220.085938 196.332031 220.492188 197.085938 220.777344 197.671875 C 221.328125 198.847656 221.40625 199.347656 221.296875 199.398438 C 221.171875 199.460938 220.882812 199.058594 220.191406 198 C 219.84375 197.464844 219.390625 196.785156 218.746094 195.960938 C 218.210938 195.304688 217.519531 194.539062 216.5625 193.921875 C 216.542969 194.945312 216.585938 195.9375 216.832031 197.042969 C 217.375 199.503906 216.046875 201.828125 215.007812 203.980469 C 214.746094 204.527344 213.933594 204.050781 214.195312 203.503906 C 215.367188 201.066406 216.253906 199.085938 215.714844 196.339844 C 215.503906 195.304688 215.421875 194.445312 215.542969 193.375 C 215.699219 192.027344 215.191406 191.0625 214.675781 190.09375 C 214.324219 190.390625 213.96875 190.679688 213.617188 190.964844 C 213.78125 191.777344 214.039062 192.609375 214.386719 193.589844 C 214.78125 194.730469 214.996094 195.816406 214.863281 197.035156 C 214.726562 198.300781 214.523438 199.542969 214.191406 200.773438 C 213.8125 202.148438 212.605469 204.46875 213.277344 205.855469 C 213.542969 206.398438 212.730469 206.878906 212.46875 206.332031 C 211.140625 203.597656 213.8125 199.96875 213.921875 197.035156 C 213.988281 195.101562 213.171875 193.546875 212.644531 191.832031 C 212.503906 191.957031 212.359375 192.089844 212.226562 192.226562 C 212.667969 193.855469 213.152344 195.480469 212.984375 196.902344 C 212.789062 198.484375 212.460938 199.96875 211.625 201.355469 C 210.554688 203.132812 211.511719 204.867188 211.355469 206.667969 C 211.355469 206.671875 211.347656 206.679688 211.347656 206.683594 C 211.429688 207.019531 211.058594 207.433594 210.644531 207.230469 C 210.289062 207.054688 210.191406 206.699219 210.273438 206.332031 C 210.289062 206.234375 210.347656 206.164062 210.402344 206.109375 C 210.277344 204.757812 209.378906 203.605469 210.089844 202.191406 C 211.402344 199.554688 212.605469 197.046875 211.820312 194.011719 C 211.730469 193.652344 211.625 193.289062 211.523438 192.917969 C 211.195312 193.757812 210.75 194.550781 210.234375 195.296875 C 210.636719 195.535156 210.875 195.796875 211.03125 195.988281 C 211.253906 196.316406 211.253906 196.496094 211.160156 196.578125 C 211.058594 196.65625 210.871094 196.648438 210.585938 196.488281 C 210.371094 196.394531 210.082031 196.203125 209.679688 196.042969 C 209.371094 196.441406 209.039062 196.820312 208.6875 197.191406 C 209.3125 197.515625 209.722656 197.867188 209.976562 198.132812 C 210.335938 198.589844 210.390625 198.800781 210.289062 198.890625 C 210.195312 198.972656 209.957031 198.914062 209.546875 198.644531 C 209.339844 198.519531 209.039062 198.382812 208.679688 198.179688 C 208.484375 198.097656 208.273438 198.003906 208.039062 197.898438 C 208.027344 197.890625 208.011719 197.890625 208 197.886719 C 207.480469 198.375 206.941406 198.847656 206.378906 199.296875 C 206.472656 199.347656 206.574219 199.390625 206.667969 199.4375 C 207.011719 199.644531 207.316406 199.824219 207.59375 199.996094 C 208.121094 200.382812 208.523438 200.691406 208.789062 200.980469 C 209.296875 201.589844 209.414062 201.867188 209.3125 201.945312 C 209.210938 202.035156 208.917969 201.914062 208.351562 201.488281 C 208.0625 201.289062 207.644531 201.054688 207.132812 200.734375 C 206.871094 200.589844 206.566406 200.433594 206.242188 200.257812 C 206.035156 200.15625 205.796875 200.058594 205.554688 199.949219 C 204.984375 200.390625 204.398438 200.8125 203.816406 201.21875 C 205.121094 201.984375 206.304688 202.644531 207.144531 203.476562 C 208.148438 204.464844 208.742188 205.355469 209.195312 206.027344 C 210.078125 207.386719 210.316406 207.953125 210.214844 208.027344 C 210.109375 208.109375 209.664062 207.664062 208.660156 206.421875 C 208.148438 205.8125 207.507812 204.984375 206.550781 204.117188 C 205.71875 203.328125 204.457031 202.695312 202.960938 201.808594 C 202.496094 202.128906 202.042969 202.449219 201.59375 202.773438 C 201.734375 202.84375 201.878906 202.90625 202.011719 202.984375 C 202.261719 203.121094 202.507812 203.238281 202.738281 203.382812 C 202.964844 203.535156 203.191406 203.679688 203.40625 203.824219 C 203.859375 204.082031 204.21875 204.46875 204.582031 204.769531 C 204.777344 204.921875 204.910156 205.121094 205.054688 205.296875 C 205.191406 205.480469 205.351562 205.648438 205.449219 205.839844 C 206.359375 207.289062 206.757812 208.519531 207.082031 209.441406 C 207.675781 211.296875 207.820312 212.019531 207.703125 212.070312 C 207.574219 212.121094 207.207031 211.460938 206.457031 209.679688 C 206.0625 208.800781 205.59375 207.613281 204.726562 206.328125 C 203.984375 205.191406 202.570312 204.269531 200.746094 203.410156 C 200.476562 203.617188 200.210938 203.828125 199.945312 204.035156 C 200.40625 204.273438 200.777344 204.550781 201.066406 204.800781 C 201.558594 205.242188 201.878906 205.625 202.097656 205.933594 C 202.542969 206.546875 202.609375 206.855469 202.511719 206.929688 C 202.40625 207.019531 202.148438 206.855469 201.609375 206.378906 C 201.332031 206.144531 200.984375 205.832031 200.519531 205.472656 C 200.167969 205.214844 199.738281 204.929688 199.222656 204.726562 C 199.191406 204.757812 199.160156 204.789062 199.128906 204.820312 C 198.992188 204.960938 198.839844 205.035156 198.683594 205.066406 C 198.449219 205.265625 198.21875 205.460938 197.984375 205.664062 C 198.671875 206.222656 199.125 206.828125 199.449219 207.351562 C 199.851562 207.996094 200.089844 208.535156 200.25 208.949219 C 200.570312 209.78125 200.582031 210.132812 200.46875 210.1875 C 200.34375 210.242188 200.109375 209.980469 199.652344 209.246094 C 199.425781 208.882812 199.136719 208.40625 198.726562 207.832031 C 198.375 207.34375 197.902344 206.792969 197.253906 206.296875 C 196.765625 206.730469 196.28125 207.164062 195.796875 207.609375 C 196.28125 208.085938 196.675781 208.601562 196.992188 209.101562 C 197.445312 209.828125 197.75 210.53125 197.972656 211.179688 C 198.425781 212.476562 198.582031 213.527344 198.671875 214.320312 C 198.828125 215.925781 198.695312 216.53125 198.582031 216.535156 C 198.4375 216.546875 198.332031 215.945312 198.007812 214.425781 C 197.839844 213.675781 197.621094 212.679688 197.15625 211.488281 C 196.757812 210.476562 196.167969 209.277344 195.097656 208.242188 C 194.871094 208.457031 194.636719 208.667969 194.40625 208.882812 C 194.242188 209.039062 194.070312 209.191406 193.902344 209.339844 C 194.863281 211.375 195.160156 212.878906 195.324219 213.816406 C 195.449219 214.863281 195.40625 215.265625 195.28125 215.28125 C 195.148438 215.308594 194.953125 214.933594 194.667969 213.964844 C 194.375 213.132812 194.023438 211.792969 193.167969 209.972656 C 192.507812 210.519531 191.8125 211.007812 191.078125 211.410156 C 191.171875 212.191406 191.261719 212.875 191.285156 213.457031 C 191.3125 214.136719 191.28125 214.679688 191.203125 215.085938 C 191.136719 215.503906 191.035156 215.773438 190.941406 215.933594 C 190.859375 216.101562 190.785156 216.164062 190.71875 216.148438 C 190.65625 216.132812 190.605469 216.039062 190.585938 215.867188 C 190.554688 215.6875 190.554688 215.425781 190.539062 215.042969 C 190.523438 214.664062 190.488281 214.167969 190.417969 213.527344 C 190.351562 213.042969 190.28125 212.484375 190.195312 211.839844 C 189.667969 212.058594 189.125 212.222656 188.550781 212.328125 C 188.179688 214.355469 188.191406 215.804688 188.074219 216.710938 C 187.988281 217.753906 187.867188 218.148438 187.734375 218.148438 C 187.601562 218.148438 187.484375 217.753906 187.40625 216.707031 C 187.382812 215.824219 187.269531 214.449219 187.578125 212.453125 C 186.695312 212.492188 185.898438 212.328125 185.167969 212.007812 C 185.117188 212.125 185.066406 212.238281 185.019531 212.347656 C 184.875 212.609375 184.742188 212.847656 184.621094 213.066406 C 184.390625 213.484375 184.175781 213.796875 184.023438 214.027344 C 183.726562 214.503906 183.535156 214.664062 183.40625 214.617188 C 183.289062 214.570312 183.261719 214.328125 183.421875 213.753906 C 183.5 213.457031 183.652344 213.113281 183.847656 212.667969 C 183.949219 212.445312 184.0625 212.207031 184.179688 211.945312 C 184.230469 211.824219 184.289062 211.695312 184.339844 211.5625 C 183.917969 211.28125 183.515625 210.945312 183.144531 210.558594 C 183.125 210.582031 183.097656 210.613281 183.082031 210.644531 C 182.898438 210.910156 182.726562 211.148438 182.582031 211.359375 C 182.261719 211.792969 182.011719 212.132812 181.777344 212.367188 C 181.308594 212.828125 181.066406 212.9375 180.972656 212.855469 C 180.871094 212.765625 180.929688 212.496094 181.238281 211.96875 C 181.386719 211.707031 181.578125 211.335938 181.847656 210.890625 C 181.984375 210.664062 182.144531 210.40625 182.3125 210.125 C 182.375 210.03125 182.453125 209.929688 182.527344 209.824219 C 182.0625 209.226562 181.644531 208.550781 181.261719 207.816406 C 180.125 208.6875 179.273438 209.609375 178.652344 210.449219 C 177.867188 211.511719 177.351562 212.402344 176.992188 213.113281 C 176.816406 213.464844 176.660156 213.757812 176.53125 214.007812 C 176.417969 214.265625 176.324219 214.46875 176.238281 214.621094 C 176.074219 214.933594 175.960938 215.070312 175.898438 215.050781 C 175.839844 215.03125 175.828125 214.871094 175.890625 214.511719 C 175.921875 214.332031 175.972656 214.105469 176.042969 213.820312 C 176.117188 213.546875 176.242188 213.21875 176.382812 212.835938 C 176.675781 212.0625 177.15625 211.085938 177.949219 209.941406 C 178.609375 208.988281 179.539062 207.933594 180.847656 206.949219 C 180.546875 206.296875 180.273438 205.613281 180.03125 204.902344 C 179.714844 205.199219 179.449219 205.542969 179.242188 205.832031 C 178.878906 206.347656 178.613281 206.785156 178.394531 207.113281 C 177.960938 207.765625 177.703125 207.976562 177.589844 207.910156 C 177.476562 207.847656 177.519531 207.539062 177.804688 206.796875 C 177.953125 206.433594 178.15625 205.949219 178.507812 205.359375 C 178.683594 205.066406 178.902344 204.738281 179.199219 204.40625 C 179.34375 204.25 179.507812 204.085938 179.703125 203.9375 C 179.53125 203.398438 179.371094 202.851562 179.226562 202.296875 C 177.4375 203.382812 176.035156 204.445312 175.035156 205.472656 C 174.898438 205.605469 174.753906 205.738281 174.621094 205.871094 C 174.507812 206.007812 174.386719 206.144531 174.28125 206.277344 C 174.054688 206.554688 173.835938 206.792969 173.644531 207.035156 C 173.269531 207.546875 172.941406 207.992188 172.65625 208.375 C 172.363281 208.761719 172.121094 209.089844 171.898438 209.351562 C 171.667969 209.605469 171.472656 209.804688 171.316406 209.949219 C 170.996094 210.25 170.839844 210.351562 170.789062 210.300781 C 170.738281 210.257812 170.8125 210.074219 171.03125 209.71875 C 171.136719 209.535156 171.285156 209.308594 171.472656 209.039062 C 171.644531 208.75 171.859375 208.40625 172.105469 208.003906 C 172.363281 207.59375 172.664062 207.125 173.011719 206.585938 C 173.1875 206.316406 173.414062 206.046875 173.640625 205.75 C 173.753906 205.605469 173.871094 205.457031 173.992188 205.296875 C 174.125 205.152344 174.269531 205.007812 174.414062 204.867188 C 175.488281 203.691406 177.023438 202.519531 178.972656 201.351562 C 178.757812 200.507812 178.5625 199.667969 178.386719 198.859375 C 177.820312 199.160156 177.34375 199.582031 176.960938 199.925781 C 176.417969 200.453125 175.996094 200.859375 175.675781 201.175781 C 175.023438 201.808594 174.695312 201.996094 174.601562 201.910156 C 174.507812 201.820312 174.640625 201.488281 175.167969 200.734375 C 175.433594 200.367188 175.804688 199.882812 176.351562 199.304688 C 176.625 199.027344 176.949219 198.714844 177.351562 198.414062 C 177.589844 198.230469 177.867188 198.0625 178.1875 197.910156 C 178.0625 197.308594 177.941406 196.71875 177.828125 196.167969 C 177.21875 196.519531 176.707031 196.949219 176.300781 197.332031 C 175.675781 197.925781 175.222656 198.433594 174.878906 198.820312 C 174.1875 199.605469 173.902344 199.90625 173.777344 199.832031 C 173.675781 199.769531 173.757812 199.34375 174.34375 198.425781 C 174.632812 197.96875 175.054688 197.394531 175.683594 196.710938 C 175.851562 196.550781 176.03125 196.382812 176.210938 196.199219 C 176.40625 196.023438 176.625 195.859375 176.851562 195.679688 C 177.074219 195.496094 177.355469 195.355469 177.628906 195.191406 C 177.480469 194.492188 177.34375 193.867188 177.207031 193.328125 C 175.917969 194.015625 174.992188 194.988281 174.269531 195.796875 C 173.394531 196.800781 172.777344 197.652344 172.273438 198.28125 C 171.285156 199.5625 170.816406 199.988281 170.710938 199.90625 C 170.609375 199.824219 170.882812 199.28125 171.730469 197.898438 C 172.160156 197.222656 172.726562 196.316406 173.601562 195.242188 C 174.035156 194.699219 174.5625 194.125 175.222656 193.558594 C 175.480469 193.332031 175.777344 193.105469 176.09375 192.898438 C 175.714844 192.738281 175.355469 192.535156 175.035156 192.296875 C 174.011719 192.816406 173.136719 193.445312 172.394531 194.097656 C 171.539062 194.851562 170.847656 195.628906 170.25 196.355469 C 169.0625 197.8125 168.234375 199.046875 167.5625 199.964844 C 166.246094 201.820312 165.628906 202.457031 165.523438 202.378906 C 165.414062 202.296875 165.832031 201.546875 167.007812 199.597656 C 167.609375 198.632812 168.375 197.347656 169.574219 195.808594 C 170.164062 195.046875 170.875 194.21875 171.78125 193.40625 C 172.480469 192.773438 173.320312 192.148438 174.300781 191.613281 C 173.992188 191.253906 173.765625 190.847656 173.652344 190.402344 C 168.347656 194.28125 165.089844 200.015625 161.054688 205.066406 C 162.484375 207.820312 163.640625 210.769531 165.339844 213.375 C 167.269531 216.347656 169.710938 218.335938 172.765625 220.101562 C 179.652344 224.078125 186.25 224.589844 193.984375 222.976562 C 207.429688 220.175781 219.417969 213.734375 229.007812 203.980469 Z M 231.792969 221.273438 C 229.574219 219.992188 227.640625 218.253906 225.363281 217.089844 C 224.304688 217.804688 223.039062 218.21875 221.777344 218.238281 C 220.519531 220.382812 217.777344 222.246094 215.222656 221.882812 C 214.726562 223.855469 213.058594 224.4375 210.886719 224.539062 C 209.804688 224.589844 209.15625 224.507812 208.441406 225.46875 C 208.140625 225.875 207.824219 226.378906 207.371094 226.632812 C 206.042969 227.394531 204.644531 227.429688 203.175781 227.460938 C 201.367188 230.144531 199.042969 229.410156 196.105469 229.761719 C 194.8125 229.910156 193.59375 230.34375 192.386719 230.625 C 191.988281 231.484375 191.921875 232.484375 191.941406 233.4375 C 201.363281 233.527344 210.945312 233.375 220.394531 232.742188 C 222.152344 230.777344 223.40625 228.441406 225.542969 226.824219 C 227.820312 225.089844 229.742188 223.214844 231.792969 221.273438 Z M 226.171875 186.304688 C 229.824219 183.78125 231.109375 179.582031 229.855469 175.390625 C 228.105469 169.550781 224.511719 164.359375 222.328125 158.648438 C 219.894531 152.292969 216.914062 147.144531 210.648438 143.875 C 210.328125 143.707031 209.988281 143.539062 209.636719 143.367188 C 209.742188 143.511719 209.84375 143.65625 209.9375 143.800781 C 210.386719 144.511719 210.636719 145.230469 210.792969 145.835938 C 211.082031 147.089844 210.945312 147.8125 210.832031 147.835938 C 210.667969 147.875 210.511719 147.097656 210.082031 146.066406 C 209.851562 145.546875 209.566406 144.9375 209.125 144.339844 C 208.6875 143.746094 208.140625 143.140625 207.464844 142.609375 C 207.214844 142.414062 206.960938 142.246094 206.703125 142.085938 C 202.21875 140.386719 196.914062 139.644531 194.015625 143.863281 C 193.675781 144.359375 192.984375 144.511719 192.53125 144.058594 C 188.859375 140.394531 181.714844 147.140625 179.324219 149.820312 C 174.820312 154.871094 174.015625 162.167969 173.367188 168.652344 C 173.714844 167.917969 173.996094 167.238281 174.1875 166.648438 C 174.613281 165.335938 174.707031 164.464844 174.878906 164.464844 C 174.996094 164.460938 175.179688 165.375 174.917969 166.832031 C 174.785156 167.558594 174.519531 168.394531 174.148438 169.285156 C 173.769531 170.171875 173.292969 171.113281 172.753906 172.054688 C 172.21875 172.996094 171.71875 173.886719 171.25 174.695312 C 170.824219 175.511719 170.4375 176.246094 170.1875 176.882812 C 169.667969 178.132812 169.488281 179.035156 169.324219 179.003906 C 169.207031 178.980469 169.101562 178.105469 169.476562 176.648438 C 169.65625 175.933594 169.976562 175.128906 170.382812 174.257812 C 170.789062 173.390625 171.292969 172.472656 171.832031 171.539062 C 171.96875 171.292969 172.09375 171.0625 172.222656 170.828125 C 167.320312 175.757812 165.082031 185.097656 172.839844 188.367188 C 173.261719 187.632812 173.878906 187.074219 174.695312 186.785156 C 174.042969 184.777344 173.511719 182.652344 173.582031 180.5625 C 173.675781 177.867188 174.511719 175.335938 174.933594 172.6875 C 175.757812 167.523438 174.550781 162.351562 176.652344 157.375 C 179.597656 150.410156 185.320312 145.804688 193.007812 145.433594 C 193.214844 145.421875 193.378906 145.46875 193.511719 145.550781 C 198.671875 145.660156 204.097656 148.765625 206.78125 153.316406 C 206.644531 152.199219 206.457031 151.136719 206.164062 150.195312 C 205.753906 148.816406 205.097656 147.6875 204.3125 146.96875 C 203.53125 146.242188 202.691406 145.898438 202.117188 145.695312 C 201.539062 145.496094 201.167969 145.414062 201.1875 145.328125 C 201.203125 145.269531 201.550781 145.207031 202.207031 145.292969 C 202.859375 145.390625 203.835938 145.640625 204.804688 146.398438 C 205.773438 147.144531 206.59375 148.40625 207.097656 149.890625 C 207.613281 151.375 207.859375 153.066406 208 154.808594 C 208.039062 155.367188 208.070312 155.90625 208.097656 156.441406 C 208.582031 158.351562 208.484375 160.242188 208.660156 162.210938 C 208.660156 162.21875 208.660156 162.226562 208.660156 162.230469 C 208.703125 162.382812 208.738281 162.53125 208.773438 162.675781 C 208.855469 162.972656 208.925781 163.253906 208.996094 163.523438 C 209.234375 164.363281 209.398438 165.097656 209.492188 165.6875 C 210.019531 166.976562 210.707031 168.175781 211.355469 169.53125 C 212.945312 172.855469 212.832031 175.855469 212.4375 179.417969 C 213.453125 179.769531 214.550781 179.9375 215.585938 180.191406 C 215.601562 180.191406 215.605469 180.195312 215.617188 180.195312 C 216.046875 180.128906 216.519531 180.308594 216.667969 180.84375 C 217.199219 182.746094 216.859375 184.652344 215.921875 186.132812 C 215.925781 186.148438 215.9375 186.152344 215.945312 186.164062 C 216.046875 186.390625 216.121094 186.617188 216.183594 186.847656 C 219.078125 186.742188 223.625 188.0625 226.171875 186.304688 Z M 236.648438 221.769531 C 235.316406 220.113281 234.058594 218.703125 232.140625 217.679688 C 230.511719 216.8125 228.835938 216.039062 227.277344 215.050781 C 227.015625 215.507812 226.6875 215.925781 226.3125 216.304688 C 228.65625 217.589844 230.636719 219.433594 233.019531 220.664062 C 233.390625 220.855469 233.359375 221.25 233.144531 221.492188 C 233.121094 221.550781 233.089844 221.605469 233.03125 221.65625 C 230.929688 223.628906 229.050781 225.566406 226.757812 227.3125 C 224.785156 228.800781 223.5 230.78125 221.976562 232.632812 C 222.863281 232.566406 223.75 232.496094 224.636719 232.421875 C 226.492188 229.441406 229.496094 227.351562 232.109375 225.050781 C 233.585938 223.753906 235.089844 222.730469 236.648438 221.769531 Z M 237.585938 221.207031 C 238.265625 220.796875 238.957031 220.390625 239.660156 219.96875 C 236.441406 217.808594 233.195312 215.710938 229.65625 214.074219 C 229.296875 214.25 228.898438 214.375 228.5 214.472656 C 230.0625 215.375 231.730469 216.085938 233.277344 217.027344 C 235.046875 218.105469 236.203125 219.417969 237.484375 221.015625 C 237.535156 221.074219 237.5625 221.136719 237.585938 221.207031 Z M 241.761719 221.382812 C 241.40625 221.136719 241.046875 220.898438 240.679688 220.660156 C 239.4375 221.363281 238.128906 221.957031 236.902344 222.699219 C 235.113281 223.777344 233.648438 225.226562 232.0625 226.578125 C 229.988281 228.339844 227.6875 230.074219 226.074219 232.296875 C 226.542969 232.253906 227.015625 232.21875 227.488281 232.175781 C 231.195312 227.34375 236.902344 224.863281 241.761719 221.382812 Z M 243.90625 220.546875 C 244.664062 221.054688 244.3125 222.097656 243.667969 222.296875 C 238.84375 226 232.648438 228.359375 228.9375 233.339844 C 228.84375 233.46875 228.730469 233.558594 228.609375 233.632812 C 228.460938 233.832031 228.230469 233.988281 227.914062 234.019531 C 221.152344 234.679688 214.253906 234.738281 207.464844 235.007812 C 200.726562 235.265625 193.972656 235.449219 187.230469 235.242188 C 180.992188 235.054688 174.804688 234.410156 168.566406 234.480469 C 163.050781 234.542969 157.464844 234.683594 152.097656 233.253906 C 151.808594 233.175781 151.628906 233.015625 151.523438 232.816406 C 151.425781 232.710938 151.355469 232.570312 151.324219 232.386719 C 150.402344 226.753906 149.226562 221.457031 152.363281 216.285156 C 152.566406 215.960938 152.859375 215.832031 153.152344 215.839844 C 153.210938 215.804688 153.277344 215.773438 153.351562 215.746094 C 155.21875 215.125 157.066406 214.539062 159.011719 214.238281 C 157.972656 213.625 157.535156 212.402344 157.351562 211.183594 C 153.890625 210.003906 156.363281 205.285156 159.132812 204.46875 C 163.246094 199.492188 166.445312 193.890625 171.4375 189.761719 C 163.113281 185.507812 165.152344 174.625 171.449219 168.960938 C 172.261719 160.933594 173.429688 152.417969 179.742188 146.738281 C 182.847656 143.945312 188.824219 139.136719 193.058594 142.050781 C 197.21875 137.234375 204.398438 138.828125 209.664062 141.289062 C 216.632812 144.5625 220.828125 149.519531 223.570312 156.628906 C 225.226562 160.9375 227.238281 164.929688 229.289062 169.058594 C 230.996094 172.488281 232.472656 176.058594 232.175781 179.953125 C 231.914062 183.347656 229.492188 186.785156 226.441406 188.261719 C 224.824219 189.039062 222.972656 189.097656 221.101562 188.988281 C 226.195312 192.710938 228.894531 200.796875 232.191406 205.410156 C 232.351562 205.636719 232.382812 205.863281 232.339844 206.0625 C 232.84375 206.761719 233.339844 207.476562 233.660156 208.28125 C 234.359375 210.03125 233.347656 211.085938 231.8125 211.335938 C 231.722656 211.875 231.527344 212.347656 231.246094 212.753906 C 235.730469 214.917969 239.761719 217.804688 243.90625 220.546875 Z M 185.742188 203.722656 C 185.746094 203.714844 185.753906 203.703125 185.761719 203.699219 C 185.835938 203.589844 185.898438 203.476562 185.960938 203.371094 C 186.050781 203.214844 186.175781 203.101562 186.320312 203.027344 C 186.488281 202.871094 186.699219 202.769531 186.933594 202.800781 C 187.5 202.871094 188.03125 203.015625 188.535156 203.269531 C 188.824219 203.296875 189.054688 203.464844 189.214844 203.703125 C 189.980469 202.886719 190.742188 202.074219 191.75 201.5625 C 193.726562 200.585938 195.558594 199.429688 197.117188 197.84375 C 200.160156 194.738281 203.382812 191.46875 205.199219 187.457031 C 205.410156 186.648438 206.761719 186.433594 207.019531 187.433594 C 208.0625 191.382812 206.960938 194.921875 204.960938 198.066406 C 205.867188 196.632812 207.765625 195.6875 208.757812 194.175781 C 209.800781 192.578125 210.398438 190.746094 210.308594 188.832031 C 210.316406 188.925781 209.242188 188.632812 208.875 188.414062 C 208.832031 188.386719 208.804688 188.363281 208.78125 188.335938 C 208.320312 187.746094 208.675781 186.386719 208.78125 185.730469 C 209.117188 183.707031 209.996094 181.804688 210.441406 179.800781 C 210.46875 179.707031 210.5 179.632812 210.535156 179.554688 C 210.988281 175.488281 210.820312 172.519531 208.824219 168.800781 C 207.535156 166.410156 206.8125 164.207031 206.757812 161.472656 C 206.660156 157.28125 205.601562 153.78125 202.285156 151 C 199.640625 148.785156 196.613281 147.386719 193.117188 147.421875 C 192.964844 147.421875 192.832031 147.390625 192.714844 147.339844 C 185.136719 147.847656 178.859375 153.523438 177.464844 161.058594 C 176.652344 165.445312 177.5 169.902344 176.539062 174.289062 C 175.5 179.023438 175.292969 182.894531 176.941406 187.535156 C 176.996094 187.550781 177.054688 187.578125 177.125 187.589844 C 178.15625 187.777344 179.003906 187.441406 179.917969 187.03125 C 180.664062 186.707031 181.34375 186.472656 182.015625 186.347656 C 181.953125 186.265625 181.890625 186.183594 181.839844 186.101562 C 181.664062 185.84375 181.566406 185.601562 181.457031 185.332031 L 181.3125 184.921875 L 181.230469 184.601562 C 181.042969 183.742188 181.097656 182.972656 181.242188 182.304688 C 181.371094 181.621094 181.570312 181.023438 181.757812 180.449219 C 181.855469 180.171875 181.941406 179.894531 182.035156 179.625 C 182.117188 179.367188 182.207031 179.148438 182.28125 178.863281 L 182.394531 178.457031 L 182.496094 178.066406 C 182.566406 177.773438 182.644531 177.507812 182.726562 177.234375 C 183.386719 175.136719 184.023438 173.359375 184.226562 171.847656 C 184.453125 170.339844 184.195312 169.183594 183.742188 168.511719 C 183.628906 168.355469 183.527344 168.207031 183.4375 168.0625 C 183.320312 167.9375 183.210938 167.824219 183.128906 167.730469 C 182.972656 167.535156 182.910156 167.402344 182.949219 167.347656 C 182.992188 167.285156 183.136719 167.296875 183.375 167.378906 C 183.496094 167.414062 183.640625 167.472656 183.804688 167.546875 C 183.960938 167.660156 184.148438 167.796875 184.355469 167.96875 C 184.566406 168.144531 184.722656 168.375 184.929688 168.625 C 185.085938 168.894531 185.269531 169.203125 185.382812 169.550781 C 185.652344 170.246094 185.730469 171.074219 185.722656 171.960938 C 185.691406 173.730469 185.144531 175.707031 184.613281 177.757812 C 184.550781 178.007812 184.484375 178.269531 184.433594 178.519531 L 184.34375 178.949219 L 184.242188 179.355469 C 184.1875 179.625 184.082031 179.9375 184 180.242188 C 183.910156 180.515625 183.824219 180.800781 183.734375 181.082031 C 183.578125 181.628906 183.402344 182.179688 183.320312 182.695312 C 183.199219 183.214844 183.21875 183.707031 183.28125 184.070312 C 183.46875 184.847656 183.761719 185.269531 184.066406 185.386719 C 184.394531 185.550781 185.117188 185.460938 185.804688 185.253906 L 185.9375 185.222656 L 186.054688 185.1875 L 186.125 185.167969 C 186.246094 185.140625 186.277344 185.125 186.472656 185.097656 C 186.816406 185.042969 187.0625 185.046875 187.304688 185.0625 C 187.792969 185.09375 188.210938 185.1875 188.589844 185.269531 C 188.964844 185.355469 189.304688 185.4375 189.578125 185.476562 C 189.851562 185.519531 190.019531 185.398438 190.054688 185.386719 C 190.039062 185.429688 190.015625 185.46875 190.042969 185.445312 L 190.042969 185.488281 L 190.050781 185.507812 L 190.09375 185.460938 L 190.167969 185.367188 C 190.316406 185.199219 190.253906 185.199219 190.304688 185.15625 C 190.367188 184.996094 190.425781 184.765625 190.425781 184.539062 C 190.441406 184.074219 190.3125 183.59375 190.121094 183.242188 C 189.921875 182.875 189.683594 182.667969 189.460938 182.621094 C 189.230469 182.550781 188.9375 182.683594 188.664062 182.828125 L 188.007812 183.179688 L 187.886719 182.613281 C 187.714844 181.828125 187.90625 181.265625 188.046875 180.917969 C 188.230469 180.574219 188.375 180.433594 188.449219 180.464844 C 188.535156 180.503906 188.554688 180.710938 188.542969 181.023438 C 188.554688 181.199219 188.570312 181.414062 188.613281 181.652344 C 188.859375 181.507812 189.167969 181.402344 189.546875 181.402344 C 190.28125 181.414062 190.925781 181.890625 191.324219 182.449219 C 191.730469 183.015625 191.988281 183.691406 192.058594 184.476562 C 192.101562 185.191406 192.003906 186.152344 191.140625 186.894531 C 192.179688 187.269531 193.214844 187.671875 194.28125 187.964844 C 196.488281 188.574219 197.871094 187.960938 199.933594 187.589844 C 200.042969 187.570312 200.136719 187.570312 200.230469 187.582031 C 200.65625 187.515625 201.078125 187.703125 201.1875 188.25 C 201.816406 191.394531 199.140625 192.980469 196.332031 193.425781 C 192.386719 194.0625 188.589844 193.570312 185.011719 191.765625 C 183.546875 192.71875 181.484375 193.265625 179.597656 193.382812 C 179.597656 195.792969 180.191406 198.652344 181.898438 200.460938 C 183.054688 201.695312 184.550781 202.5625 185.660156 203.8125 C 185.683594 203.78125 185.714844 203.753906 185.742188 203.722656 Z M 232.011719 209.421875 C 231.996094 209.421875 232.027344 209.296875 231.96875 209.121094 C 231.773438 208.550781 231.421875 208.027344 231.082031 207.53125 C 230.691406 206.980469 230.207031 206.429688 229.804688 205.84375 C 219.40625 216.191406 205.707031 223.457031 191.023438 225.371094 C 183.5 226.351562 177.394531 225.214844 170.929688 221.199219 C 164.992188 217.503906 162.671875 212.308594 159.597656 206.339844 C 158.363281 206.941406 156.4375 209.046875 158.226562 209.472656 C 158.238281 209.476562 158.246094 209.476562 158.257812 209.484375 C 158.691406 209.523438 159.117188 209.824219 159.15625 210.382812 C 159.21875 211.316406 159.332031 212.558594 160.425781 212.765625 C 160.683594 212.816406 160.855469 212.941406 160.96875 213.101562 C 161.136719 213.25 161.261719 213.46875 161.28125 213.757812 C 161.359375 215.113281 161.773438 216.90625 163.339844 217.15625 C 163.34375 217.164062 163.351562 217.164062 163.363281 217.164062 C 163.804688 217.203125 164.238281 217.503906 164.265625 218.066406 C 164.359375 219.78125 166.308594 219.722656 167.371094 220.695312 C 168.375 221.621094 168.828125 223.648438 170.464844 223.277344 C 170.558594 223.257812 170.644531 223.25 170.734375 223.257812 C 171.214844 223.070312 171.800781 223.214844 171.9375 223.859375 C 172.304688 225.625 174.285156 226.269531 175.882812 225.785156 C 176.261719 225.675781 176.773438 225.851562 176.953125 226.21875 C 177.734375 227.839844 180.496094 228.9375 182.1875 228.160156 C 182.226562 228.140625 182.269531 228.128906 182.308594 228.117188 C 182.714844 227.828125 183.351562 227.808594 183.714844 228.339844 C 184.433594 229.402344 186.476562 229.246094 187.335938 228.460938 C 187.601562 228.226562 187.890625 228.179688 188.160156 228.234375 C 188.339844 228.214844 188.527344 228.265625 188.722656 228.390625 C 190.964844 229.921875 193.242188 228.210938 195.582031 227.933594 C 197.832031 227.667969 200.25 228.546875 201.675781 226.3125 C 201.765625 225.9375 202.054688 225.617188 202.550781 225.597656 C 204.496094 225.535156 205.925781 225.597656 207.234375 223.910156 C 207.679688 223.332031 208.234375 222.945312 208.972656 222.832031 C 210.5625 222.59375 213.335938 223.152344 213.480469 220.972656 C 213.503906 220.546875 213.757812 220.269531 214.070312 220.144531 C 214.273438 219.90625 214.585938 219.773438 214.984375 219.90625 C 217.035156 220.570312 219.375 218.769531 220.285156 217.042969 C 220.328125 216.96875 220.375 216.90625 220.417969 216.855469 C 220.539062 216.542969 220.8125 216.308594 221.261719 216.339844 C 223.261719 216.484375 225.160156 215.367188 225.945312 213.515625 C 226.039062 213.292969 226.1875 213.15625 226.339844 213.085938 C 226.492188 212.875 226.734375 212.730469 227.074219 212.734375 C 228.394531 212.761719 229.988281 212.238281 229.980469 210.695312 C 229.980469 210.394531 230.101562 210.164062 230.277344 210.011719 C 230.414062 209.734375 230.679688 209.523438 231.089844 209.515625 C 231.277344 209.515625 231.835938 209.566406 232.011719 209.421875 " fill-opacity="1" fill-rule="nonzero"/></g><path fill="#000000" d="M 227.703125 177.757812 C 227.71875 178.148438 227.671875 178.5625 227.621094 178.992188 C 227.476562 179.859375 227.207031 180.804688 226.714844 181.710938 C 226.210938 182.605469 225.542969 183.347656 224.824219 183.894531 C 224.640625 184.019531 224.460938 184.144531 224.28125 184.265625 C 224.105469 184.371094 223.914062 184.453125 223.738281 184.539062 C 223.386719 184.726562 223.015625 184.804688 222.699219 184.902344 C 222.046875 185.046875 221.507812 185.085938 221.140625 185.03125 C 220.777344 184.992188 220.582031 184.933594 220.582031 184.859375 C 220.582031 184.789062 220.769531 184.703125 221.109375 184.621094 C 221.449219 184.550781 221.921875 184.402344 222.46875 184.1875 C 222.738281 184.054688 223.046875 183.960938 223.332031 183.761719 C 223.476562 183.667969 223.632812 183.585938 223.777344 183.480469 C 223.917969 183.367188 224.070312 183.246094 224.21875 183.128906 C 224.792969 182.625 225.347656 181.972656 225.785156 181.195312 C 226.21875 180.410156 226.480469 179.589844 226.65625 178.824219 C 226.730469 178.4375 226.800781 178.070312 226.828125 177.71875 C 226.867188 177.367188 226.863281 177.042969 226.875 176.742188 C 226.875 175.5625 226.699219 174.753906 226.867188 174.722656 C 226.992188 174.695312 227.410156 175.347656 227.625 176.683594 C 227.664062 177.011719 227.710938 177.367188 227.703125 177.757812 " fill-opacity="1" fill-rule="nonzero"/><path fill="#000000" d="M 225.121094 168.46875 C 226.171875 170.671875 226.460938 172.179688 226.339844 172.210938 C 226.179688 172.261719 225.648438 170.878906 224.457031 168.816406 C 223.878906 167.773438 223.109375 166.5625 222.3125 165.175781 C 221.511719 163.789062 220.707031 162.15625 220.089844 160.40625 C 219.503906 158.675781 218.890625 157.0625 218.261719 155.625 C 218.097656 155.273438 217.933594 154.929688 217.777344 154.589844 C 217.617188 154.25 217.4375 153.949219 217.273438 153.640625 C 216.964844 153.015625 216.601562 152.480469 216.285156 151.984375 C 215.988281 151.464844 215.632812 151.085938 215.359375 150.699219 C 215.097656 150.316406 214.8125 150.007812 214.585938 149.757812 C 214.148438 149.242188 213.925781 148.933594 213.976562 148.886719 C 214.027344 148.835938 214.339844 149.042969 214.875 149.457031 C 215.140625 149.664062 215.46875 149.921875 215.792969 150.289062 C 216.117188 150.65625 216.550781 151.042969 216.894531 151.546875 C 217.261719 152.035156 217.683594 152.570312 218.035156 153.195312 C 218.214844 153.511719 218.429688 153.824219 218.605469 154.164062 C 218.78125 154.503906 218.957031 154.851562 219.148438 155.21875 C 219.84375 156.667969 220.507812 158.316406 221.097656 160.058594 C 221.699219 161.785156 222.425781 163.304688 223.167969 164.703125 C 223.910156 166.105469 224.613281 167.359375 225.121094 168.46875 " fill-opacity="1" fill-rule="nonzero"/><path fill="#000000" d="M 218.480469 175.058594 C 218.617188 176.632812 218.390625 177.53125 218.273438 177.546875 C 218.101562 177.558594 218.054688 176.574219 217.738281 175.179688 C 217.574219 174.464844 217.34375 173.621094 217.015625 172.707031 C 216.679688 171.789062 216.277344 170.792969 215.839844 169.730469 C 215.40625 168.671875 215.007812 167.636719 214.699219 166.667969 C 214.40625 165.695312 214.210938 164.792969 214.128906 164.027344 C 213.957031 162.480469 214.164062 161.527344 214.292969 161.539062 C 214.460938 161.539062 214.523438 162.46875 214.863281 163.894531 C 215.039062 164.609375 215.292969 165.445312 215.632812 166.355469 C 215.972656 167.269531 216.386719 168.269531 216.828125 169.328125 C 217.261719 170.390625 217.648438 171.433594 217.945312 172.40625 C 218.234375 173.378906 218.40625 174.289062 218.480469 175.058594 " fill-opacity="1" fill-rule="nonzero"/><path fill="#000000" d="M 214.148438 170.941406 C 214.390625 172.210938 214.550781 173.378906 214.492188 174.363281 C 214.441406 176.351562 213.863281 177.480469 213.761719 177.433594 C 213.585938 177.386719 213.882812 176.234375 213.746094 174.382812 C 213.707031 173.460938 213.472656 172.359375 213.195312 171.164062 C 212.882812 169.957031 212.460938 168.652344 212.007812 167.269531 C 211.542969 165.890625 211.109375 164.558594 210.761719 163.328125 C 210.605469 162.703125 210.441406 162.117188 210.347656 161.554688 C 210.289062 161.269531 210.242188 161 210.191406 160.738281 C 210.160156 160.472656 210.128906 160.214844 210.101562 159.976562 C 209.886719 157.992188 210.191406 156.832031 210.304688 156.832031 C 210.480469 156.832031 210.453125 158.0625 210.839844 159.859375 C 210.886719 160.09375 210.9375 160.328125 210.996094 160.582031 C 211.058594 160.824219 211.128906 161.082031 211.203125 161.351562 C 211.328125 161.886719 211.523438 162.449219 211.699219 163.046875 C 212.101562 164.246094 212.550781 165.558594 213.015625 166.933594 C 213.472656 168.324219 213.875 169.679688 214.148438 170.941406 " fill-opacity="1" fill-rule="nonzero"/><path fill="#000000" d="M 209.945312 149.925781 C 210.109375 150.628906 210.191406 151.269531 210.160156 151.816406 C 210.109375 152.933594 209.800781 153.496094 209.675781 153.484375 C 209.515625 153.472656 209.558594 152.789062 209.414062 151.851562 C 209.347656 151.371094 209.195312 150.8125 209.011719 150.203125 C 208.792969 149.601562 208.515625 148.949219 208.15625 148.300781 C 206.691406 145.664062 204.582031 144.226562 204.753906 143.96875 C 204.820312 143.851562 205.453125 144.050781 206.328125 144.671875 C 207.199219 145.289062 208.269531 146.347656 209.078125 147.78125 C 209.480469 148.503906 209.765625 149.234375 209.945312 149.925781 " fill-opacity="1" fill-rule="nonzero"/><path fill="#000000" d="M 190.085938 185.28125 L 190.09375 185.28125 C 190.09375 185.292969 190.082031 185.316406 190.066406 185.347656 C 190.070312 185.316406 190.070312 185.28125 190.085938 185.28125 " fill-opacity="1" fill-rule="nonzero"/><path fill="#000000" d="M 186.359375 200.144531 C 187.21875 199.902344 187.457031 198.261719 187.414062 197.199219 C 186.414062 197.042969 185.25 196.664062 184.433594 197.203125 C 184.464844 197.753906 184.785156 198.355469 185.042969 198.785156 C 185.210938 199.054688 185.90625 200.277344 186.359375 200.144531 Z M 189.152344 196.058594 C 189.601562 197.90625 189.007812 201.976562 186.464844 202.015625 C 184.144531 202.054688 181.9375 198.300781 182.671875 196.214844 C 182.816406 195.808594 183.144531 195.613281 183.488281 195.585938 C 184.054688 195.226562 184.679688 195.007812 185.382812 195.050781 C 186.277344 195.101562 187.140625 195.371094 188.035156 195.371094 C 188.109375 195.371094 188.179688 195.386719 188.246094 195.394531 C 188.640625 195.371094 189.035156 195.5625 189.152344 196.058594 " fill-opacity="1" fill-rule="nonzero"/><path fill="#000000" d="M 174.140625 172.730469 C 174.273438 172.773438 174.125 173.578125 173.613281 174.769531 C 173.128906 175.96875 172.199219 177.496094 171.535156 179.210938 C 170.851562 180.9375 171.03125 182.574219 171.496094 183.691406 C 171.625 183.960938 171.722656 184.214844 171.816406 184.445312 C 171.929688 184.671875 172.027344 184.867188 172.105469 185.023438 C 172.261719 185.347656 172.316406 185.550781 172.253906 185.59375 C 172.199219 185.636719 172.03125 185.519531 171.773438 185.261719 C 171.640625 185.128906 171.484375 184.984375 171.328125 184.777344 C 171.175781 184.558594 171.003906 184.308594 170.824219 184.019531 C 170.667969 183.71875 170.515625 183.378906 170.367188 183.003906 C 170.269531 182.613281 170.125 182.199219 170.113281 181.742188 C 170.019531 180.824219 170.175781 179.800781 170.53125 178.851562 C 171.285156 176.941406 172.304688 175.511719 172.949219 174.433594 C 173.613281 173.359375 173.996094 172.675781 174.140625 172.730469 " fill-opacity="1" fill-rule="nonzero"/></svg>