<svg xmlns="http://www.w3.org/2000/svg" xmlns:xlink="http://www.w3.org/1999/xlink" width="500" zoomAndPan="magnify" viewBox="0 0 375 374.999991" height="500" preserveAspectRatio="xMidYMid meet" version="1.0"><defs><clipPath id="2c0882895f"><path d="M 108.066406 235.507812 L 137.316406 235.507812 L 137.316406 240.007812 L 108.066406 240.007812 Z M 108.066406 235.507812 " clip-rule="nonzero"/></clipPath><clipPath id="c359a782dc"><path d="M 237.683594 134.992188 L 266.933594 134.992188 L 266.933594 139.492188 L 237.683594 139.492188 Z M 237.683594 134.992188 " clip-rule="nonzero"/></clipPath><clipPath id="584a7ef2aa"><path d="M 129 140.242188 L 231.644531 140.242188 L 231.644531 236 L 129 236 Z M 129 140.242188 " clip-rule="nonzero"/></clipPath></defs><rect x="-37.5" width="450" fill="#ffffff" y="-37.499999" height="449.999989" fill-opacity="1"/><rect x="-37.5" width="450" fill="#ffffff" y="-37.499999" height="449.999989" fill-opacity="1"/><rect x="-37.5" width="450" fill="#f4f1e9" y="-37.499999" height="449.999989" fill-opacity="1"/><path stroke-linecap="butt" transform="matrix(0.000000000000000092, 1.501943, -1.5, 0.000000000000000092, 121.940608, 117.906628)" fill="none" stroke-linejoin="miter" d="M -0.000251845 -0.000532372 L 78.400791 -0.000532372 " stroke="#000000" stroke-width="1" stroke-opacity="1" stroke-miterlimit="4"/><path stroke-linecap="butt" transform="matrix(0.000000000000000092, -1.501943, 1.5, 0.000000000000000092, 256.425544, 257.093362)" fill="none" stroke-linejoin="miter" d="M -0.000258653 0.000157859 L 78.400784 0.000157859 " stroke="#000000" stroke-width="1" stroke-opacity="1" stroke-miterlimit="4"/><path stroke-linecap="round" transform="matrix(-1.50929, -0.000000000000000185, 0.000000000000000184, -1.5, 171.137849, 234.75621)" fill="none" stroke-linejoin="miter" d="M 0.50026 -0.00106821 L 32.300705 -0.00106821 " stroke="#000000" stroke-width="1" stroke-opacity="1" stroke-miterlimit="4"/><path stroke-linecap="round" transform="matrix(1.50929, 0, 0, 1.5, 207.227482, 140.243765)" fill="none" stroke-linejoin="miter" d="M 0.498901 -0.00105179 L 32.299347 -0.00105179 " stroke="#000000" stroke-width="1" stroke-opacity="1" stroke-miterlimit="4"/><path stroke-linecap="round" transform="matrix(-1.497507, 0.000000000000000848, -0.00000000000000085, -1.5, 213.594878, 118.654679)" fill="none" stroke-linejoin="miter" d="M 0.498978 -0.00104706 L 60.606707 -0.00104706 " stroke="#000000" stroke-width="1" stroke-opacity="1" stroke-miterlimit="4"/><path stroke-linecap="round" transform="matrix(1.497507, 0, 0, 1.5, 165.517537, 256.345296)" fill="none" stroke-linejoin="miter" d="M 0.499556 -0.00103064 L 60.607285 -0.00103064 " stroke="#000000" stroke-width="1" stroke-opacity="1" stroke-miterlimit="4"/><g clip-path="url(#2c0882895f)"><path fill="#f4f1e9" d="M 108.066406 235.507812 L 137.316406 235.507812 L 137.316406 240.007812 L 108.066406 240.007812 L 108.066406 235.507812 " fill-opacity="1" fill-rule="nonzero"/></g><g clip-path="url(#c359a782dc)"><path fill="#f4f1e9" d="M 266.933594 139.492188 L 237.683594 139.492188 L 237.683594 134.992188 L 266.933594 134.992188 L 266.933594 139.492188 " fill-opacity="1" fill-rule="nonzero"/></g><g clip-path="url(#584a7ef2aa)"><path fill="#100f0d" d="M 228.488281 181.230469 C 228.460938 181.519531 228.363281 181.804688 228.261719 182.054688 C 228.09375 182.46875 227.871094 182.855469 227.652344 183.238281 C 227.195312 184.039062 226.621094 184.765625 225.933594 185.375 C 224.550781 186.609375 222.9375 187.730469 221.359375 188.703125 C 220.617188 189.160156 219.773438 189.523438 218.972656 189.871094 L 214.746094 191.992188 C 213.183594 192.773438 211.292969 192.464844 210.054688 191.21875 C 209.960938 191.125 209.859375 191.027344 209.761719 190.929688 C 209.171875 190.386719 208.582031 189.910156 207.894531 189.488281 C 205.386719 187.949219 202.558594 186.921875 199.769531 186.027344 C 197.871094 185.417969 195.945312 184.882812 194.007812 184.402344 C 191.921875 183.882812 189.664062 183.671875 187.679688 182.816406 C 185.777344 182 184.558594 180.355469 183.113281 178.953125 C 182.40625 178.269531 181.65625 177.621094 180.867188 177.027344 C 180.730469 176.929688 180.804688 176.710938 180.972656 176.710938 C 184.085938 176.707031 200.617188 177.109375 221.460938 185.542969 C 221.667969 185.628906 221.882812 185.707031 222.097656 185.78125 C 222.257812 185.835938 222.480469 185.929688 222.6875 186.0625 C 223.160156 186.382812 223.777344 186.402344 224.246094 186.074219 C 224.976562 185.554688 225.667969 184.964844 226.265625 184.300781 C 226.878906 183.628906 227.40625 182.875 227.773438 182.042969 C 227.953125 181.632812 228.082031 181.195312 228.179688 180.765625 C 228.191406 180.71875 228.207031 180.671875 228.238281 180.640625 C 228.269531 180.605469 228.320312 180.585938 228.363281 180.605469 C 228.402344 180.628906 228.417969 180.675781 228.429688 180.714844 C 228.476562 180.882812 228.5 181.058594 228.488281 181.230469 Z M 220.394531 190.710938 C 218.128906 192.3125 213.304688 194.582031 211.84375 195.257812 C 211.65625 195.34375 211.425781 195.3125 211.285156 195.160156 C 211.054688 194.902344 211.15625 194.53125 211.449219 194.417969 C 213.125 193.769531 217.824219 191.480469 220.167969 190.328125 C 220.414062 190.210938 220.621094 190.554688 220.394531 190.710938 Z M 211.496094 209.351562 C 211.230469 209.511719 210.796875 209.601562 210.480469 208.824219 C 210.054688 207.785156 209.097656 199.691406 208.496094 197.070312 C 208.414062 196.71875 208.253906 196.394531 208.050781 196.089844 C 207.878906 195.839844 207.78125 195.375 208.769531 194.867188 C 208.855469 194.824219 208.949219 194.914062 208.898438 195 C 208.71875 195.316406 208.613281 195.789062 209.558594 195.851562 C 209.675781 195.859375 209.765625 195.960938 209.757812 196.074219 C 209.664062 197.324219 209.34375 203.652344 211.628906 208.910156 C 211.703125 209.074219 211.644531 209.261719 211.496094 209.351562 Z M 178.910156 179.0625 C 178.601562 179.476562 178.226562 179.746094 178.027344 179.050781 C 177.960938 178.824219 177.945312 178.585938 177.976562 178.351562 C 178.230469 176.105469 180.222656 161.207031 188.769531 153.84375 C 188.882812 153.746094 189.03125 153.902344 188.933594 154.011719 C 186.273438 156.890625 180.816406 164.292969 179.46875 177.59375 C 179.414062 178.128906 179.226562 178.636719 178.910156 179.0625 Z M 177.453125 179.253906 C 176.484375 178.597656 171.359375 175.359375 166.355469 176.671875 C 166.265625 176.695312 166.183594 176.632812 166.183594 176.542969 C 166.183594 176.398438 166.277344 176.269531 166.417969 176.230469 C 167.5 175.9375 172.144531 174.988281 177.421875 178.789062 C 177.546875 178.878906 177.613281 179.019531 177.613281 179.167969 C 177.613281 179.25 177.523438 179.304688 177.453125 179.253906 Z M 165.550781 174.476562 C 165.429688 174.53125 165.308594 174.59375 165.191406 174.660156 C 164.71875 174.929688 163.710938 175.449219 162.917969 175.472656 C 162.386719 175.492188 162.085938 174.875 162.429688 174.46875 C 162.867188 173.957031 163.878906 173.355469 166.226562 173.253906 C 166.414062 173.246094 166.53125 173.460938 166.414062 173.613281 C 166.164062 173.933594 165.796875 174.363281 165.550781 174.476562 Z M 153.886719 172.988281 C 153.835938 173.195312 153.652344 173.339844 153.441406 173.335938 C 153.035156 173.332031 152.351562 173.390625 151.503906 173.703125 C 151.3125 173.773438 151.136719 173.566406 151.242188 173.390625 C 152.039062 172.050781 155.039062 168.816406 167.246094 165.789062 C 167.53125 165.71875 167.65625 165.9375 167.371094 166.015625 C 163.777344 166.96875 154.632812 169.707031 153.886719 172.988281 Z M 196.101562 148.070312 C 197.59375 146.839844 199.828125 147.148438 200.917969 148.753906 C 204.691406 154.320312 205.390625 159.285156 205 163.074219 C 204.734375 165.707031 202.269531 167.542969 199.671875 167.046875 C 195.71875 166.285156 191.496094 165.605469 187.699219 165.246094 C 185.394531 165.03125 183.996094 162.5625 185.011719 160.476562 C 187.292969 155.796875 192.78125 150.816406 196.101562 148.070312 Z M 196.734375 145.949219 C 196.808594 145.882812 196.898438 145.828125 196.992188 145.761719 C 197.089844 145.699219 197.195312 145.628906 197.304688 145.554688 C 197.417969 145.476562 197.546875 145.414062 197.675781 145.339844 C 197.742188 145.300781 197.8125 145.265625 197.878906 145.230469 C 197.949219 145.1875 198.019531 145.148438 198.09375 145.117188 C 198.246094 145.046875 198.402344 144.976562 198.5625 144.898438 C 198.730469 144.835938 198.90625 144.777344 199.085938 144.707031 C 199.265625 144.640625 199.453125 144.59375 199.644531 144.535156 C 199.695312 144.523438 199.742188 144.507812 199.792969 144.496094 C 199.84375 144.484375 199.890625 144.476562 199.941406 144.460938 C 200.042969 144.441406 200.140625 144.417969 200.246094 144.398438 C 200.347656 144.375 200.449219 144.363281 200.554688 144.347656 C 200.660156 144.332031 200.765625 144.3125 200.871094 144.296875 C 201.082031 144.269531 201.304688 144.257812 201.519531 144.246094 C 201.742188 144.242188 201.960938 144.234375 202.179688 144.242188 C 202.40625 144.25 202.625 144.253906 202.847656 144.277344 L 203.179688 144.3125 L 203.507812 144.367188 C 203.726562 144.394531 203.941406 144.445312 204.15625 144.492188 C 204.582031 144.585938 204.992188 144.707031 205.386719 144.84375 C 205.777344 144.976562 206.148438 145.136719 206.492188 145.292969 C 206.835938 145.453125 207.152344 145.613281 207.4375 145.78125 C 207.582031 145.863281 207.71875 145.949219 207.84375 146.023438 C 207.96875 146.109375 208.089844 146.179688 208.203125 146.257812 C 208.425781 146.40625 208.609375 146.546875 208.761719 146.660156 C 208.914062 146.777344 209.03125 146.878906 209.105469 146.941406 C 209.1875 147.011719 209.226562 147.046875 209.226562 147.046875 C 209.226562 147.046875 209.179688 147.015625 209.09375 146.960938 C 209.007812 146.90625 208.878906 146.828125 208.714844 146.734375 C 208.550781 146.636719 208.351562 146.523438 208.117188 146.402344 C 207.882812 146.277344 207.617188 146.144531 207.324219 146.003906 C 207.027344 145.863281 206.707031 145.730469 206.363281 145.589844 C 206.019531 145.457031 205.648438 145.324219 205.265625 145.210938 C 205.074219 145.148438 204.878906 145.097656 204.675781 145.042969 C 204.578125 145.015625 204.472656 144.996094 204.371094 144.972656 C 204.273438 144.949219 204.167969 144.921875 204.066406 144.898438 C 203.859375 144.863281 203.652344 144.816406 203.4375 144.792969 L 203.125 144.742188 L 202.804688 144.714844 C 202.59375 144.6875 202.382812 144.683594 202.167969 144.671875 C 201.957031 144.660156 201.328125 144.679688 201.222656 144.6875 C 201.121094 144.691406 201.015625 144.691406 200.914062 144.703125 C 200.8125 144.714844 200.710938 144.726562 200.609375 144.738281 C 200.507812 144.746094 199.539062 144.925781 199.179688 145.019531 C 199.003906 145.074219 198.832031 145.125 198.667969 145.175781 C 198.503906 145.234375 198.347656 145.292969 198.195312 145.347656 C 198.042969 145.402344 197.90625 145.472656 197.769531 145.53125 C 197.636719 145.589844 197.503906 145.636719 197.386719 145.703125 C 197.269531 145.761719 197.164062 145.820312 197.058594 145.871094 C 196.957031 145.921875 196.863281 145.96875 196.78125 146.019531 C 196.453125 146.210938 196.261719 146.316406 196.261719 146.316406 C 196.261719 146.316406 196.429688 146.179688 196.734375 145.949219 Z M 186.699219 232.175781 L 186.667969 232.199219 C 185.65625 232.984375 184.050781 233.375 181.902344 233.375 C 177.3125 233.375 172.097656 231.539062 172.046875 231.519531 L 156.878906 225.992188 L 142.195312 219.761719 C 135.308594 216.066406 133.613281 212.117188 133.554688 211.980469 C 133.320312 211.347656 133.074219 210.742188 132.835938 210.15625 C 132.261719 208.734375 131.722656 207.394531 131.421875 205.921875 C 130.996094 203.867188 130.855469 201.726562 130.75 199.703125 C 130.546875 195.902344 130.476562 190.941406 131.753906 186.257812 C 132.441406 183.726562 134.066406 181.546875 135.984375 180.566406 C 136.933594 180.085938 138.070312 179.84375 139.367188 179.84375 C 139.753906 179.84375 140.148438 179.863281 140.550781 179.910156 C 142.265625 180.089844 144.011719 180.628906 145.703125 181.144531 C 146.507812 181.394531 148.421875 181.980469 148.421875 181.980469 C 153.609375 183.578125 158.972656 185.226562 164.398438 186.785156 L 169.097656 188.140625 C 183.546875 192.089844 186.8125 195.6875 187.09375 196.023438 L 187.1875 196.203125 L 187.289062 196.265625 C 192.785156 201.96875 192.515625 210.589844 192.511719 210.675781 C 192.117188 221.679688 191.324219 224.515625 191.234375 224.816406 L 191.160156 224.976562 L 191.15625 225.089844 C 190.273438 229.636719 186.765625 232.128906 186.730469 232.15625 Z M 231.46875 189.183594 C 231.289062 186.703125 230.761719 184.25 229.929688 181.910156 C 229.640625 181.097656 229.3125 180.296875 228.949219 179.511719 C 228.949219 179.511719 226.855469 174.914062 220.070312 172.042969 C 217.449219 170.9375 215.726562 168.40625 215.683594 165.554688 C 215.550781 156.5 212.128906 150.257812 212.128906 150.257812 C 206.839844 140.621094 196.414062 140.554688 191.089844 141.242188 C 188.863281 141.53125 186.734375 142.347656 184.902344 143.648438 C 176.144531 149.84375 171.445312 160.972656 169.886719 165.277344 C 163.589844 166.035156 156.425781 167.914062 151.734375 172.300781 C 150.3125 173.628906 148.609375 174.625 146.753906 175.207031 L 145.402344 175.632812 C 145.179688 175.699219 145.226562 176.023438 145.457031 176.03125 C 147.839844 176.152344 150.160156 176.785156 152.425781 177.496094 C 154.667969 178.199219 156.902344 178.902344 159.15625 179.5625 C 162.757812 180.625 166.359375 181.679688 169.960938 182.738281 C 171.683594 183.242188 173.402344 183.757812 175.128906 184.253906 L 183.101562 186.554688 C 183.101562 186.554688 194.226562 189.558594 197.816406 196.25 C 197.996094 196.578125 198.179688 196.90625 198.378906 197.222656 C 199.21875 198.554688 201.582031 203.101562 201.007812 211.34375 C 200.992188 211.550781 200.980469 211.761719 200.976562 211.972656 C 200.914062 213.808594 200.460938 224.058594 197.398438 227.527344 C 197.324219 227.605469 197.25 227.691406 197.179688 227.773438 C 196.742188 228.304688 194.738281 230.597656 191.953125 231.683594 C 191.777344 231.753906 191.636719 231.519531 191.789062 231.398438 C 192.929688 230.476562 193.925781 229.371094 194.710938 228.132812 C 196.542969 225.234375 197.210938 221.765625 197.558594 218.355469 C 197.964844 214.46875 197.996094 210.542969 197.667969 206.652344 C 197.382812 203.347656 196.679688 200.046875 195.050781 197.121094 C 193.546875 194.414062 191.191406 192.265625 188.621094 190.578125 C 188.15625 190.273438 187.683594 189.984375 187.203125 189.710938 C 183.472656 187.59375 179.242188 186.511719 175.140625 185.332031 C 172.058594 184.441406 168.980469 183.546875 165.914062 182.621094 C 161.558594 181.300781 157.203125 179.984375 152.847656 178.664062 C 148.832031 177.449219 144.644531 176.222656 140.507812 176.925781 C 140.425781 176.9375 140.351562 176.980469 140.308594 177.046875 C 140.191406 177.261719 140.523438 177.457031 140.773438 177.488281 C 142.460938 177.714844 144.140625 177.988281 145.808594 178.304688 C 150.035156 179.109375 154.207031 180.222656 158.273438 181.617188 C 161.699219 182.777344 165.054688 184.121094 168.492188 185.230469 C 172.632812 186.566406 176.859375 187.632812 180.882812 189.296875 C 183.605469 190.421875 186.285156 191.734375 188.527344 193.679688 C 191.457031 196.234375 193.476562 199.648438 194.496094 203.394531 C 195.648438 207.648438 195.660156 212.125 195.414062 216.527344 C 195.253906 219.382812 194.988281 222.269531 194.105469 224.992188 C 193.367188 227.285156 192.3125 227.738281 192.765625 225.402344 C 192.765625 225.402344 193.714844 222.996094 194.148438 210.742188 C 194.148438 210.742188 194.515625 201.398438 188.46875 195.125 C 188.46875 195.125 185.917969 191.039062 169.53125 186.554688 C 167.972656 186.105469 166.410156 185.660156 164.851562 185.210938 C 159.515625 183.671875 154.210938 182.042969 148.902344 180.410156 C 147.996094 180.132812 147.085938 179.851562 146.183594 179.574219 C 144.390625 179.027344 142.585938 178.472656 140.722656 178.277344 C 138.859375 178.078125 136.914062 178.257812 135.242188 179.105469 C 132.6875 180.40625 130.914062 183.113281 130.171875 185.828125 C 128.9375 190.355469 128.867188 195.132812 129.113281 199.792969 C 129.230469 201.960938 129.378906 204.121094 129.816406 206.253906 C 130.28125 208.523438 131.234375 210.429688 132.023438 212.5625 C 132.023438 212.5625 133.695312 217.089844 141.492188 221.246094 L 156.277344 227.519531 L 171.496094 233.0625 C 171.496094 233.0625 181.792969 236.742188 186.890625 234 C 187.058594 233.910156 187.238281 233.835938 187.421875 233.777344 C 188.191406 233.523438 188.894531 233.132812 189.644531 232.839844 C 190.59375 232.46875 191.578125 232.351562 192.546875 232.074219 C 193.417969 231.828125 194.261719 231.476562 195.082031 231.09375 C 197.671875 229.949219 200.386719 228.941406 202.890625 227.632812 C 204.414062 226.839844 205.832031 225.847656 207.101562 224.691406 C 210.828125 221.292969 213.484375 216.503906 214.085938 211.476562 C 214.125 211.136719 214.167969 210.796875 214.203125 210.457031 C 214.292969 209.5625 214.878906 208.792969 215.714844 208.460938 C 217.109375 207.914062 218.484375 207.3125 219.835938 206.652344 C 221.59375 205.792969 223.3125 204.839844 224.933594 203.738281 C 226.519531 202.660156 228.050781 201.429688 229.246094 199.910156 C 230.5 198.324219 231.054688 196.410156 231.324219 194.429688 C 231.558594 192.691406 231.597656 190.925781 231.46875 189.183594 " fill-opacity="1" fill-rule="nonzero"/></g></svg>