<svg xmlns="http://www.w3.org/2000/svg" xmlns:xlink="http://www.w3.org/1999/xlink" width="500" zoomAndPan="magnify" viewBox="0 0 375 374.999991" height="500" preserveAspectRatio="xMidYMid meet" version="1.0"><defs><clipPath id="df19bd18ba"><path d="M 108.066406 235.507812 L 137.316406 235.507812 L 137.316406 240.007812 L 108.066406 240.007812 Z M 108.066406 235.507812 " clip-rule="nonzero"/></clipPath><clipPath id="d3b4c874e7"><path d="M 237.683594 134.992188 L 266.933594 134.992188 L 266.933594 139.492188 L 237.683594 139.492188 Z M 237.683594 134.992188 " clip-rule="nonzero"/></clipPath><clipPath id="c4263e672b"><path d="M 110.109375 113 L 237.609375 113 L 237.609375 243.382812 L 110.109375 243.382812 Z M 110.109375 113 " clip-rule="nonzero"/></clipPath><clipPath id="58446a7701"><path d="M 110.109375 109.882812 L 237.609375 109.882812 L 237.609375 243.382812 L 110.109375 243.382812 Z M 110.109375 109.882812 " clip-rule="nonzero"/></clipPath></defs><rect x="-37.5" width="450" fill="#ffffff" y="-37.499999" height="449.999989" fill-opacity="1"/><rect x="-37.5" width="450" fill="#ffffff" y="-37.499999" height="449.999989" fill-opacity="1"/><rect x="-37.5" width="450" fill="#f4f1e9" y="-37.499999" height="449.999989" fill-opacity="1"/><path stroke-linecap="butt" transform="matrix(0.000000000000000092, 1.501943, -1.5, 0.000000000000000092, 121.940608, 117.906628)" fill="none" stroke-linejoin="miter" d="M -0.000251845 -0.000532372 L 78.400791 -0.000532372 " stroke="#000000" stroke-width="1" stroke-opacity="1" stroke-miterlimit="4"/><path stroke-linecap="butt" transform="matrix(0.000000000000000092, -1.501943, 1.5, 0.000000000000000092, 253.055496, 257.093362)" fill="none" stroke-linejoin="miter" d="M -0.000258653 -0.000538922 L 78.400784 -0.000538922 " stroke="#000000" stroke-width="1" stroke-opacity="1" stroke-miterlimit="4"/><path stroke-linecap="round" transform="matrix(-1.50929, -0.000000000000000185, 0.000000000000000184, -1.5, 171.137849, 234.75621)" fill="none" stroke-linejoin="miter" d="M 0.50026 -0.00106821 L 32.300705 -0.00106821 " stroke="#000000" stroke-width="1" stroke-opacity="1" stroke-miterlimit="4"/><path stroke-linecap="round" transform="matrix(1.50929, 0, 0, 1.5, 203.857448, 140.243765)" fill="none" stroke-linejoin="miter" d="M 0.500787 -0.00105179 L 32.301233 -0.00105179 " stroke="#000000" stroke-width="1" stroke-opacity="1" stroke-miterlimit="4"/><path stroke-linecap="round" transform="matrix(-1.497507, 0.000000000000000848, -0.00000000000000085, -1.5, 213.594878, 118.654679)" fill="none" stroke-linejoin="miter" d="M 0.498978 -0.00104706 L 60.606707 -0.00104706 " stroke="#000000" stroke-width="1" stroke-opacity="1" stroke-miterlimit="4"/><path stroke-linecap="round" transform="matrix(1.497507, 0, 0, 1.5, 161.397503, 256.345296)" fill="none" stroke-linejoin="miter" d="M 0.498848 -0.00103064 L 60.606577 -0.00103064 " stroke="#000000" stroke-width="1" stroke-opacity="1" stroke-miterlimit="4"/><g clip-path="url(#df19bd18ba)"><path fill="#f4f1e9" d="M 108.066406 235.507812 L 137.316406 235.507812 L 137.316406 240.007812 L 108.066406 240.007812 L 108.066406 235.507812 " fill-opacity="1" fill-rule="nonzero"/></g><g clip-path="url(#d3b4c874e7)"><path fill="#f4f1e9" d="M 266.933594 139.492188 L 237.683594 139.492188 L 237.683594 134.992188 L 266.933594 134.992188 L 266.933594 139.492188 " fill-opacity="1" fill-rule="nonzero"/></g><g clip-path="url(#c4263e672b)"><path fill="#ffffff" d="M 183.371094 184.714844 C 183.371094 184.714844 183.375 184.714844 183.375 184.714844 C 183.375 184.714844 183.371094 184.714844 183.371094 184.714844 L 181.832031 184.242188 L 180.925781 183.964844 Z M 190.710938 150.460938 L 190.734375 148.9375 Z M 175.738281 139.421875 C 175.742188 139.390625 175.742188 139.363281 175.742188 139.332031 C 175.742188 139.359375 175.742188 139.390625 175.738281 139.421875 Z M 176.375 133.183594 C 176.339844 133.167969 176.296875 133.15625 176.257812 133.148438 C 176.296875 133.15625 176.339844 133.167969 176.375 133.183594 Z M 176.210938 133.132812 C 176.152344 133.121094 176.09375 133.117188 176.035156 133.117188 C 176.09375 133.117188 176.152344 133.121094 176.210938 133.132812 Z M 176.960938 133.960938 L 176.960938 133.949219 L 176.964844 133.960938 Z M 175.65625 138.367188 L 175.335938 138.53125 L 175.554688 138.8125 C 175.464844 138.699219 175.347656 138.609375 175.214844 138.550781 L 175.207031 138.523438 L 174.933594 138.46875 L 175.214844 138.46875 C 175.441406 138.46875 175.652344 138.386719 175.824219 138.25 L 175.828125 138.25 C 175.777344 138.296875 175.71875 138.335938 175.65625 138.367188 Z M 176.421875 133.203125 C 176.460938 133.21875 176.496094 133.238281 176.527344 133.257812 C 176.496094 133.238281 176.460938 133.21875 176.421875 133.203125 Z M 176.574219 133.289062 C 176.605469 133.3125 176.632812 133.332031 176.660156 133.359375 C 176.632812 133.332031 176.605469 133.3125 176.574219 133.289062 Z M 176.769531 133.472656 C 176.75 133.449219 176.730469 133.425781 176.707031 133.402344 C 176.730469 133.425781 176.75 133.449219 176.769531 133.472656 Z M 176.851562 133.597656 C 176.839844 133.578125 176.832031 133.558594 176.816406 133.539062 C 176.832031 133.558594 176.839844 133.578125 176.851562 133.597656 Z M 175.648438 138.980469 L 175.632812 138.941406 C 175.660156 138.992188 175.679688 139.042969 175.699219 139.09375 C 175.6875 139.054688 175.667969 139.019531 175.648438 138.980469 Z M 175.730469 139.246094 C 175.722656 139.207031 175.71875 139.164062 175.707031 139.121094 C 175.722656 139.171875 175.730469 139.21875 175.734375 139.265625 Z M 175.65625 139.742188 C 175.652344 139.75 175.648438 139.757812 175.644531 139.761719 C 175.648438 139.757812 175.652344 139.75 175.65625 139.742188 Z M 213.761719 131.160156 C 213.648438 131.171875 213.53125 131.175781 213.414062 131.175781 C 213.53125 131.175781 213.648438 131.171875 213.761719 131.160156 Z M 213.988281 121.390625 C 213.988281 121.488281 213.90625 121.570312 213.804688 121.570312 C 213.707031 121.570312 213.625 121.488281 213.625 121.390625 C 213.625 121.289062 213.707031 121.207031 213.804688 121.207031 C 213.90625 121.207031 213.988281 121.289062 213.988281 121.390625 Z M 211.585938 118.109375 C 211.558594 118.121094 211.539062 118.132812 211.519531 118.140625 C 211.539062 118.132812 211.558594 118.121094 211.585938 118.109375 Z M 211.738281 118.042969 C 211.683594 118.066406 211.632812 118.085938 211.59375 118.105469 C 211.632812 118.085938 211.683594 118.066406 211.738281 118.042969 Z M 211.902344 117.984375 C 211.851562 118 211.800781 118.019531 211.753906 118.039062 C 211.800781 118.019531 211.847656 118 211.902344 117.984375 Z M 209.617188 127.082031 C 209.652344 127.085938 209.691406 127.085938 209.726562 127.089844 C 209.691406 127.085938 209.652344 127.085938 209.617188 127.082031 Z M 210.359375 127.0625 C 210.460938 127.046875 210.5625 127.027344 210.660156 127.003906 C 210.5625 127.027344 210.460938 127.046875 210.359375 127.0625 Z M 209.921875 127.097656 C 210.039062 127.097656 210.152344 127.089844 210.269531 127.074219 C 210.152344 127.089844 210.035156 127.097656 209.921875 127.097656 Z M 211.074219 126.878906 C 210.960938 126.921875 210.847656 126.957031 210.734375 126.988281 C 210.859375 126.953125 210.980469 126.914062 211.101562 126.867188 C 211.09375 126.871094 211.085938 126.875 211.074219 126.878906 Z M 211.164062 126.839844 C 211.253906 126.804688 211.34375 126.761719 211.429688 126.722656 C 211.339844 126.765625 211.25 126.804688 211.164062 126.839844 Z M 207.179688 121.570312 C 207.078125 121.570312 206.996094 121.488281 206.996094 121.390625 C 206.996094 121.289062 207.078125 121.207031 207.179688 121.207031 C 207.277344 121.207031 207.359375 121.289062 207.359375 121.390625 C 207.359375 121.488281 207.277344 121.570312 207.179688 121.570312 Z M 209.050781 124.417969 C 209.050781 124.417969 209.105469 123.90625 209.105469 123.90625 Z M 205.589844 118.351562 C 205.402344 118.5 205.273438 118.644531 205.199219 118.726562 C 205.296875 118.609375 205.429688 118.480469 205.589844 118.351562 Z M 228.738281 190.363281 L 229.421875 190.203125 L 229.425781 190.203125 Z M 231.738281 202.707031 C 231.730469 202.707031 231.722656 202.703125 231.71875 202.703125 L 231.816406 202.707031 Z M 208.25 210.785156 L 208.792969 212.5625 L 208.394531 211.261719 Z M 191.238281 193.421875 L 191.160156 193.371094 L 191.160156 193.335938 Z M 183.777344 184.8125 C 183.71875 184.800781 183.660156 184.789062 183.605469 184.777344 C 183.660156 184.789062 183.714844 184.800781 183.777344 184.8125 Z M 183.820312 184.820312 C 183.945312 184.84375 184.066406 184.863281 184.1875 184.875 C 184.0625 184.863281 183.9375 184.84375 183.816406 184.820312 Z M 184.625 184.898438 C 184.488281 184.898438 184.355469 184.890625 184.222656 184.878906 C 184.359375 184.890625 184.496094 184.898438 184.632812 184.898438 C 184.671875 184.898438 184.710938 184.898438 184.75 184.898438 L 185.164062 184.886719 L 184.75 184.898438 C 184.707031 184.898438 184.667969 184.898438 184.625 184.898438 Z M 186.492188 184.488281 L 188.480469 184.820312 L 186.679688 184.519531 L 186.65625 184.84375 L 185.3125 184.882812 L 185.390625 184.304688 L 185.015625 184.1875 L 185.417969 184.3125 Z M 194.992188 180.320312 L 212.949219 169.480469 L 204.464844 174.601562 L 207.953125 181.480469 L 204.464844 174.601562 L 194.992188 180.320312 L 193.410156 179.925781 Z M 225.445312 191.144531 L 228.507812 190.417969 Z M 199.328125 194.207031 L 196.167969 194.160156 L 199.269531 194.207031 L 199.320312 194.183594 L 199.371094 194.207031 L 199.554688 194.210938 L 199.328125 194.207031 L 204.820312 211.261719 Z M 194.085938 199.574219 C 194.121094 199.492188 194.15625 199.410156 194.191406 199.324219 C 194.15625 199.410156 194.121094 199.492188 194.085938 199.574219 Z M 193.941406 199.871094 C 193.957031 199.835938 193.976562 199.796875 193.992188 199.761719 C 193.976562 199.796875 193.957031 199.835938 193.941406 199.871094 Z M 195.34375 194.46875 L 195.363281 194.238281 L 195.347656 194.425781 C 195.292969 195.09375 195.058594 197.289062 194.21875 199.273438 C 195.003906 197.417969 195.265625 195.359375 195.34375 194.46875 Z M 214.425781 167.5625 L 216.15625 161.644531 L 215.621094 161.5 L 220.867188 142.003906 L 220.867188 142.011719 L 216.246094 159.183594 L 216.257812 159.1875 L 216.257812 159.191406 L 216.257812 159.1875 L 216.257812 159.191406 L 216.246094 159.1875 L 216.09375 159.742188 L 215.621094 161.5 L 216.441406 161.722656 L 216.726562 161.800781 L 227.164062 164.652344 L 216.15625 161.644531 L 214.425781 167.5625 C 214.222656 168.265625 213.792969 168.875 213.210938 169.308594 C 213.792969 168.875 214.222656 168.265625 214.425781 167.5625 Z M 190.738281 148.894531 L 190.734375 148.90625 L 190.734375 148.890625 Z M 189.929688 148.101562 C 189.859375 148.015625 189.792969 147.925781 189.730469 147.832031 C 189.792969 147.925781 189.859375 148.015625 189.929688 148.101562 Z M 190.148438 148.351562 L 190.148438 148.355469 C 190.085938 148.289062 190.027344 148.222656 189.96875 148.152344 C 190.027344 148.222656 190.089844 148.285156 190.148438 148.351562 Z M 188.375 141.40625 C 188.375 141.414062 188.355469 141.765625 188.367188 142.3125 L 188.367188 142.355469 C 188.394531 143.777344 188.621094 146.171875 189.691406 147.78125 C 188.144531 145.476562 188.363281 141.597656 188.375 141.40625 Z M 190.859375 140.113281 L 190.769531 146.316406 L 190.855469 140.109375 Z M 192.816406 194.089844 C 192.796875 194.085938 192.78125 194.082031 192.765625 194.082031 C 192.78125 194.082031 192.796875 194.085938 192.816406 194.089844 Z M 213.527344 140.992188 C 213.390625 141.03125 213.25 141.070312 213.109375 141.109375 C 213.25 141.070312 213.390625 141.035156 213.527344 140.992188 Z M 217.964844 138.472656 C 217.882812 138.550781 216.285156 140.140625 213.617188 140.964844 C 216.308594 140.125 217.945312 138.488281 217.964844 138.472656 Z M 212.476562 141.25 C 212.605469 141.226562 212.730469 141.199219 212.851562 141.171875 C 212.730469 141.199219 212.605469 141.226562 212.476562 141.25 Z M 211.828125 141.359375 C 211.792969 141.363281 211.757812 141.367188 211.722656 141.375 L 211.835938 141.359375 L 211.839844 141.355469 C 211.925781 141.34375 212.007812 141.328125 212.09375 141.316406 C 212.03125 141.328125 211.976562 141.339844 211.917969 141.347656 Z M 207.878906 140.765625 L 207.878906 140.769531 L 207.949219 140.800781 C 207.953125 140.800781 207.953125 140.800781 207.953125 140.800781 L 208.351562 140.980469 C 206.1875 140.164062 204.878906 138.542969 204.820312 138.472656 C 204.832031 138.484375 205.976562 139.894531 207.878906 140.765625 Z M 210.113281 194.015625 C 209.746094 194.046875 209.378906 194.070312 209.011719 194.09375 C 209.378906 194.070312 209.746094 194.046875 210.113281 194.015625 Z M 212.058594 193.820312 C 211.84375 193.84375 211.628906 193.863281 211.414062 193.886719 C 211.628906 193.863281 211.84375 193.84375 212.058594 193.820312 Z M 213.996094 193.566406 C 213.867188 193.585938 213.738281 193.601562 213.609375 193.617188 C 213.738281 193.601562 213.867188 193.585938 213.996094 193.566406 Z M 215.929688 193.261719 C 215.851562 193.273438 215.773438 193.285156 215.695312 193.296875 C 215.773438 193.285156 215.851562 193.273438 215.929688 193.261719 Z M 217.851562 192.898438 C 217.804688 192.910156 217.757812 192.917969 217.710938 192.925781 C 217.757812 192.917969 217.804688 192.910156 217.851562 192.898438 Z M 203.566406 194.269531 C 203.777344 194.269531 203.988281 194.273438 204.203125 194.273438 C 205.523438 194.273438 206.84375 194.234375 208.160156 194.15625 C 206.84375 194.234375 205.527344 194.273438 204.207031 194.273438 C 203.992188 194.273438 203.78125 194.269531 203.566406 194.269531 Z M 217.410156 159.472656 L 228.800781 162.292969 L 217.40625 159.472656 Z M 229.078125 162.363281 L 229.207031 162.394531 L 228.820312 162.296875 Z M 206.214844 137.507812 C 206.199219 137.492188 206.183594 137.472656 206.167969 137.457031 C 206.183594 137.472656 206.199219 137.492188 206.214844 137.507812 Z M 206.484375 137.796875 C 206.503906 137.816406 206.523438 137.839844 206.542969 137.859375 C 206.523438 137.839844 206.503906 137.816406 206.484375 137.796875 Z M 206.886719 138.175781 C 206.882812 138.175781 206.882812 138.171875 206.882812 138.171875 C 206.882812 138.171875 206.882812 138.175781 206.886719 138.175781 Z M 212.378906 139.757812 C 212.285156 139.773438 212.1875 139.78125 212.09375 139.792969 C 212.1875 139.78125 212.285156 139.773438 212.378906 139.757812 Z M 212.863281 139.667969 C 212.785156 139.683594 212.707031 139.703125 212.628906 139.714844 C 212.707031 139.703125 212.785156 139.683594 212.863281 139.667969 Z M 214.746094 138.933594 C 214.828125 138.886719 214.910156 138.835938 214.988281 138.785156 C 214.910156 138.835938 214.828125 138.886719 214.746094 138.933594 Z M 214.292969 139.171875 C 214.355469 139.144531 214.414062 139.113281 214.476562 139.078125 C 214.414062 139.113281 214.355469 139.144531 214.292969 139.171875 Z M 215.621094 138.34375 C 215.480469 138.457031 215.335938 138.5625 215.1875 138.660156 C 215.335938 138.5625 215.480469 138.457031 215.621094 138.34375 L 217.203125 137.082031 Z M 213.292969 139.554688 C 213.375 139.53125 213.457031 139.507812 213.535156 139.480469 C 213.457031 139.507812 213.375 139.53125 213.292969 139.554688 Z M 213.910156 139.34375 C 213.875 139.355469 213.839844 139.367188 213.800781 139.382812 C 213.863281 139.359375 213.921875 139.335938 213.984375 139.3125 C 213.960938 139.320312 213.933594 139.332031 213.910156 139.34375 Z M 211.414062 139.835938 C 211.570312 139.832031 211.726562 139.824219 211.878906 139.8125 C 211.722656 139.824219 211.570312 139.832031 211.414062 139.835938 Z M 209.8125 139.660156 C 209.835938 139.664062 209.851562 139.667969 209.871094 139.671875 C 209.851562 139.667969 209.835938 139.664062 209.8125 139.660156 Z M 209.488281 139.578125 C 209.53125 139.589844 209.578125 139.597656 209.621094 139.609375 C 209.578125 139.597656 209.53125 139.589844 209.488281 139.578125 Z M 209.167969 139.476562 C 209.214844 139.492188 209.261719 139.507812 209.308594 139.519531 C 209.261719 139.507812 209.214844 139.492188 209.167969 139.476562 Z M 208.855469 139.363281 C 208.890625 139.378906 208.925781 139.390625 208.960938 139.402344 C 208.925781 139.390625 208.890625 139.378906 208.855469 139.363281 Z M 208.554688 139.238281 C 208.570312 139.246094 208.585938 139.25 208.601562 139.257812 C 208.585938 139.25 208.570312 139.246094 208.554688 139.238281 Z M 208.253906 139.097656 C 208.257812 139.097656 208.257812 139.097656 208.261719 139.097656 C 208.257812 139.097656 208.257812 139.097656 208.253906 139.097656 Z M 209.976562 141.378906 C 210.101562 141.394531 210.230469 141.410156 210.355469 141.417969 C 210.230469 141.410156 210.101562 141.394531 209.976562 141.378906 Z M 210.785156 141.4375 C 210.703125 141.4375 210.621094 141.429688 210.535156 141.425781 C 210.621094 141.429688 210.707031 141.433594 210.789062 141.433594 Z M 207.574219 138.699219 C 207.589844 138.707031 207.605469 138.71875 207.617188 138.730469 C 207.605469 138.71875 207.589844 138.707031 207.574219 138.699219 Z M 207.269531 138.484375 C 207.257812 138.476562 207.246094 138.464844 207.234375 138.457031 C 207.257812 138.472656 207.28125 138.492188 207.304688 138.507812 C 207.292969 138.5 207.28125 138.492188 207.269531 138.484375 Z M 209.796875 141.355469 L 209.792969 141.351562 C 209.824219 141.355469 209.855469 141.363281 209.886719 141.367188 C 209.855469 141.363281 209.824219 141.359375 209.796875 141.355469 Z M 195.371094 194.148438 L 193.207031 194.117188 C 193.207031 194.117188 193.207031 194.117188 193.210938 194.117188 L 195.347656 194.148438 L 195.390625 194.148438 Z M 176.339844 190.652344 L 176.34375 190.648438 L 176.375 190.644531 L 176.371094 190.652344 Z M 172.839844 192.527344 L 172.871094 190.652344 Z M 116.71875 190.652344 L 116.753906 192.6875 Z M 113.21875 190.652344 L 113.214844 190.644531 L 113.25 190.648438 L 113.25 190.652344 Z M 173.808594 182.632812 L 154.765625 182.632812 L 178.496094 182.632812 C 178.496094 182.632812 178.5 182.632812 178.5 182.632812 Z M 159.84375 195.136719 L 159.484375 193.648438 L 159.492188 193.679688 L 159.503906 193.734375 L 160.058594 193.734375 L 160.050781 193.785156 L 160.015625 194.03125 Z M 153.367188 219.519531 C 152.941406 218.753906 152.515625 217.992188 152.082031 217.222656 L 151.640625 216.433594 L 156.828125 213.535156 L 156.972656 213.785156 C 157.175781 214.148438 157.378906 214.507812 157.578125 214.863281 C 157.921875 215.480469 158.265625 216.09375 158.605469 216.710938 C 159.34375 218.03125 160.105469 219.402344 160.875 220.738281 C 161.777344 222.308594 161.792969 223.90625 160.917969 225.496094 C 160.296875 226.617188 159.621094 227.679688 158.902344 228.800781 C 158.738281 229.054688 158.578125 229.308594 158.414062 229.5625 C 158.382812 229.277344 158.335938 229 158.230469 228.734375 C 157.875 227.84375 157.445312 226.929688 156.914062 225.945312 C 156.035156 224.3125 155.117188 222.667969 154.230469 221.078125 Z M 145.996094 228.992188 C 146.949219 227.765625 147.894531 226.53125 148.839844 225.296875 L 149.46875 224.476562 L 149.46875 226.160156 L 151.925781 226.160156 C 153 226.160156 154.074219 226.160156 155.152344 226.152344 C 155.296875 226.152344 155.347656 226.179688 155.417969 226.289062 C 156.074219 227.3125 156.734375 228.417969 156.976562 229.703125 C 157.191406 230.875 156.523438 231.816406 155.265625 232.097656 C 155.011719 232.15625 154.726562 232.183594 154.359375 232.183594 L 154.320312 232.183594 C 153.347656 232.179688 152.375 232.164062 151.402344 232.152344 L 149.957031 232.132812 C 149.890625 232.132812 149.820312 232.140625 149.746094 232.152344 C 149.714844 232.15625 149.683594 232.160156 149.652344 232.164062 L 149.410156 232.191406 L 149.273438 233.789062 L 148.070312 232.058594 C 147.390625 231.082031 146.714844 230.109375 146.035156 229.136719 C 146.019531 229.113281 145.972656 229.046875 145.964844 229.039062 C 145.964844 229.039062 145.96875 229.023438 145.996094 228.992188 Z M 139.578125 214.636719 C 139.570312 214.652344 139.558594 214.667969 139.546875 214.683594 L 134.445312 211.644531 L 137.605469 206.34375 C 138.011719 205.65625 138.421875 204.96875 138.835938 204.285156 C 139.660156 202.933594 140.945312 202.191406 142.554688 202.148438 C 142.84375 202.140625 143.128906 202.136719 143.414062 202.136719 C 144.453125 202.136719 145.515625 202.183594 146.542969 202.230469 C 146.875 202.246094 147.210938 202.261719 147.542969 202.273438 C 146.917969 202.738281 146.402344 203.308594 145.980469 203.996094 C 145.636719 204.558594 145.296875 205.121094 144.957031 205.6875 Z M 132.507812 226.28125 L 132.652344 226.28125 C 132.898438 226.277344 133.144531 226.277344 133.390625 226.277344 C 133.886719 226.277344 134.382812 226.28125 134.878906 226.285156 C 135.324219 226.289062 135.765625 226.292969 136.210938 226.292969 C 138.246094 226.296875 140.277344 226.296875 142.3125 226.300781 L 144.441406 226.300781 L 144.441406 232.25 L 144.308594 232.25 C 143.496094 232.25 142.6875 232.246094 141.875 232.246094 C 141.066406 232.242188 140.253906 232.242188 139.445312 232.242188 C 138.347656 232.242188 137.253906 232.246094 136.160156 232.257812 L 136.089844 232.257812 C 134.398438 232.257812 133.054688 231.527344 132.101562 230.089844 C 131.59375 229.320312 131.148438 228.480469 130.714844 227.667969 C 130.53125 227.320312 130.34375 226.96875 130.152344 226.621094 C 130 226.34375 129.859375 226.085938 129.730469 225.835938 C 130.511719 226.140625 131.402344 226.28125 132.507812 226.28125 Z M 129.214844 221.324219 C 129.625 220.515625 130.09375 219.71875 130.546875 218.945312 C 130.757812 218.59375 130.964844 218.238281 131.167969 217.882812 C 131.292969 217.667969 131.839844 216.707031 131.839844 216.707031 L 130.464844 215.777344 L 130.765625 215.75 C 131.445312 215.679688 132.105469 215.613281 132.765625 215.546875 C 133.273438 215.496094 133.777344 215.449219 134.285156 215.402344 C 134.898438 215.34375 135.507812 215.285156 136.121094 215.222656 C 136.148438 215.222656 136.171875 215.21875 136.195312 215.21875 C 136.210938 215.21875 136.226562 215.21875 136.226562 215.21875 C 136.234375 215.226562 136.242188 215.242188 136.257812 215.277344 C 136.84375 216.652344 137.4375 218.023438 138.03125 219.394531 L 138.507812 220.496094 L 137.015625 219.691406 L 136.515625 220.578125 C 136.21875 221.101562 135.925781 221.625 135.632812 222.152344 L 135.230469 222.875 C 134.898438 223.472656 134.570312 224.066406 134.230469 224.652344 C 134.199219 224.703125 134.121094 224.761719 134.09375 224.769531 C 133.582031 224.816406 133.128906 224.839844 132.710938 224.839844 C 131.910156 224.839844 131.203125 224.753906 130.546875 224.582031 C 129.824219 224.394531 129.3125 224 129.0625 223.449219 C 128.789062 222.835938 128.84375 222.039062 129.214844 221.324219 Z M 147.980469 203.796875 C 148.511719 203.21875 149.089844 202.921875 149.691406 202.921875 C 150.476562 202.921875 151.292969 203.464844 151.773438 204.308594 C 152.257812 205.152344 152.730469 206.003906 153.207031 206.855469 C 153.425781 207.25 153.644531 207.640625 153.863281 208.035156 C 153.917969 208.136719 154.277344 208.761719 154.277344 208.761719 L 155.78125 208.054688 L 155.195312 209.300781 C 154.578125 210.605469 153.960938 211.910156 153.355469 213.214844 C 153.328125 213.273438 153.3125 213.289062 153.296875 213.289062 C 153.296875 213.289062 153.296875 213.289062 153.292969 213.289062 C 153.273438 213.289062 153.253906 213.285156 153.230469 213.28125 C 151.59375 213.0625 149.957031 212.847656 148.277344 212.628906 L 147.605469 212.539062 L 149.0625 211.671875 L 146.964844 208.046875 C 146.71875 207.621094 146.464844 207.183594 146.226562 206.746094 C 146.195312 206.6875 146.183594 206.59375 146.191406 206.570312 C 146.699219 205.464844 147.285156 204.558594 147.980469 203.796875 Z M 130.664062 193.679688 L 130.679688 193.734375 L 131.234375 193.734375 L 131.1875 194.03125 L 131.019531 195.136719 Z M 145.078125 193.679688 L 145.089844 193.734375 L 145.644531 193.734375 L 145.429688 195.136719 Z M 145.78125 192.847656 L 146.121094 190.652344 Z M 237.195312 242.714844 L 230.339844 189.984375 L 230.039062 190.054688 L 230.339844 189.984375 L 230.355469 189.828125 L 230.398438 189.394531 L 234.019531 152.097656 L 233.445312 151.964844 L 233.644531 151.429688 L 234.203125 149.914062 L 234.226562 149.847656 L 234.632812 148.75 L 235.035156 147.65625 L 235.046875 147.628906 L 235.050781 147.617188 L 235.183594 147.253906 C 235.890625 145.714844 236.039062 143.816406 235.609375 141.914062 L 235.605469 141.898438 L 235.601562 141.894531 C 235.574219 141.769531 235.542969 141.640625 235.507812 141.515625 L 235.507812 141.511719 L 235.503906 141.492188 C 235.363281 140.988281 235.183594 140.492188 234.960938 140.019531 L 234.953125 139.996094 L 234.949219 139.996094 C 234.78125 139.636719 234.617188 139.324219 234.4375 139.042969 C 233.925781 138.230469 233.3125 137.558594 232.621094 137.046875 L 232.507812 136.773438 L 232.363281 136.832031 C 230.953125 135.574219 229.160156 134.871094 227.289062 134.839844 L 217.203125 134.683594 L 217.203125 128.4375 L 216.652344 129.34375 C 216.03125 130.375 214.992188 131.03125 213.824219 131.15625 C 215.6875 130.953125 217.167969 129.371094 217.199219 127.457031 L 217.199219 127.453125 L 217.203125 127.453125 L 217.203125 127.28125 L 217.207031 127.15625 L 217.203125 127.15625 L 217.203125 124.394531 L 217.5 124.390625 C 219.035156 124.382812 220.285156 123.128906 220.285156 121.59375 L 220.285156 120.425781 C 220.285156 119.726562 219.714844 119.15625 219.015625 119.15625 L 219 119.15625 L 219 119.152344 L 218.832031 119.15625 L 218.714844 119.152344 L 218.695312 119.15625 C 218.695312 119.15625 218.695312 119.160156 218.695312 119.160156 L 218.40625 119.167969 L 218.40625 119.191406 C 217.722656 119.34375 217.203125 119.957031 217.203125 120.679688 L 217.203125 117.375 C 217.203125 115.898438 216.351562 114.574219 215.019531 113.953125 L 215.019531 113.945312 L 214.835938 113.867188 L 214.425781 113.703125 L 214.425781 113.730469 C 214.097656 113.640625 213.757812 113.589844 213.414062 113.589844 L 211.089844 113.589844 L 211.039062 113.609375 C 210.277344 113.878906 209.609375 114.300781 209.046875 114.859375 L 207.519531 116.386719 C 206.855469 117.050781 205.976562 117.414062 205.039062 117.414062 C 204.472656 117.414062 203.929688 117.28125 203.421875 117.015625 L 203.003906 116.796875 L 202.988281 117.300781 C 202.988281 117.324219 202.984375 117.351562 202.984375 117.375 L 202.984375 127.390625 C 202.984375 128.898438 203.898438 130.265625 205.277344 130.863281 L 205.277344 130.871094 L 205.46875 130.941406 L 205.574219 130.980469 L 205.574219 130.984375 L 205.625 131 L 205.867188 131.089844 L 205.867188 131.074219 L 205.964844 131.089844 L 206.164062 131.144531 L 206.164062 131.125 L 206.460938 131.179688 L 206.460938 131.164062 C 206.566406 131.171875 206.671875 131.175781 206.773438 131.175781 L 210.929688 131.175781 L 205.867188 134.011719 L 205.867188 134.953125 L 205.246094 135.015625 L 202.371094 135.304688 L 199.625 135.582031 L 198.253906 135.71875 L 193.9375 136.15625 L 193.835938 136.167969 L 193.394531 136.207031 L 193.148438 136.046875 L 192.984375 136.296875 L 176.144531 137.921875 L 176.445312 137.59375 L 176.148438 137.625 L 176.1875 137.324219 L 176.113281 137.328125 C 176.082031 137.222656 176.03125 137.121094 175.960938 137.027344 C 175.792969 136.8125 175.535156 136.683594 175.257812 136.683594 L 175.621094 136.683594 C 176.050781 136.683594 176.433594 136.402344 176.527344 136.011719 C 176.597656 135.742188 176.539062 135.464844 176.367188 135.242188 C 176.195312 135.027344 175.941406 134.902344 175.664062 134.902344 L 176.070312 134.902344 C 176.308594 134.902344 176.535156 134.808594 176.707031 134.636719 C 176.714844 134.625 176.722656 134.609375 176.734375 134.601562 L 176.75 134.597656 L 176.820312 134.484375 C 176.824219 134.484375 176.824219 134.484375 176.824219 134.484375 L 176.957031 134.277344 L 176.960938 134.277344 L 176.960938 134.269531 L 177.007812 134.195312 L 177.015625 134.261719 L 177.378906 134.066406 C 177.59375 133.953125 177.773438 133.808594 177.914062 133.640625 C 178.285156 133.195312 178.339844 132.664062 178.339844 132.386719 L 178.34375 132.132812 L 175.8125 131.742188 L 175.378906 133.117188 L 169.460938 133.117188 C 169.234375 133.117188 169.015625 133.203125 168.851562 133.359375 L 167.921875 134.21875 C 166.484375 135.546875 165.632812 137.425781 165.582031 139.386719 L 165.582031 147.09375 L 171.367188 140.253906 L 174.792969 140.253906 L 174.804688 140.296875 L 175.089844 140.214844 L 175.121094 140.328125 L 175.308594 140.148438 L 175.371094 140.128906 L 175.363281 140.097656 L 175.472656 139.992188 L 175.503906 139.964844 L 175.449219 140.027344 L 175.480469 140.167969 C 176.085938 142.984375 177.453125 145.582031 179.421875 147.675781 L 183.039062 151.511719 L 190.703125 151.054688 L 190.710938 150.570312 L 190.710938 150.617188 L 190.703125 151.054688 L 190.703125 151.113281 L 190.695312 151.648438 L 190.582031 159.515625 L 192.1875 161.21875 L 192.480469 161.527344 L 192.773438 161.839844 L 192.914062 161.988281 L 193.359375 162.464844 L 193.6875 162.8125 C 195.832031 165.625 196.542969 169.199219 195.636719 172.617188 L 194.800781 175.765625 C 194.453125 177.085938 193.871094 178.320312 193.078125 179.4375 L 192.875 179.722656 L 192.796875 179.820312 L 192.617188 179.796875 L 192.453125 179.796875 L 192.324219 179.789062 L 192.324219 179.796875 L 192.316406 179.796875 C 192.3125 179.796875 192.027344 179.800781 192.027344 179.800781 L 192.027344 179.8125 C 191.824219 179.824219 191.628906 179.84375 191.449219 179.882812 L 190.582031 180.058594 L 190.253906 180.125 L 189.984375 180.179688 L 189.933594 180.191406 L 187.976562 180.589844 C 187.632812 180.660156 187.308594 180.808594 187.03125 181.027344 L 185.800781 181.988281 L 182.152344 182.710938 L 182.121094 183.285156 L 181.1875 182.996094 L 181.074219 182.925781 L 180.085938 183.125 L 180.054688 183.695312 L 179.082031 183.398438 L 179.082031 182.71875 L 179.035156 182.726562 L 178.507812 182.632812 L 179.027344 182.398438 C 178.761719 181.027344 177.558594 180.03125 176.160156 180.03125 L 113.429688 180.03125 C 112.078125 180.03125 110.910156 180.953125 110.59375 182.269531 L 110.507812 182.632812 L 110.53125 182.632812 L 110.511719 182.941406 L 110.511719 187.734375 C 110.511719 188.992188 111.328125 190.105469 112.515625 190.5 L 112.519531 190.503906 L 112.65625 190.542969 L 113.238281 190.703125 L 113.222656 190.664062 L 113.53125 191.113281 C 114.210938 192.113281 115.222656 192.855469 116.375 193.210938 L 116.761719 193.328125 L 116.765625 193.503906 L 116.769531 193.617188 L 117.558594 243.085938 L 172.03125 243.085938 L 172.824219 193.617188 L 172.824219 193.585938 L 172.828125 193.328125 L 173.21875 193.210938 C 174.367188 192.855469 175.378906 192.113281 176.058594 191.113281 L 176.367188 190.664062 L 176.351562 190.703125 L 176.933594 190.542969 L 177.074219 190.503906 L 177.078125 190.5 C 178.261719 190.105469 179.082031 188.992188 179.082031 187.734375 L 179.082031 184.34375 L 180.875 184.820312 L 185.976562 186.183594 L 189.601562 186.277344 L 189.898438 186.285156 L 190.054688 186.289062 L 190.492188 186.300781 L 190.65625 186.304688 L 191.40625 186.324219 L 192.265625 186.203125 L 191.40625 186.324219 L 190.195312 186.292969 L 190.125 190.9375 C 190.113281 191.542969 190.273438 192.125 190.589844 192.636719 L 190.589844 192.640625 L 190.640625 192.722656 L 191.15625 193.492188 L 190.84375 202.714844 L 189.484375 242.820312 L 208.625 243.085938 L 212.683594 225.34375 L 212.855469 225.910156 L 218.054688 242.980469 L 237.195312 242.714844 " fill-opacity="1" fill-rule="nonzero"/></g><g clip-path="url(#58446a7701)"><path fill="#211d1d" d="M 204.585938 138.65625 C 204.484375 138.527344 204.507812 138.339844 204.632812 138.238281 C 204.761719 138.136719 204.949219 138.15625 205.050781 138.285156 C 205.066406 138.308594 206.207031 139.699219 208.070312 140.53125 C 208.242188 140.605469 208.417969 140.679688 208.597656 140.742188 C 208.757812 140.800781 208.917969 140.851562 209.082031 140.898438 C 209.792969 141.09375 210.574219 141.191406 211.421875 141.113281 C 211.523438 141.101562 211.617188 141.085938 211.71875 141.074219 C 211.917969 141.050781 212.113281 141.019531 212.304688 140.984375 C 212.527344 140.945312 212.746094 140.898438 212.957031 140.84375 C 215.898438 140.101562 217.730469 138.285156 217.753906 138.261719 C 217.867188 138.144531 218.054688 138.144531 218.171875 138.257812 C 218.289062 138.375 218.289062 138.5625 218.175781 138.679688 C 218.074219 138.78125 215.722656 141.113281 211.957031 141.640625 C 211.800781 141.664062 211.640625 141.6875 211.476562 141.703125 C 211.449219 141.707031 211.421875 141.707031 211.398438 141.707031 C 211.226562 141.722656 211.058594 141.730469 210.890625 141.730469 C 210.863281 141.734375 210.835938 141.734375 210.808594 141.734375 C 210.402344 141.734375 210.007812 141.695312 209.632812 141.632812 C 209.484375 141.609375 209.339844 141.582031 209.199219 141.546875 C 209.042969 141.511719 208.886719 141.46875 208.738281 141.421875 C 206.21875 140.664062 204.671875 138.761719 204.585938 138.65625 Z M 128.949219 221.1875 C 129.550781 220.011719 130.253906 218.882812 130.914062 217.734375 C 131.085938 217.429688 131.261719 217.125 131.445312 216.800781 C 130.847656 216.394531 130.269531 216.003906 129.621094 215.566406 C 130.714844 215.457031 131.726562 215.351562 132.738281 215.253906 C 133.855469 215.144531 134.972656 215.039062 136.089844 214.929688 C 136.296875 214.90625 136.433594 214.933594 136.53125 215.160156 C 137.339844 217.0625 138.164062 218.957031 138.984375 220.851562 C 139.011719 220.917969 139.027344 220.988281 139.074219 221.140625 C 138.390625 220.773438 137.78125 220.441406 137.128906 220.089844 C 136.714844 220.832031 136.300781 221.5625 135.890625 222.292969 C 135.425781 223.128906 134.964844 223.972656 134.484375 224.800781 C 134.414062 224.921875 134.253906 225.050781 134.125 225.0625 C 132.898438 225.175781 131.675781 225.183594 130.472656 224.871094 C 128.492188 224.351562 128.253906 222.546875 128.949219 221.1875 Z M 152.03125 204.160156 C 152.742188 205.398438 153.425781 206.648438 154.121094 207.890625 C 154.207031 208.042969 154.292969 208.195312 154.398438 208.375 C 155.042969 208.074219 155.667969 207.78125 156.351562 207.457031 C 156.304688 207.59375 156.28125 207.683594 156.246094 207.761719 C 155.371094 209.621094 154.488281 211.476562 153.625 213.339844 C 153.523438 213.550781 153.414062 213.609375 153.191406 213.578125 C 151.066406 213.289062 148.9375 213.015625 146.71875 212.722656 C 147.390625 212.324219 148 211.960938 148.660156 211.566406 C 148.082031 210.566406 147.519531 209.597656 146.960938 208.628906 C 146.625 208.050781 146.285156 207.476562 145.964844 206.886719 C 145.898438 206.765625 145.867188 206.5625 145.921875 206.445312 C 146.398438 205.410156 146.988281 204.445312 147.761719 203.597656 C 149.386719 201.824219 151.230469 202.761719 152.03125 204.160156 Z M 157.265625 229.652344 C 157.53125 231.074219 156.632812 232.09375 155.332031 232.386719 C 155.003906 232.460938 154.65625 232.480469 154.320312 232.480469 C 152.867188 232.472656 151.414062 232.445312 149.960938 232.429688 C 149.878906 232.429688 149.792969 232.449219 149.683594 232.460938 C 149.625 233.164062 149.566406 233.847656 149.5 234.632812 C 149.058594 234 148.667969 233.4375 148.277344 232.875 C 147.449219 231.683594 146.621094 230.496094 145.792969 229.304688 C 145.679688 229.144531 145.601562 229.015625 145.761719 228.8125 C 147.058594 227.136719 148.347656 225.453125 149.636719 223.773438 C 149.65625 223.75 149.683594 223.730469 149.765625 223.652344 C 149.765625 224.417969 149.765625 225.117188 149.765625 225.867188 C 149.949219 225.867188 150.082031 225.867188 150.214844 225.867188 C 151.859375 225.863281 153.5 225.867188 155.144531 225.855469 C 155.386719 225.851562 155.535156 225.925781 155.667969 226.128906 C 156.371094 227.226562 157.023438 228.339844 157.265625 229.652344 Z M 144.738281 226.003906 C 144.738281 228.199219 144.738281 230.34375 144.738281 232.546875 C 144.597656 232.546875 144.453125 232.546875 144.308594 232.546875 C 141.59375 232.546875 138.875 232.523438 136.160156 232.554688 C 134.285156 232.574219 132.855469 231.765625 131.855469 230.253906 C 131.121094 229.144531 130.539062 227.933594 129.894531 226.765625 C 129.609375 226.253906 129.335938 225.734375 129.078125 225.191406 C 130.191406 225.847656 131.398438 225.996094 132.648438 225.984375 C 133.835938 225.972656 135.023438 225.996094 136.210938 225.996094 C 138.800781 226.003906 141.386719 226.003906 143.976562 226.003906 C 144.214844 226.007812 144.453125 226.003906 144.738281 226.003906 Z M 161.128906 220.589844 C 162.101562 222.277344 162.085938 223.988281 161.175781 225.640625 C 160.277344 227.269531 159.226562 228.8125 158.214844 230.441406 C 158.128906 229.863281 158.140625 229.3125 157.953125 228.84375 C 157.582031 227.898438 157.136719 226.980469 156.652344 226.085938 C 155.492188 223.933594 154.292969 221.800781 153.105469 219.660156 C 152.492188 218.554688 151.871094 217.449219 151.238281 216.320312 C 153.152344 215.25 155.03125 214.199219 156.941406 213.132812 C 157.246094 213.671875 157.542969 214.195312 157.835938 214.71875 C 158.933594 216.675781 160.007812 218.644531 161.128906 220.589844 Z M 146.230469 204.152344 C 145.792969 204.871094 145.359375 205.597656 144.921875 206.320312 C 143.226562 209.144531 141.53125 211.964844 139.832031 214.785156 C 139.773438 214.882812 139.707031 214.972656 139.632812 215.082031 C 137.765625 213.964844 135.914062 212.863281 134.042969 211.746094 C 134.996094 210.144531 135.933594 208.566406 136.875 206.988281 C 137.445312 206.035156 138.007812 205.078125 138.585938 204.132812 C 139.484375 202.648438 140.878906 201.898438 142.546875 201.851562 C 144.449219 201.796875 146.359375 201.945312 148.265625 202.003906 C 148.296875 202.007812 148.328125 202.027344 148.429688 202.0625 C 147.480469 202.582031 146.769531 203.277344 146.230469 204.152344 Z M 204.253906 125.234375 C 204.195312 125.175781 204.167969 125.101562 204.167969 125.023438 C 204.167969 124.984375 204.171875 124.945312 204.191406 124.910156 C 204.207031 124.875 204.226562 124.84375 204.253906 124.816406 C 204.28125 124.785156 204.3125 124.765625 204.351562 124.75 C 204.421875 124.71875 204.503906 124.71875 204.574219 124.75 C 204.613281 124.765625 204.648438 124.785156 204.675781 124.816406 C 204.703125 124.84375 204.722656 124.875 204.738281 124.910156 C 204.75 124.945312 204.757812 124.984375 204.757812 125.023438 C 204.757812 125.101562 204.730469 125.175781 204.675781 125.234375 C 204.644531 125.261719 204.613281 125.285156 204.574219 125.296875 C 204.539062 125.3125 204.503906 125.324219 204.464844 125.324219 C 204.382812 125.324219 204.308594 125.289062 204.253906 125.234375 Z M 216.035156 126.238281 C 215.976562 126.183594 215.949219 126.109375 215.949219 126.027344 C 215.949219 125.988281 215.957031 125.949219 215.972656 125.914062 C 215.988281 125.878906 216.007812 125.847656 216.035156 125.820312 C 216.066406 125.789062 216.09375 125.769531 216.132812 125.753906 C 216.203125 125.726562 216.285156 125.726562 216.359375 125.753906 C 216.398438 125.769531 216.429688 125.789062 216.457031 125.820312 C 216.480469 125.847656 216.503906 125.878906 216.519531 125.914062 C 216.53125 125.949219 216.542969 125.988281 216.542969 126.027344 C 216.542969 126.109375 216.511719 126.183594 216.457031 126.238281 C 216.425781 126.265625 216.394531 126.289062 216.359375 126.300781 C 216.324219 126.316406 216.285156 126.328125 216.246094 126.328125 C 216.164062 126.328125 216.089844 126.292969 216.035156 126.238281 Z M 214.851562 126.019531 C 214.863281 126.054688 214.875 126.09375 214.875 126.128906 C 214.875 126.210938 214.84375 126.285156 214.789062 126.339844 C 214.757812 126.371094 214.726562 126.390625 214.691406 126.40625 C 214.652344 126.421875 214.617188 126.429688 214.578125 126.429688 C 214.496094 126.429688 214.421875 126.398438 214.367188 126.339844 C 214.3125 126.285156 214.28125 126.210938 214.28125 126.128906 C 214.28125 126.09375 214.285156 126.054688 214.304688 126.019531 C 214.320312 125.984375 214.339844 125.949219 214.367188 125.925781 C 214.394531 125.894531 214.425781 125.871094 214.464844 125.859375 C 214.535156 125.828125 214.617188 125.828125 214.691406 125.859375 C 214.726562 125.871094 214.761719 125.894531 214.789062 125.925781 C 214.816406 125.949219 214.835938 125.984375 214.851562 126.019531 Z M 215.589844 127.902344 C 215.535156 127.84375 215.503906 127.769531 215.503906 127.691406 C 215.503906 127.652344 215.511719 127.613281 215.53125 127.578125 C 215.542969 127.542969 215.566406 127.511719 215.589844 127.484375 C 215.605469 127.46875 215.621094 127.464844 215.636719 127.453125 C 215.65625 127.441406 215.667969 127.425781 215.6875 127.417969 C 215.761719 127.386719 215.84375 127.386719 215.914062 127.417969 C 215.933594 127.425781 215.949219 127.441406 215.964844 127.453125 C 215.980469 127.464844 216 127.46875 216.011719 127.484375 C 216.039062 127.511719 216.058594 127.542969 216.074219 127.578125 C 216.089844 127.613281 216.097656 127.652344 216.097656 127.691406 C 216.097656 127.769531 216.070312 127.84375 216.011719 127.902344 C 215.980469 127.929688 215.949219 127.953125 215.914062 127.964844 C 215.878906 127.980469 215.839844 127.988281 215.800781 127.988281 C 215.722656 127.988281 215.648438 127.957031 215.589844 127.902344 Z M 214.761719 129.011719 C 214.832031 128.984375 214.914062 128.984375 214.984375 129.011719 C 215.023438 129.027344 215.058594 129.046875 215.082031 129.078125 C 215.109375 129.105469 215.132812 129.136719 215.148438 129.171875 C 215.160156 129.207031 215.167969 129.246094 215.167969 129.285156 C 215.167969 129.363281 215.140625 129.4375 215.082031 129.496094 C 215.054688 129.523438 215.019531 129.546875 214.984375 129.558594 C 214.949219 129.574219 214.910156 129.582031 214.875 129.582031 C 214.792969 129.582031 214.71875 129.550781 214.664062 129.496094 C 214.605469 129.4375 214.578125 129.363281 214.578125 129.285156 C 214.578125 129.246094 214.582031 129.207031 214.601562 129.171875 C 214.617188 129.136719 214.636719 129.105469 214.664062 129.078125 C 214.691406 129.046875 214.722656 129.027344 214.761719 129.011719 Z M 214.078125 127.578125 C 214.09375 127.613281 214.101562 127.652344 214.101562 127.691406 C 214.101562 127.773438 214.074219 127.84375 214.015625 127.902344 C 213.988281 127.933594 213.953125 127.953125 213.917969 127.96875 C 213.882812 127.980469 213.84375 127.992188 213.804688 127.992188 C 213.726562 127.992188 213.652344 127.957031 213.597656 127.902344 C 213.539062 127.84375 213.507812 127.773438 213.507812 127.691406 C 213.507812 127.652344 213.515625 127.613281 213.535156 127.578125 C 213.546875 127.542969 213.570312 127.511719 213.597656 127.484375 C 213.609375 127.46875 213.628906 127.464844 213.644531 127.453125 C 213.660156 127.441406 213.675781 127.425781 213.691406 127.417969 C 213.765625 127.390625 213.847656 127.390625 213.917969 127.417969 C 213.9375 127.425781 213.953125 127.441406 213.96875 127.453125 C 213.984375 127.464844 214.003906 127.46875 214.015625 127.484375 C 214.042969 127.511719 214.0625 127.542969 214.078125 127.578125 Z M 213.042969 129.253906 C 213.054688 129.289062 213.066406 129.328125 213.066406 129.363281 C 213.066406 129.445312 213.035156 129.519531 212.980469 129.574219 C 212.949219 129.605469 212.917969 129.625 212.882812 129.640625 C 212.84375 129.65625 212.808594 129.664062 212.769531 129.664062 C 212.6875 129.664062 212.613281 129.632812 212.558594 129.574219 C 212.503906 129.519531 212.472656 129.445312 212.472656 129.363281 C 212.472656 129.328125 212.476562 129.289062 212.496094 129.253906 C 212.511719 129.214844 212.53125 129.183594 212.558594 129.15625 C 212.589844 129.128906 212.617188 129.105469 212.65625 129.089844 C 212.726562 129.0625 212.808594 129.0625 212.882812 129.089844 C 212.917969 129.105469 212.953125 129.128906 212.980469 129.15625 C 213.007812 129.183594 213.027344 129.214844 213.042969 129.253906 Z M 211.722656 128.875 C 211.734375 128.910156 211.742188 128.949219 211.742188 128.988281 C 211.742188 129.066406 211.714844 129.144531 211.65625 129.199219 C 211.628906 129.226562 211.597656 129.25 211.5625 129.261719 C 211.527344 129.277344 211.488281 129.289062 211.449219 129.289062 C 211.367188 129.289062 211.292969 129.253906 211.238281 129.199219 C 211.179688 129.144531 211.152344 129.066406 211.152344 128.988281 C 211.152344 128.949219 211.160156 128.910156 211.175781 128.875 C 211.191406 128.839844 211.210938 128.808594 211.238281 128.78125 C 211.265625 128.75 211.296875 128.730469 211.335938 128.714844 C 211.40625 128.6875 211.488281 128.6875 211.5625 128.714844 C 211.597656 128.730469 211.632812 128.75 211.65625 128.78125 C 211.683594 128.808594 211.707031 128.839844 211.722656 128.875 Z M 212.230469 127.742188 C 212.246094 127.777344 212.253906 127.816406 212.253906 127.855469 C 212.253906 127.9375 212.226562 128.011719 212.167969 128.066406 C 212.140625 128.09375 212.105469 128.117188 212.070312 128.132812 C 212.035156 128.144531 211.996094 128.15625 211.960938 128.15625 C 211.878906 128.15625 211.804688 128.121094 211.75 128.066406 C 211.691406 128.011719 211.664062 127.9375 211.664062 127.855469 C 211.664062 127.816406 211.667969 127.777344 211.6875 127.742188 C 211.699219 127.707031 211.722656 127.675781 211.75 127.648438 C 211.777344 127.617188 211.808594 127.597656 211.847656 127.582031 C 211.917969 127.554688 212 127.554688 212.070312 127.582031 C 212.109375 127.597656 212.144531 127.617188 212.167969 127.648438 C 212.195312 127.675781 212.214844 127.707031 212.230469 127.742188 Z M 210.238281 129.390625 C 210.25 129.425781 210.261719 129.464844 210.261719 129.503906 C 210.261719 129.582031 210.230469 129.65625 210.175781 129.714844 C 210.144531 129.742188 210.113281 129.765625 210.078125 129.777344 C 210.042969 129.792969 210.003906 129.800781 209.964844 129.800781 C 209.882812 129.800781 209.808594 129.769531 209.753906 129.714844 C 209.699219 129.65625 209.667969 129.582031 209.667969 129.503906 C 209.667969 129.464844 209.675781 129.425781 209.691406 129.390625 C 209.707031 129.355469 209.726562 129.320312 209.753906 129.296875 C 209.785156 129.265625 209.8125 129.246094 209.851562 129.230469 C 209.921875 129.199219 210.007812 129.199219 210.078125 129.230469 C 210.117188 129.246094 210.148438 129.265625 210.175781 129.296875 C 210.203125 129.320312 210.222656 129.355469 210.238281 129.390625 Z M 206.8125 127.28125 C 206.828125 127.316406 206.835938 127.355469 206.835938 127.394531 C 206.835938 127.414062 206.828125 127.433594 206.824219 127.453125 C 206.8125 127.507812 206.792969 127.5625 206.75 127.605469 C 206.722656 127.632812 206.6875 127.65625 206.652344 127.671875 C 206.617188 127.6875 206.578125 127.695312 206.539062 127.695312 C 206.460938 127.695312 206.386719 127.660156 206.332031 127.605469 C 206.289062 127.5625 206.265625 127.507812 206.253906 127.453125 C 206.25 127.433594 206.246094 127.414062 206.246094 127.394531 C 206.246094 127.355469 206.25 127.316406 206.265625 127.28125 C 206.28125 127.246094 206.304688 127.214844 206.332031 127.1875 C 206.34375 127.171875 206.363281 127.167969 206.378906 127.15625 C 206.394531 127.144531 206.410156 127.128906 206.429688 127.121094 C 206.5 127.09375 206.582031 127.09375 206.652344 127.121094 C 206.671875 127.128906 206.6875 127.144531 206.703125 127.15625 C 206.71875 127.167969 206.738281 127.171875 206.75 127.1875 C 206.777344 127.214844 206.796875 127.246094 206.8125 127.28125 Z M 204.464844 128.453125 C 204.382812 128.453125 204.308594 128.417969 204.253906 128.363281 C 204.195312 128.304688 204.167969 128.230469 204.167969 128.152344 C 204.167969 128.113281 204.171875 128.074219 204.191406 128.039062 C 204.207031 128.003906 204.226562 127.972656 204.253906 127.945312 C 204.28125 127.914062 204.3125 127.894531 204.351562 127.878906 C 204.421875 127.851562 204.503906 127.851562 204.574219 127.878906 C 204.613281 127.894531 204.648438 127.914062 204.675781 127.945312 C 204.703125 127.972656 204.722656 128.003906 204.738281 128.039062 C 204.75 128.074219 204.757812 128.113281 204.757812 128.152344 C 204.757812 128.230469 204.730469 128.304688 204.675781 128.363281 C 204.644531 128.390625 204.613281 128.414062 204.574219 128.425781 C 204.539062 128.441406 204.503906 128.453125 204.464844 128.453125 Z M 209.128906 128.039062 C 209.144531 128.074219 209.15625 128.113281 209.15625 128.152344 C 209.15625 128.230469 209.125 128.308594 209.066406 128.363281 C 209.039062 128.394531 209.007812 128.414062 208.972656 128.429688 C 208.9375 128.441406 208.898438 128.453125 208.859375 128.453125 C 208.777344 128.453125 208.703125 128.417969 208.648438 128.363281 C 208.589844 128.308594 208.5625 128.230469 208.5625 128.152344 C 208.5625 128.113281 208.570312 128.074219 208.585938 128.039062 C 208.601562 128.003906 208.621094 127.972656 208.648438 127.945312 C 208.679688 127.917969 208.707031 127.894531 208.746094 127.878906 C 208.816406 127.851562 208.898438 127.851562 208.972656 127.878906 C 209.011719 127.894531 209.042969 127.917969 209.066406 127.945312 C 209.09375 127.972656 209.117188 128.003906 209.128906 128.039062 Z M 207.925781 129.46875 C 207.941406 129.503906 207.953125 129.542969 207.953125 129.582031 C 207.953125 129.660156 207.921875 129.734375 207.867188 129.792969 C 207.835938 129.820312 207.804688 129.84375 207.769531 129.855469 C 207.734375 129.871094 207.695312 129.882812 207.65625 129.882812 C 207.574219 129.882812 207.503906 129.847656 207.445312 129.792969 C 207.390625 129.734375 207.359375 129.660156 207.359375 129.582031 C 207.359375 129.542969 207.367188 129.503906 207.382812 129.46875 C 207.398438 129.433594 207.417969 129.402344 207.445312 129.375 C 207.476562 129.34375 207.503906 129.324219 207.542969 129.308594 C 207.613281 129.28125 207.695312 129.28125 207.769531 129.308594 C 207.808594 129.324219 207.839844 129.34375 207.867188 129.375 C 207.890625 129.402344 207.914062 129.433594 207.925781 129.46875 Z M 206.4375 128.578125 C 206.453125 128.613281 206.460938 128.652344 206.460938 128.691406 C 206.460938 128.769531 206.433594 128.84375 206.375 128.902344 C 206.347656 128.929688 206.3125 128.953125 206.277344 128.964844 C 206.242188 128.980469 206.203125 128.992188 206.164062 128.992188 C 206.085938 128.992188 206.011719 128.957031 205.953125 128.902344 C 205.898438 128.84375 205.867188 128.769531 205.867188 128.691406 C 205.867188 128.652344 205.875 128.613281 205.894531 128.578125 C 205.90625 128.542969 205.929688 128.511719 205.953125 128.484375 C 205.984375 128.453125 206.015625 128.433594 206.050781 128.417969 C 206.089844 128.402344 206.125 128.398438 206.164062 128.398438 C 206.203125 128.398438 206.242188 128.402344 206.277344 128.417969 C 206.316406 128.433594 206.347656 128.453125 206.375 128.484375 C 206.402344 128.511719 206.421875 128.542969 206.4375 128.578125 Z M 205.902344 126.542969 C 205.867188 126.558594 205.828125 126.566406 205.789062 126.566406 C 205.710938 126.566406 205.636719 126.53125 205.578125 126.476562 C 205.523438 126.421875 205.496094 126.347656 205.496094 126.265625 C 205.496094 126.230469 205.5 126.191406 205.519531 126.152344 C 205.53125 126.117188 205.554688 126.085938 205.578125 126.058594 C 205.609375 126.03125 205.640625 126.007812 205.679688 125.992188 C 205.75 125.964844 205.832031 125.964844 205.902344 125.992188 C 205.941406 126.007812 205.972656 126.03125 206 126.058594 C 206.027344 126.085938 206.046875 126.117188 206.0625 126.152344 C 206.078125 126.191406 206.085938 126.230469 206.085938 126.265625 C 206.085938 126.347656 206.058594 126.421875 206 126.476562 C 205.972656 126.507812 205.9375 126.527344 205.902344 126.542969 Z M 204.253906 126.773438 C 204.195312 126.71875 204.167969 126.644531 204.167969 126.5625 C 204.167969 126.523438 204.171875 126.484375 204.191406 126.449219 C 204.207031 126.414062 204.226562 126.382812 204.253906 126.355469 C 204.28125 126.328125 204.3125 126.308594 204.351562 126.292969 C 204.421875 126.261719 204.503906 126.261719 204.574219 126.292969 C 204.613281 126.308594 204.648438 126.328125 204.675781 126.355469 C 204.699219 126.382812 204.722656 126.414062 204.738281 126.449219 C 204.75 126.484375 204.757812 126.523438 204.757812 126.5625 C 204.757812 126.644531 204.730469 126.71875 204.675781 126.773438 C 204.644531 126.804688 204.613281 126.824219 204.574219 126.839844 C 204.539062 126.851562 204.5 126.863281 204.464844 126.863281 C 204.382812 126.863281 204.308594 126.832031 204.253906 126.773438 Z M 212.28125 125.804688 C 212.40625 125.699219 212.59375 125.714844 212.699219 125.839844 C 212.804688 125.960938 212.789062 126.152344 212.664062 126.253906 C 212.371094 126.503906 212.082031 126.699219 211.800781 126.859375 C 211.589844 126.980469 211.382812 127.078125 211.179688 127.15625 C 210.734375 127.324219 210.3125 127.394531 209.921875 127.394531 C 209.453125 127.394531 209.03125 127.296875 208.667969 127.15625 C 208.441406 127.066406 208.234375 126.964844 208.054688 126.859375 C 207.542969 126.558594 207.246094 126.238281 207.234375 126.230469 C 207.125 126.105469 207.136719 125.917969 207.257812 125.808594 C 207.378906 125.699219 207.566406 125.710938 207.675781 125.832031 C 207.757812 125.921875 209.699219 127.988281 212.28125 125.804688 Z M 208.757812 124.382812 L 209.195312 120.238281 C 209.210938 120.074219 209.355469 119.953125 209.519531 119.972656 C 209.683594 119.988281 209.800781 120.136719 209.78125 120.296875 L 209.347656 124.445312 L 210.367188 123.914062 C 210.511719 123.839844 210.691406 123.898438 210.761719 124.042969 C 210.835938 124.191406 210.777344 124.367188 210.632812 124.441406 L 209.59375 124.960938 C 209.511719 125.003906 209.421875 125.023438 209.335938 125.023438 C 209.21875 125.023438 209.101562 124.988281 209.003906 124.921875 C 208.828125 124.800781 208.734375 124.59375 208.757812 124.382812 Z M 207.179688 121.867188 C 206.914062 121.867188 206.699219 121.652344 206.699219 121.390625 C 206.699219 121.125 206.914062 120.914062 207.179688 120.914062 C 207.441406 120.914062 207.65625 121.125 207.65625 121.390625 C 207.65625 121.652344 207.441406 121.867188 207.179688 121.867188 Z M 214.285156 121.390625 C 214.285156 121.652344 214.070312 121.867188 213.804688 121.867188 C 213.542969 121.867188 213.328125 121.652344 213.328125 121.390625 C 213.328125 121.125 213.542969 120.914062 213.804688 120.914062 C 214.070312 120.914062 214.285156 121.125 214.285156 121.390625 Z M 204.964844 119.023438 C 204.835938 118.925781 204.8125 118.738281 204.910156 118.609375 C 205.414062 117.957031 206.789062 116.960938 208.398438 117.855469 C 208.542969 117.933594 208.59375 118.117188 208.511719 118.257812 C 208.433594 118.398438 208.253906 118.453125 208.109375 118.371094 C 206.550781 117.503906 205.425781 118.914062 205.378906 118.972656 C 205.320312 119.046875 205.234375 119.085938 205.144531 119.085938 C 205.082031 119.085938 205.019531 119.066406 204.964844 119.023438 Z M 211.191406 118.324219 C 211.109375 118.183594 211.160156 118.003906 211.300781 117.921875 C 212 117.523438 213.585938 117.148438 214.722656 118.46875 C 214.753906 118.503906 214.78125 118.53125 214.808594 118.570312 C 214.910156 118.699219 214.890625 118.882812 214.761719 118.984375 C 214.75 118.996094 214.734375 118.996094 214.722656 119.003906 C 214.675781 119.03125 214.628906 119.046875 214.578125 119.046875 C 214.488281 119.046875 214.402344 119.007812 214.34375 118.933594 C 213.230469 117.523438 211.660156 118.398438 211.59375 118.4375 C 211.453125 118.519531 211.273438 118.46875 211.191406 118.324219 Z M 191.4375 193.894531 C 191.964844 194.226562 192.570312 194.410156 193.203125 194.414062 C 193.203125 194.414062 193.910156 194.425781 195.046875 194.441406 C 194.925781 195.792969 194.257812 201.109375 191.152344 202.304688 Z M 190.484375 186.59375 L 191.398438 186.617188 C 191.402344 186.617188 191.402344 186.617188 191.40625 186.617188 C 191.417969 186.617188 191.433594 186.617188 191.445312 186.617188 L 192.265625 186.5 L 192.5625 186.460938 L 192.859375 186.417969 L 208.800781 184.195312 C 208.886719 184.183594 208.964844 184.132812 209.011719 184.058594 C 209.058594 183.984375 209.066406 183.890625 209.042969 183.808594 L 208.332031 181.679688 L 219.050781 178.542969 C 221.394531 177.859375 223.277344 176.175781 224.226562 173.925781 L 227.914062 165.164062 L 228.546875 165.335938 C 228.570312 165.34375 228.597656 165.347656 228.625 165.347656 C 228.746094 165.347656 228.855469 165.269531 228.902344 165.152344 L 232.292969 155.949219 L 232.84375 154.460938 L 233.390625 152.96875 L 233.722656 152.066406 L 230.074219 189.664062 L 230.066406 189.746094 L 229.402344 189.902344 L 228.488281 190.117188 L 220.613281 191.984375 L 220.289062 192.058594 L 219.96875 192.132812 L 219.949219 192.140625 C 214.457031 193.4375 208.808594 194.054688 203.167969 193.96875 C 203.160156 193.96875 203.152344 193.96875 203.144531 193.96875 C 201.890625 193.949219 200.625 193.929688 199.433594 193.910156 C 199.371094 193.886719 199.296875 193.875 199.226562 193.898438 C 199.222656 193.902344 199.21875 193.90625 199.210938 193.910156 C 197.765625 193.886719 196.449219 193.867188 195.417969 193.855469 C 195.40625 193.851562 195.394531 193.84375 195.382812 193.84375 C 195.363281 193.84375 195.347656 193.851562 195.332031 193.851562 C 194.035156 193.835938 193.214844 193.824219 193.210938 193.824219 C 192.566406 193.816406 191.953125 193.59375 191.460938 193.1875 C 191.375 193.121094 191.292969 193.046875 191.21875 192.964844 C 191.203125 192.949219 191.1875 192.933594 191.175781 192.917969 C 191.070312 192.804688 190.972656 192.683594 190.890625 192.558594 C 190.574219 192.082031 190.410156 191.527344 190.421875 190.945312 Z M 179.375 183.796875 L 181.746094 184.523438 L 183.28125 184.996094 C 183.71875 185.128906 184.167969 185.195312 184.625 185.195312 C 184.667969 185.195312 184.714844 185.195312 184.757812 185.195312 L 186.664062 185.140625 C 186.816406 185.132812 186.933594 185.011719 186.945312 184.863281 L 188.429688 185.109375 C 188.445312 185.113281 188.464844 185.113281 188.480469 185.113281 C 188.621094 185.113281 188.746094 185.011719 188.769531 184.867188 C 188.796875 184.707031 188.6875 184.554688 188.527344 184.527344 L 186.542969 184.199219 L 185.488281 184.023438 L 182.210938 183.003906 L 185.8125 182.289062 L 189.949219 182.722656 L 190.015625 182.730469 L 190.246094 182.753906 L 190.542969 182.785156 L 190.828125 182.816406 C 190.839844 182.816406 190.851562 182.820312 190.863281 182.820312 C 191.011719 182.820312 191.140625 182.707031 191.15625 182.554688 C 191.171875 182.390625 191.054688 182.246094 190.890625 182.230469 L 190.769531 182.214844 L 190.550781 182.191406 L 189.957031 182.128906 L 186.558594 181.769531 L 187.214844 181.261719 C 187.453125 181.070312 187.738281 180.941406 188.035156 180.878906 L 189.980469 180.484375 L 190.277344 180.421875 L 190.574219 180.363281 L 191.507812 180.171875 C 191.773438 180.117188 192.046875 180.097656 192.320312 180.09375 C 192.417969 180.09375 192.515625 180.097656 192.617188 180.105469 C 192.714844 180.113281 192.8125 180.117188 192.910156 180.132812 C 192.917969 180.132812 192.921875 180.132812 192.925781 180.132812 C 193.066406 180.152344 193.203125 180.179688 193.339844 180.210938 L 194.917969 180.605469 C 194.996094 180.625 195.078125 180.613281 195.144531 180.574219 L 204.34375 175.019531 L 207.675781 181.59375 L 208.367188 183.660156 L 192.863281 185.820312 L 192.566406 185.863281 L 192.269531 185.902344 L 191.390625 186.027344 L 190.496094 186.003906 L 189.902344 185.988281 L 186.019531 185.886719 L 180.914062 184.523438 L 179.375 184.113281 Z M 213.101562 169.734375 C 213.882812 169.261719 214.457031 168.519531 214.710938 167.644531 L 216.359375 162.007812 L 227.335938 165.007812 L 223.679688 173.695312 C 222.800781 175.78125 221.054688 177.339844 218.882812 177.972656 L 208.105469 181.128906 L 204.851562 174.714844 Z M 216.523438 161.4375 L 216.238281 161.363281 L 215.984375 161.292969 L 216.382812 159.820312 L 216.457031 159.542969 L 216.460938 159.546875 L 217.039062 159.6875 L 228.394531 162.496094 L 228.683594 162.570312 L 228.976562 162.644531 L 229.175781 162.691406 L 228.4375 164.691406 L 228.144531 164.613281 L 227.855469 164.535156 L 227.570312 164.457031 Z M 190.292969 158.777344 L 183.691406 151.769531 L 190.402344 151.371094 Z M 181.074219 183.269531 L 184.929688 184.46875 L 185.304688 184.585938 L 184.742188 184.601562 C 184.4375 184.609375 184.136719 184.582031 183.839844 184.523438 C 183.710938 184.5 183.582031 184.46875 183.457031 184.429688 L 180.144531 183.414062 L 181.019531 183.238281 C 181.039062 183.25 181.054688 183.261719 181.074219 183.269531 Z M 211.007812 131.472656 L 213.414062 131.472656 C 214.894531 131.472656 216.191406 130.679688 216.90625 129.5 L 216.90625 136.941406 L 215.4375 138.109375 C 214.039062 139.226562 212.289062 139.714844 210.515625 139.484375 C 208.773438 139.257812 207.234375 138.371094 206.164062 136.984375 L 206.164062 134.183594 Z M 219.992188 121.59375 C 219.992188 122.96875 218.875 124.089844 217.5 124.097656 L 217.5 120.679688 C 217.5 120.011719 218.039062 119.46875 218.703125 119.453125 C 218.714844 119.453125 218.722656 119.453125 218.730469 119.453125 L 219.015625 119.453125 C 219.550781 119.453125 219.992188 119.886719 219.992188 120.425781 Z M 203.28125 117.375 C 203.28125 117.34375 203.285156 117.3125 203.285156 117.277344 C 203.8125 117.550781 204.40625 117.710938 205.039062 117.710938 C 206.046875 117.710938 207.015625 117.308594 207.726562 116.597656 L 209.257812 115.066406 C 209.792969 114.53125 210.4375 114.136719 211.140625 113.886719 L 213.414062 113.886719 C 213.878906 113.886719 214.320312 113.980469 214.722656 114.144531 C 216.003906 114.660156 216.90625 115.914062 216.90625 117.375 L 216.90625 127.390625 C 216.90625 127.414062 216.902344 127.433594 216.902344 127.453125 C 216.871094 129.347656 215.320312 130.882812 213.414062 130.882812 L 206.773438 130.882812 C 206.566406 130.882812 206.363281 130.859375 206.164062 130.824219 C 206.066406 130.808594 205.964844 130.785156 205.867188 130.757812 C 205.769531 130.730469 205.667969 130.699219 205.574219 130.664062 C 204.238281 130.175781 203.28125 128.894531 203.28125 127.390625 Z M 194.160156 136.433594 L 198.328125 136.011719 L 199.652344 135.878906 L 202.398438 135.601562 L 205.273438 135.308594 L 205.574219 135.28125 L 205.574219 137.082031 C 205.574219 137.144531 205.59375 137.210938 205.632812 137.257812 C 206.050781 137.824219 206.542969 138.3125 207.089844 138.722656 C 207.324219 138.894531 207.5625 139.050781 207.8125 139.195312 C 208.609375 139.648438 209.5 139.949219 210.441406 140.070312 C 211.382812 140.191406 212.316406 140.128906 213.203125 139.890625 C 213.480469 139.816406 213.753906 139.726562 214.023438 139.617188 C 214.65625 139.359375 215.257812 139.011719 215.804688 138.574219 L 217.386719 137.3125 C 217.457031 137.257812 217.5 137.171875 217.5 137.082031 L 217.5 134.984375 L 227.285156 135.136719 C 229.210938 135.164062 230.980469 135.9375 232.304688 137.179688 L 232.347656 137.160156 C 232.367188 137.210938 232.398438 137.253906 232.441406 137.285156 C 233.128906 137.789062 233.714844 138.445312 234.1875 139.199219 C 234.375 139.5 234.542969 139.820312 234.695312 140.144531 C 234.90625 140.601562 235.082031 141.078125 235.214844 141.570312 C 235.253906 141.707031 235.289062 141.84375 235.320312 141.984375 C 235.714844 143.726562 235.621094 145.585938 234.914062 147.128906 L 234.757812 147.550781 L 234.355469 148.648438 L 233.949219 149.746094 L 233.914062 149.839844 L 233.363281 151.328125 L 233 152.320312 L 232.816406 152.820312 L 230.738281 158.457031 L 229.382812 162.132812 L 229.207031 162.089844 L 228.917969 162.019531 L 228.625 161.945312 L 217.203125 159.117188 L 216.914062 159.046875 L 216.628906 158.976562 L 216.609375 158.972656 L 221.15625 142.082031 C 221.175781 142.015625 221.164062 141.949219 221.140625 141.890625 C 221.105469 141.808594 221.039062 141.742188 220.949219 141.71875 C 220.789062 141.675781 220.628906 141.769531 220.585938 141.925781 L 215.335938 161.421875 C 215.292969 161.582031 215.386719 161.742188 215.542969 161.785156 L 215.789062 161.851562 L 214.144531 167.480469 C 213.929688 168.210938 213.449219 168.832031 212.796875 169.226562 L 194.945312 180.003906 L 193.484375 179.636719 C 193.429688 179.625 193.375 179.617188 193.320312 179.605469 C 194.113281 178.492188 194.722656 177.222656 195.085938 175.839844 L 195.921875 172.691406 C 196.847656 169.207031 196.105469 165.488281 193.914062 162.621094 L 193.070312 161.722656 L 192.777344 161.414062 L 192.484375 161.101562 L 190.878906 159.398438 L 190.996094 151.335938 L 191.003906 150.742188 L 191.03125 148.949219 C 191.042969 148.898438 191.046875 148.847656 191.03125 148.796875 L 191.15625 140.109375 C 191.160156 140.003906 191.101562 139.914062 191.019531 139.859375 C 190.972656 139.832031 190.921875 139.808594 190.863281 139.808594 C 190.863281 139.808594 190.863281 139.808594 190.859375 139.808594 C 190.699219 139.808594 190.566406 139.9375 190.5625 140.101562 L 190.453125 147.9375 L 190.589844 148.367188 C 190.542969 148.328125 190.492188 148.285156 190.445312 148.238281 C 188.9375 146.746094 188.6875 143.78125 188.660156 142.304688 C 188.652344 141.777344 188.671875 141.441406 188.671875 141.425781 C 188.683594 141.261719 188.558594 141.125 188.394531 141.113281 C 188.230469 141.105469 188.089844 141.226562 188.082031 141.390625 C 188.066406 141.621094 187.761719 147.007812 190.4375 149.007812 L 190.410156 150.777344 L 183.160156 151.207031 L 179.636719 147.472656 C 177.695312 145.40625 176.363281 142.859375 175.769531 140.105469 C 175.878906 139.976562 175.960938 139.824219 176.003906 139.652344 C 176.09375 139.296875 176.015625 138.921875 175.789062 138.632812 C 175.980469 138.535156 176.140625 138.386719 176.253906 138.210938 L 193.15625 136.578125 L 193.234375 136.453125 C 193.289062 136.492188 193.351562 136.511719 193.421875 136.507812 L 193.867188 136.460938 Z M 177.238281 133.808594 C 177.140625 133.25 176.636719 132.820312 176.035156 132.820312 L 175.785156 132.820312 L 176.019531 132.074219 L 178.046875 132.386719 C 178.046875 132.640625 177.992188 133.085938 177.6875 133.449219 C 177.566406 133.59375 177.414062 133.710938 177.238281 133.808594 Z M 165.878906 146.195312 L 165.878906 139.386719 C 165.925781 137.511719 166.746094 135.710938 168.121094 134.4375 L 169.050781 133.578125 C 169.164062 133.472656 169.308594 133.414062 169.460938 133.414062 L 176.035156 133.414062 C 176.375 133.414062 176.664062 133.679688 176.667969 133.992188 C 176.667969 133.996094 176.664062 134.003906 176.664062 134.007812 C 176.664062 134.125 176.632812 134.234375 176.574219 134.328125 C 176.550781 134.363281 176.523438 134.394531 176.492188 134.425781 C 176.378906 134.542969 176.230469 134.605469 176.070312 134.605469 L 172.019531 134.605469 C 171.855469 134.605469 171.722656 134.738281 171.722656 134.902344 C 171.722656 135.066406 171.855469 135.195312 172.019531 135.195312 L 175.664062 135.195312 C 175.847656 135.195312 176.019531 135.28125 176.132812 135.425781 C 176.25 135.574219 176.289062 135.757812 176.242188 135.941406 C 176.175781 136.199219 175.914062 136.390625 175.621094 136.390625 L 172.671875 136.390625 C 172.507812 136.390625 172.375 136.523438 172.375 136.683594 C 172.375 136.847656 172.507812 136.980469 172.671875 136.980469 L 175.257812 136.980469 C 175.441406 136.980469 175.613281 137.066406 175.730469 137.210938 C 175.828125 137.339844 175.867188 137.496094 175.84375 137.652344 C 175.84375 137.675781 175.84375 137.699219 175.835938 137.722656 C 175.8125 137.816406 175.765625 137.894531 175.703125 137.964844 C 175.585938 138.09375 175.40625 138.175781 175.214844 138.175781 L 171.222656 138.175781 C 171.058594 138.175781 170.925781 138.308594 170.925781 138.46875 C 170.925781 138.484375 170.929688 138.492188 170.929688 138.503906 C 170.949219 138.652344 171.070312 138.765625 171.222656 138.765625 L 174.851562 138.765625 C 174.894531 138.765625 174.933594 138.773438 174.972656 138.78125 C 175.109375 138.808594 175.234375 138.882812 175.324219 138.996094 C 175.339844 139.019531 175.351562 139.042969 175.367188 139.066406 C 175.414062 139.148438 175.441406 139.238281 175.445312 139.332031 C 175.449219 139.390625 175.445312 139.449219 175.429688 139.511719 C 175.402344 139.613281 175.347656 139.703125 175.269531 139.777344 C 175.195312 139.847656 175.105469 139.898438 175.003906 139.929688 C 174.941406 139.949219 174.878906 139.960938 174.808594 139.960938 L 171.367188 139.960938 C 171.277344 139.960938 171.195312 139.996094 171.140625 140.066406 L 165.878906 146.285156 Z M 113.429688 180.328125 L 176.160156 180.328125 C 177.4375 180.328125 178.503906 181.246094 178.734375 182.453125 C 178.683594 182.386719 178.601562 182.339844 178.507812 182.339844 L 110.882812 182.339844 C 111.160156 181.1875 112.195312 180.328125 113.429688 180.328125 Z M 130.980469 193.441406 L 130.953125 193.609375 L 130.910156 193.441406 L 130.839844 193.144531 L 130.304688 190.945312 L 131.363281 190.945312 L 131.023438 193.144531 Z M 145.390625 193.441406 L 145.367188 193.609375 L 145.324219 193.441406 L 145.253906 193.144531 L 144.71875 190.945312 L 145.773438 190.945312 L 145.4375 193.144531 Z M 159.804688 193.441406 L 159.777344 193.609375 L 159.738281 193.441406 L 159.664062 193.144531 L 159.132812 190.945312 L 160.1875 190.945312 L 159.851562 193.144531 Z M 113.777344 190.945312 L 116.429688 190.945312 L 116.460938 192.925781 C 115.355469 192.589844 114.414062 191.878906 113.777344 190.945312 Z M 172.527344 193.664062 L 171.742188 242.789062 L 117.851562 242.789062 L 117.066406 193.664062 L 117.058594 193.363281 L 117.054688 193.0625 L 117.023438 190.945312 L 129.695312 190.945312 L 130.230469 193.144531 L 130.300781 193.441406 L 130.375 193.734375 L 130.730469 195.203125 C 130.761719 195.335938 130.882812 195.429688 131.019531 195.429688 C 131.023438 195.429688 131.027344 195.429688 131.03125 195.429688 C 131.171875 195.425781 131.289062 195.320312 131.308594 195.179688 L 131.53125 193.734375 L 131.578125 193.441406 L 131.625 193.144531 L 131.960938 190.945312 L 144.109375 190.945312 L 144.644531 193.144531 L 144.714844 193.441406 L 144.785156 193.734375 L 145.144531 195.203125 C 145.175781 195.335938 145.292969 195.429688 145.429688 195.429688 C 145.433594 195.429688 145.4375 195.429688 145.445312 195.429688 C 145.585938 195.425781 145.703125 195.320312 145.722656 195.179688 L 145.945312 193.734375 L 145.992188 193.441406 L 146.039062 193.144531 L 146.375 190.945312 L 158.523438 190.945312 L 159.054688 193.144531 L 159.128906 193.441406 L 159.199219 193.734375 L 159.554688 195.203125 C 159.589844 195.335938 159.707031 195.429688 159.84375 195.429688 C 159.847656 195.429688 159.851562 195.429688 159.855469 195.429688 C 159.996094 195.425781 160.113281 195.320312 160.136719 195.179688 L 160.359375 193.734375 L 160.402344 193.441406 L 160.449219 193.144531 L 160.789062 190.945312 L 172.570312 190.945312 L 172.535156 193.0625 Z M 173.128906 192.925781 L 173.160156 190.945312 L 175.816406 190.945312 C 175.179688 191.878906 174.234375 192.589844 173.128906 192.925781 Z M 178.785156 184.570312 L 178.785156 187.734375 C 178.785156 188.9375 177.964844 189.953125 176.855469 190.257812 C 176.738281 190.289062 176.621094 190.316406 176.5 190.332031 C 176.386719 190.34375 176.277344 190.355469 176.160156 190.355469 L 113.429688 190.355469 C 113.316406 190.355469 113.203125 190.34375 113.09375 190.332031 C 112.96875 190.316406 112.851562 190.289062 112.734375 190.257812 C 111.625 189.953125 110.808594 188.9375 110.808594 187.734375 L 110.808594 182.953125 C 110.808594 182.941406 110.808594 182.929688 110.808594 182.921875 C 110.824219 182.921875 110.839844 182.929688 110.859375 182.929688 L 178.507812 182.929688 C 178.625 182.929688 178.726562 182.859375 178.773438 182.757812 C 178.78125 182.820312 178.785156 182.886719 178.785156 182.953125 Z M 189.792969 242.527344 L 191.132812 202.933594 C 194.832031 201.761719 195.53125 195.859375 195.644531 194.449219 C 196.613281 194.460938 197.808594 194.480469 199.109375 194.5 L 204.535156 211.351562 C 204.574219 211.476562 204.691406 211.558594 204.820312 211.558594 L 208.175781 211.558594 L 212.378906 225.351562 L 208.390625 242.785156 Z M 218.273438 242.679688 L 212.988281 225.332031 L 212.816406 224.761719 L 212.640625 224.191406 L 206.027344 202.464844 C 205.976562 202.308594 205.8125 202.21875 205.65625 202.265625 C 205.5 202.316406 205.410156 202.480469 205.460938 202.636719 L 207.996094 210.964844 L 205.035156 210.964844 L 199.734375 194.507812 C 200.835938 194.523438 201.988281 194.542969 203.136719 194.558594 C 203.207031 194.5625 203.277344 194.5625 203.34375 194.5625 C 203.632812 194.566406 203.917969 194.570312 204.207031 194.570312 C 209.460938 194.570312 214.707031 193.964844 219.824219 192.773438 C 219.910156 192.753906 220 192.734375 220.085938 192.714844 L 220.144531 192.703125 L 220.464844 192.625 L 230.089844 190.347656 L 231.65625 202.40625 C 223.359375 202.253906 221.835938 194.566406 221.773438 194.234375 C 221.746094 194.074219 221.59375 193.96875 221.429688 193.996094 C 221.269531 194.027344 221.164062 194.179688 221.191406 194.339844 C 221.207031 194.429688 222.863281 202.890625 231.734375 203 L 236.859375 242.421875 Z M 230.636719 189.980469 L 234.53125 149.875 L 235.460938 147.355469 C 237.03125 143.929688 235.785156 139 232.792969 136.808594 C 232.78125 136.800781 232.773438 136.800781 232.761719 136.796875 C 231.328125 135.425781 229.398438 134.578125 227.292969 134.542969 L 217.5 134.394531 L 217.5 124.6875 C 219.199219 124.679688 220.582031 123.296875 220.582031 121.59375 L 220.582031 120.425781 C 220.582031 119.5625 219.878906 118.859375 219.015625 118.859375 L 218.730469 118.859375 C 218.722656 118.859375 218.714844 118.859375 218.703125 118.859375 L 218.703125 114.511719 C 218.703125 112.515625 217.085938 110.898438 215.089844 110.898438 L 210.996094 110.898438 C 210.535156 110.898438 210.09375 110.714844 209.769531 110.390625 C 209.445312 110.0625 209.003906 109.882812 208.542969 109.882812 L 205.039062 109.882812 C 202.941406 109.882812 201.238281 111.582031 201.238281 113.679688 L 201.238281 113.910156 C 201.238281 115.132812 201.820312 116.21875 202.714844 116.914062 C 202.699219 117.066406 202.6875 117.21875 202.6875 117.375 L 202.6875 127.390625 C 202.6875 129.226562 203.90625 130.777344 205.574219 131.292969 L 205.574219 134.683594 L 193.363281 135.917969 C 193.308594 135.921875 193.261719 135.945312 193.222656 135.976562 L 176.445312 137.59375 C 176.453125 137.328125 176.363281 137.066406 176.195312 136.847656 C 176.5 136.695312 176.734375 136.421875 176.816406 136.082031 C 176.90625 135.730469 176.828125 135.359375 176.605469 135.070312 C 176.71875 135.011719 176.824219 134.9375 176.914062 134.84375 C 177.019531 134.738281 177.097656 134.617188 177.15625 134.484375 C 177.5625 134.34375 177.894531 134.125 178.140625 133.828125 C 178.769531 133.078125 178.625 132.121094 178.617188 132.082031 C 178.597656 131.957031 178.5 131.855469 178.371094 131.835938 L 176.195312 131.5 L 176.96875 129.042969 C 177.1875 128.351562 176.390625 127.78125 175.804688 128.210938 C 175.539062 128.402344 175.183594 128.402344 174.921875 128.214844 L 173.476562 127.175781 C 173.214844 126.988281 172.859375 126.988281 172.597656 127.175781 L 171.152344 128.214844 C 170.890625 128.402344 170.53125 128.402344 170.269531 128.210938 C 169.679688 127.78125 168.886719 128.351562 169.105469 129.042969 L 170.289062 132.820312 L 169.460938 132.820312 C 169.15625 132.820312 168.867188 132.9375 168.648438 133.144531 L 167.71875 134 C 166.226562 135.382812 165.339844 137.339844 165.285156 139.378906 L 165.285156 146.933594 C 165.128906 147.113281 164.972656 147.296875 164.804688 147.472656 L 150.527344 162.621094 C 148.339844 165.488281 147.597656 169.207031 148.523438 172.691406 L 149.355469 175.839844 C 149.738281 177.277344 150.375 178.589844 151.214844 179.738281 L 113.429688 179.738281 C 111.65625 179.738281 110.214844 181.179688 110.214844 182.953125 L 110.214844 187.734375 C 110.214844 189.382812 111.464844 190.746094 113.066406 190.925781 C 113.800781 192.195312 115.019531 193.148438 116.472656 193.539062 L 117.261719 243.089844 C 117.265625 243.25 117.398438 243.382812 117.558594 243.382812 L 172.03125 243.382812 C 172.191406 243.382812 172.324219 243.25 172.328125 243.089844 L 173.121094 193.539062 C 174.570312 193.148438 175.789062 192.195312 176.523438 190.925781 C 178.125 190.746094 179.375 189.382812 179.375 187.734375 L 179.375 184.726562 L 185.902344 186.46875 C 185.921875 186.476562 185.945312 186.480469 185.96875 186.480469 L 189.894531 186.578125 L 189.832031 190.933594 C 189.8125 191.851562 190.152344 192.71875 190.792969 193.378906 C 190.8125 193.402344 190.835938 193.421875 190.859375 193.441406 L 189.191406 242.8125 C 189.1875 242.890625 189.21875 242.96875 189.273438 243.027344 C 189.328125 243.082031 189.402344 243.113281 189.480469 243.117188 L 208.625 243.382812 C 208.765625 243.382812 208.886719 243.285156 208.914062 243.152344 L 212.726562 226.492188 L 217.773438 243.066406 C 217.808594 243.191406 217.925781 243.277344 218.054688 243.277344 C 218.054688 243.277344 218.058594 243.277344 218.058594 243.277344 L 237.199219 243.011719 C 237.285156 243.011719 237.363281 242.972656 237.417969 242.910156 C 237.476562 242.84375 237.5 242.761719 237.488281 242.675781 L 230.636719 189.980469 " fill-opacity="1" fill-rule="nonzero"/></g></svg>